<svg width="73" height="70" viewBox="0 0 73 70" fill="none" xmlns="http://www.w3.org/2000/svg">
<g clip-path="url(#clip0_2612_8532)">
<path d="M70.0666 67.6954H67.7763V65.3908H65.4861V67.6954H58.4722V65.3908H56.1819V67.6954H53.8916V66.5431C53.8916 62.2221 57.4702 58.6213 62.0507 58.6213C66.4881 58.6213 70.2097 62.2221 70.2097 66.5431V67.6954H70.0666ZM58.4722 53.004V50.6995C58.4722 48.827 60.0467 47.2427 61.9076 47.2427C63.7684 47.2427 65.3429 48.827 65.3429 50.6995V53.004C65.3429 54.8764 63.7684 56.4608 61.9076 56.4608C60.0467 56.4608 58.4722 54.8764 58.4722 53.004ZM49.168 51.9958C48.5954 51.9958 48.0229 51.4196 48.0229 50.8435C48.0229 50.2674 48.5954 49.6912 49.168 49.6912C49.7406 49.6912 50.3131 50.2674 50.3131 50.8435C50.4563 51.4196 49.8837 51.9958 49.168 51.9958ZM32.993 53.004V50.6995C32.993 48.827 34.5676 47.2427 36.4284 47.2427C38.2893 47.2427 39.8638 48.827 39.8638 50.6995V53.004C39.8638 54.8764 38.2893 56.4608 36.4284 56.4608C34.5676 56.4608 32.993 54.8764 32.993 53.004ZM44.5875 66.6871V67.6954H42.2972V65.3908H40.007V67.6954H32.993V65.3908H30.7028V67.6954H28.4125V66.5431C28.4125 62.2221 31.9911 58.6213 36.5716 58.6213C41.1521 58.6213 44.5875 62.2221 44.5875 66.6871ZM34.1382 38.4567H38.7187C38.7187 39.753 37.7167 40.7612 36.4284 40.7612C35.1402 40.7612 34.1382 39.6089 34.1382 38.4567ZM41.1521 36.1522H31.8479V33.8476H41.1521V36.1522ZM27.9831 24.0534C25.1203 21.6048 23.5457 18.148 23.6889 14.5472C23.832 8.06574 29.2714 2.59248 35.8559 2.30442C39.4344 2.16039 42.7266 3.45668 45.16 5.76121C47.7366 8.06574 49.0249 11.3785 49.0249 14.6912C49.0249 18.2921 47.4503 21.7489 44.5875 24.0534C42.2972 26.0698 40.8658 28.8065 40.8658 31.5431H31.5616C31.7048 28.8065 30.4165 26.0698 27.9831 24.0534ZM23.6889 51.9958C23.1163 51.9958 22.5437 51.4196 22.5437 50.8435C22.5437 50.2674 23.1163 49.6912 23.6889 49.6912C24.2614 49.6912 24.834 50.2674 24.834 50.8435C24.834 51.4196 24.4046 51.9958 23.6889 51.9958ZM7.51392 53.004V50.6995C7.51392 48.827 9.08847 47.2427 10.9493 47.2427C12.8101 47.2427 14.3847 48.827 14.3847 50.6995V53.004C14.3847 54.8764 12.8101 56.4608 10.9493 56.4608C9.08847 56.4608 7.51392 54.8764 7.51392 53.004ZM19.1083 66.6871V67.6954H16.8181V65.3908H14.3847V67.6954H7.51392V65.3908H5.08052V67.6954H2.79026V66.5431C2.79026 62.2221 6.36879 58.6213 10.9493 58.6213C15.3867 58.7653 19.1083 62.2221 19.1083 66.6871ZM65.9155 57.181C67.0606 56.1727 67.7763 54.7324 67.7763 53.004V50.6995C67.7763 47.5308 65.1998 45.0822 61.9076 45.0822C59.0447 45.0822 56.7545 46.9546 56.1819 49.5472H52.3171C51.8877 48.2509 50.5994 47.2427 49.0249 47.2427C47.4503 47.2427 46.3052 48.2509 45.7326 49.5472H41.8678C41.4384 47.3867 39.5775 45.6583 37.2873 45.0822V42.4896C39.2913 41.9135 40.7227 40.1851 40.7227 38.1686H41.8678C42.4404 38.1686 43.0129 37.5925 43.0129 37.0163V33.5596H45.3032V31.6871H43.4423C43.4423 29.5266 44.4443 27.3661 46.3052 25.9258C49.5974 23.1892 51.6014 19.1563 51.6014 14.8353C51.6014 10.8024 49.8837 7.05751 47.0209 4.17685C44.0149 1.44022 40.1501 -0.144141 35.999 0.143925C28.1262 0.431991 21.6849 6.91347 21.5417 14.5472C21.3986 18.8682 23.4026 23.0452 26.6948 25.7818C28.5557 27.3661 29.5577 29.5266 29.7008 31.6871H27.4105V33.9917H29.7008V37.4484C29.7008 38.0246 30.2734 38.6007 30.8459 38.6007H31.9911C31.9911 40.7612 33.4225 42.4896 35.4264 42.9217V45.5143C33.1362 45.9464 31.4185 47.6748 30.8459 49.9793H26.9811C26.5517 48.683 25.2634 47.6748 23.6889 47.6748C22.1143 47.6748 20.9692 48.683 20.3966 49.9793H16.5318C15.9592 47.3867 13.669 45.5143 10.8062 45.5143C7.65706 45.5143 4.93738 48.1069 4.93738 51.1316V53.4361C4.93738 55.0205 5.65308 56.6048 6.79821 57.6131C3.21968 58.7653 0.5 62.3661 0.5 66.6871V68.9917C0.5 69.5678 1.07256 70.1439 1.64513 70.1439H20.2535C20.826 70.1439 21.3986 69.5678 21.3986 68.9917V66.6871C21.3986 62.3661 18.6789 58.7653 14.8141 57.325C15.9592 56.3168 16.6749 54.8764 16.6749 53.148V51.9958H20.3966C20.826 53.2921 22.1143 54.3003 23.6889 54.3003C25.2634 54.3003 26.4085 53.2921 26.9811 51.9958H30.7028V53.148C30.7028 54.7324 31.4185 56.3168 32.5636 57.325C28.6988 58.9094 25.9791 62.5102 25.9791 66.6871V68.9917C25.9791 69.5678 26.5517 70.1439 27.1243 70.1439H45.7326C46.3052 70.1439 46.8777 69.5678 46.8777 68.9917V66.6871C46.8777 62.3661 44.1581 58.7653 40.2932 57.325C41.4384 56.3168 42.1541 54.8764 42.1541 53.148V51.9958H45.8757C46.3052 53.2921 47.5934 54.3003 49.168 54.3003C50.7425 54.3003 51.8877 53.2921 52.4602 51.9958H56.1819V53.148C56.1819 54.7324 56.8976 56.3168 58.0427 57.325C54.1779 58.9094 51.4582 62.5102 51.4582 66.6871V68.9917C51.4582 69.5678 52.0308 70.1439 52.6034 70.1439H71.2117C71.7843 70.1439 72.3569 69.5678 72.3569 68.9917V66.6871C72.5 62.3661 69.7803 58.7653 65.9155 57.181Z" fill="black"/>
<path d="M36.428 11.2346C38.2888 11.2346 39.8634 12.8189 39.8634 14.6913C39.8634 16.5638 38.2888 18.1481 36.428 18.1481C34.5672 18.1481 32.9926 16.5638 32.9926 14.6913C32.9926 12.8189 34.5672 11.2346 36.428 11.2346ZM35.2829 20.1646V22.4691H37.5731V20.1646C38.2888 20.0206 39.0046 19.7325 39.5771 19.3004L41.2948 21.0288L42.8694 19.4444L41.1517 17.716C41.5811 17.1399 41.8674 16.4197 42.0105 15.6996H44.4439V13.5391H42.0105C41.8674 12.8189 41.5811 12.0988 41.1517 11.5226L42.8694 9.79422L41.2948 8.20986L39.5771 9.93826C39.0046 9.50616 38.2888 9.21809 37.5731 9.07406V6.76953H35.2829V9.07406C34.5672 9.21809 33.8515 9.50616 33.2789 9.93826L31.5612 8.20986L29.9867 9.79422L31.7044 11.5226C31.2749 12.0988 30.9887 12.8189 30.8455 13.5391H28.4121V15.8436H30.8455C30.9887 16.5638 31.2749 17.2839 31.7044 17.8601L29.9867 19.5885L31.5612 21.1728L33.2789 19.4444C33.8515 19.7325 34.5672 20.0206 35.2829 20.1646Z" fill="black"/>
</g>
<defs>
<clipPath id="clip0_2612_8532">
<rect width="72" height="70" fill="white" transform="translate(0.5)"/>
</clipPath>
</defs>
</svg>
