<svg width="75" height="70" viewBox="0 0 75 70" fill="none" xmlns="http://www.w3.org/2000/svg">
<g clip-path="url(#clip0_2612_8488)">
<path d="M5.57827 22.4175H2.23342V21.4051C2.23342 20.5373 2.96056 19.8141 3.83313 19.8141C4.7057 19.8141 5.43284 20.5373 5.43284 21.4051V22.4175H5.57827ZM5.57827 26.467H2.23342V24.2976H5.57827V26.467ZM5.57827 54.091H2.23342V28.2026H5.57827V54.091ZM5.28741 55.8265L3.83313 58.2852L2.37885 55.8265C2.37885 55.8265 2.37885 55.8265 2.37885 55.6819L5.28741 55.8265C5.43284 55.8265 5.28741 55.8265 5.28741 55.8265ZM3.97856 18.0786C2.08799 18.0786 0.488281 19.5249 0.488281 21.4051V54.9588C0.488281 55.5373 0.63371 56.1158 0.924566 56.6943L3.10599 60.4546C3.39685 60.8885 3.83313 61.0331 4.26942 60.7439C4.56027 60.7439 4.7057 60.7439 4.7057 60.5993L6.88712 56.8389C7.17798 56.2604 7.32341 55.6819 7.32341 55.1034V21.4051C7.32341 19.5249 5.86913 18.0786 3.97856 18.0786Z" fill="black"/>
<path d="M72.6203 51.0535C72.6203 51.3428 72.3295 51.632 72.0386 51.632H67.8212L67.2395 35.5783C67.2395 35.1444 66.8032 34.7106 66.3669 34.7106H54.2964C53.8601 34.7106 53.4238 35.1444 53.4238 35.5783L53.5692 41.942L53.133 42.8097C52.6967 42.8097 52.2604 42.6651 51.6787 42.6651V32.1073H52.8421C53.2784 32.1073 53.7147 31.6734 53.7147 31.2395V27.7684C53.7147 27.3345 53.2784 26.9006 52.8421 26.9006H51.6787V24.5866H52.8421C53.2784 24.5866 53.7147 24.1527 53.7147 23.7188V20.2477C53.7147 19.8139 53.2784 19.38 52.8421 19.38H48.6247L45.8615 16.632V10.413C45.8615 10.2684 46.007 9.97915 46.2978 9.97915H72.3295C72.6204 9.97915 72.7658 10.1238 72.7658 10.413V51.0535H72.6203ZM65.9306 51.632C65.9306 51.4874 65.9307 51.4874 65.7852 51.3428L64.3309 48.0163C64.0401 47.4378 63.4584 47.1486 62.8767 47.4378L61.5678 48.0163C60.6952 47.0039 59.8227 45.9916 58.6592 45.2684L59.241 43.9668C59.5318 43.3882 59.241 42.6651 58.6592 42.5205L55.3144 41.2188L55.169 36.5907H65.4944L65.9306 51.632ZM62.7312 52.0659C62.2949 52.2106 62.0041 52.7891 62.0041 53.3676C62.2949 54.8139 62.2949 56.2602 62.0041 57.7064C61.8587 58.2849 62.1495 58.7188 62.7312 59.0081L64.0401 59.442L63.1675 61.6114L61.8587 61.1775C61.2769 61.0329 60.6952 61.1775 60.4044 61.6114C59.6772 62.7684 58.5138 63.7808 57.3504 64.6486C56.9141 64.9378 56.7687 65.5163 56.9141 66.0949L57.4958 67.2519L55.3144 67.975L54.7327 66.6734C54.5872 66.2395 54.0055 65.9502 53.4238 65.9502C52.6967 66.0949 51.9695 66.2395 51.2424 66.2395C51.5333 65.661 51.6787 64.9378 51.6787 64.2147V63.0577C52.2604 63.0577 52.8421 62.913 53.4238 62.6238C53.8601 62.4792 54.151 61.9006 54.0055 61.4668C53.8601 61.0329 53.2784 60.7436 52.8421 60.8882C52.4058 61.0329 52.115 61.1775 51.6787 61.1775V49.6073C52.115 49.6073 52.4058 49.7519 52.8421 49.8965C53.2784 50.0411 53.8601 49.8965 54.0055 49.318C54.151 48.8841 54.0055 48.3056 53.4238 48.161C52.8421 48.0163 52.2604 47.8717 51.6787 47.7271V44.4006C52.2604 44.4006 52.6967 44.5453 53.2784 44.5453C53.8601 44.6899 54.2964 44.4006 54.5872 43.8221L55.0235 42.6651L57.205 43.5329L56.7687 44.6899C56.6232 45.1238 56.7687 45.7023 57.205 45.9916C58.3684 46.7147 59.5318 47.7271 60.2589 49.0287C60.5498 49.4626 61.1315 49.6073 61.7132 49.4626L62.8767 48.8841L63.8947 51.0535L62.7312 52.0659ZM51.6787 28.9254H51.9695V30.661H51.6787V28.9254ZM50.5153 21.2601H52.115V22.9957H51.8241C51.6787 22.5618 51.5333 22.1279 51.2424 21.8387L50.5153 21.2601ZM49.9335 64.3593C49.9335 65.9502 48.6247 67.2519 46.8796 67.2519H13.5765C11.9768 67.2519 10.5225 65.9502 10.5225 64.3593V14.6073C10.5225 13.0163 11.8313 11.7147 13.5765 11.7147H37.5721V19.5246C37.5721 21.9833 39.6081 23.8635 42.0804 23.8635H49.9335V64.3593ZM39.4627 13.0163L48.7701 22.1279H42.0804C40.6261 22.1279 39.4627 20.9709 39.4627 19.5246V13.0163ZM48.6247 6.6527C48.6247 6.50808 48.7701 6.36345 48.9155 6.36345H69.7118C69.8572 6.36345 70.0026 6.50808 70.0026 6.6527V8.24361H48.6247V6.6527ZM51.3878 3.037C51.3878 2.74774 51.5333 2.60312 51.8241 2.60312H66.9487C67.2395 2.60312 67.3849 2.74774 67.3849 3.037V4.48328H51.3878V3.037ZM72.1841 8.24361H71.7478V6.6527C71.7478 5.49568 70.7298 4.62791 69.5664 4.62791H68.8392V3.18163C68.8392 2.0246 67.8212 1.01221 66.6578 1.01221H51.8241C50.6607 1.01221 49.6427 2.0246 49.6427 3.18163V4.62791H48.9155C47.7521 4.62791 46.7341 5.49568 46.7341 6.6527V8.24361H46.1524C44.989 8.24361 43.971 9.25601 43.971 10.413V15.0411L39.4627 10.5577C39.0264 10.1238 38.4447 9.83452 37.7176 9.83452H13.5765C10.9588 9.83452 8.77734 12.0039 8.77734 14.6073V64.3593C8.77734 66.9626 10.9588 69.132 13.5765 69.132H46.8796C48.043 69.132 49.061 68.6982 49.9335 67.975C51.097 68.1197 52.2604 68.1197 53.2784 67.975L53.8601 69.2767C54.151 69.8552 54.7327 70.1444 55.3144 69.8552L58.8047 68.4089C59.3864 68.1197 59.6772 67.5411 59.3864 66.9626L58.8047 65.661C59.8227 64.9378 60.8407 63.9254 61.5678 62.913L62.8767 63.4916C63.4584 63.7808 64.1855 63.4916 64.3309 62.913L65.7852 59.5866C66.0761 59.0081 65.7852 58.2849 65.2035 58.1403L63.8947 57.5618C64.0401 56.2601 64.0401 54.9585 63.8947 53.6568L72.0386 53.5122C73.3475 53.5122 74.3655 52.4998 74.3655 51.1982V10.413C74.5109 9.25601 73.4929 8.24361 72.1841 8.24361Z" fill="black"/>
<path d="M68.5489 15.62H66.8037V13.8845H68.5489V15.62ZM69.5669 12.1489H65.9312C65.4949 12.1489 65.0586 12.5828 65.0586 13.0167V16.4878C65.0586 16.9217 65.4949 17.3555 65.9312 17.3555H69.4214C69.8577 17.3555 70.294 16.9217 70.294 16.4878V13.0167C70.4394 12.5828 70.0031 12.1489 69.5669 12.1489Z" fill="black"/>
<path d="M51.6788 15.62H49.9336V13.8845H51.6788V15.62ZM52.5513 12.1489H49.061C48.6248 12.1489 48.1885 12.5828 48.1885 13.0167V16.4878C48.1885 16.9217 48.6248 17.3555 49.061 17.3555H52.5513C52.9876 17.3555 53.4239 16.9217 53.4239 16.4878V13.0167C53.4239 12.5828 52.9876 12.1489 52.5513 12.1489Z" fill="black"/>
<path d="M60.4043 15.62H58.6592V13.8845H60.4043V15.62ZM61.2769 12.1489H57.7866C57.3504 12.1489 56.9141 12.5828 56.9141 13.0167V16.4878C56.9141 16.9217 57.3504 17.3555 57.7866 17.3555H61.2769C61.7132 17.3555 62.1495 16.9217 62.1495 16.4878V13.0167C62.2949 12.5828 61.8586 12.1489 61.2769 12.1489Z" fill="black"/>
<path d="M68.5489 22.9957H66.8037V21.2602H68.5489V22.9957ZM69.5669 19.5247H65.9312C65.4949 19.5247 65.0586 19.9585 65.0586 20.3924V23.8635C65.0586 24.2974 65.4949 24.7313 65.9312 24.7313H69.4214C69.8577 24.7313 70.294 24.2974 70.294 23.8635V20.3924C70.4394 19.9585 70.0031 19.5247 69.5669 19.5247Z" fill="black"/>
<path d="M60.4043 22.9957H58.6592V21.2602H60.4043V22.9957ZM61.2769 19.5247H57.7866C57.3504 19.5247 56.9141 19.9585 56.9141 20.3924V23.8635C56.9141 24.2974 57.3504 24.7313 57.7866 24.7313H61.2769C61.7132 24.7313 62.1495 24.2974 62.1495 23.8635V20.3924C62.2949 19.9585 61.8586 19.5247 61.2769 19.5247Z" fill="black"/>
<path d="M68.5489 30.6613H66.8037V28.9257H68.5489V30.6613ZM69.5669 27.1902H65.9312C65.4949 27.1902 65.0586 27.6241 65.0586 28.058V31.529C65.0586 31.9629 65.4949 32.3968 65.9312 32.3968H69.4214C69.8577 32.3968 70.294 31.9629 70.294 31.529V28.058C70.4394 27.4794 70.0031 27.1902 69.5669 27.1902Z" fill="black"/>
<path d="M60.4043 30.6613H58.6592V28.9257H60.4043V30.6613ZM61.2769 27.1902H57.7866C57.3504 27.1902 56.9141 27.6241 56.9141 28.058V31.529C56.9141 31.9629 57.3504 32.3968 57.7866 32.3968H61.2769C61.7132 32.3968 62.1495 31.9629 62.1495 31.529V28.058C62.2949 27.4794 61.8586 27.1902 61.2769 27.1902Z" fill="black"/>
<path d="M39.8104 0H12.1524C11.5762 0 11 0.5 11 1C11 1.5 11.5762 2 12.1524 2H39.8104C40.3866 2 40.9628 1.5 40.9628 1C41.1548 0.5 40.5786 0 39.8104 0Z" fill="black"/>
<path d="M11.9771 1.73554H15.4673C15.9036 1.73554 16.3399 1.30165 16.3399 0.867769C16.4853 0.433884 16.0491 0 15.4673 0H11.9771C11.5408 0 11.1045 0.433884 11.1045 0.867769C11.1045 1.30165 11.5408 1.73554 11.9771 1.73554Z" fill="black"/>
<path d="M39.606 5H19.3504C18.6752 5 18 5.5 18 6C18 6.5 18.6752 7 19.3504 7H39.606C40.2812 7 40.9564 6.5 40.9564 6C41.1814 5.5 40.5063 5 39.606 5Z" fill="black"/>
<path d="M54.7333 51.1983C55.315 51.6322 55.7513 52.2107 56.0422 52.7892C56.333 53.2231 56.7693 53.3677 57.2056 53.0785C57.6419 52.7892 57.7873 52.3553 57.4964 51.9215C57.0602 51.1983 56.4784 50.4752 55.7513 49.8967C55.315 49.6074 54.7333 49.6074 54.4424 50.0413C54.297 50.3305 54.297 50.7644 54.7333 51.1983Z" fill="black"/>
<path d="M57.2052 58.285C56.7689 57.9958 56.1872 58.1404 56.0418 58.5743C55.7509 59.1528 55.1692 59.7313 54.7329 60.1652C54.2966 60.4544 54.2966 61.0329 54.5875 61.4668C54.8783 61.9007 55.46 61.9007 55.8963 61.6114C56.6235 61.0329 57.2052 60.3098 57.6415 59.5867C57.7869 59.0082 57.6415 58.5743 57.2052 58.285Z" fill="black"/>
<path d="M57.4959 53.657C57.0596 53.8016 56.6233 54.2355 56.7688 54.6694C56.9142 55.3925 56.9142 55.971 56.7688 56.6942C56.6233 57.1281 57.0596 57.5619 57.4959 57.7066H57.6413C58.0776 57.7066 58.5139 57.4173 58.5139 56.9834C58.6593 56.1157 58.6593 55.2479 58.5139 54.3801C58.3685 53.8016 57.9322 53.5123 57.4959 53.657Z" fill="black"/>
<path d="M16.34 20.8265C16.7763 20.8265 17.0672 21.1158 17.0672 21.5497C17.0672 21.9836 16.7763 22.2728 16.34 22.2728C16.34 22.2728 16.34 22.2728 16.1946 22.2728C15.9038 22.2728 15.7583 22.1282 15.6129 21.9836C15.322 21.5497 14.7403 21.5497 14.3041 21.8389C13.8678 22.1282 13.8678 22.7067 14.1586 23.1406C14.4495 23.5745 14.8858 23.7191 15.3221 24.0083C15.3221 24.4422 15.7583 24.8761 16.1946 24.8761C16.6309 24.8761 17.0672 24.4422 17.0672 24.0083C18.376 23.5745 19.1032 22.1282 18.5215 20.8265C18.0852 19.8141 17.2126 19.2356 16.0492 19.2356C15.6129 19.2356 15.3221 18.9464 15.3221 18.5125C15.3221 18.0786 15.6129 17.7893 16.0492 17.7893C16.0492 17.7893 16.0492 17.7893 16.1946 17.7893C16.4855 17.7893 16.6309 17.934 16.7763 18.0786C17.0672 18.5125 17.6489 18.5125 18.0852 18.2232C18.5215 17.934 18.5215 17.3555 18.2306 16.9216C17.9398 16.4877 17.5035 16.3431 17.0672 16.0538C17.0672 15.6199 16.6309 15.186 16.1946 15.186C15.7583 15.186 15.3221 15.6199 15.3221 16.0538C14.0132 16.4877 13.2861 17.934 13.8678 19.2356C14.3041 20.1034 15.322 20.8265 16.34 20.8265Z" fill="black"/>
<path d="M43.0984 61.4671L41.3533 58.4299C41.4987 58.2853 41.6441 57.996 41.7896 57.8514L45.1344 58.5745C44.6981 59.7315 44.1164 60.7439 43.0984 61.4671ZM39.1719 62.9133C38.7356 62.9133 38.4447 62.9134 38.0084 62.7687L38.881 59.5869H39.0264C39.3173 59.5869 39.4627 59.5869 39.7536 59.4423L41.4987 62.3348C40.7716 62.7687 39.899 62.9133 39.1719 62.9133ZM36.2633 62.1902C33.2093 60.5993 32.0459 56.9836 33.6456 54.091C34.6636 52.0662 36.845 50.7646 39.1719 50.7646C39.3173 50.7646 39.4627 50.7646 39.6081 50.7646L38.7356 54.091C37.1359 54.2357 36.1179 55.6819 36.2633 57.1282C36.4087 57.7067 36.6996 58.4299 37.1359 58.8638L36.2633 62.1902ZM40.0444 56.839C40.0444 57.4175 39.6081 57.8514 39.0264 57.8514C38.4447 57.8514 38.0084 57.4175 38.0084 56.839C38.0084 56.2605 38.4447 55.8266 39.0264 55.8266C39.6081 55.8266 40.0444 56.2605 40.0444 56.839ZM45.7161 56.839L41.7896 56.1158C41.6441 55.3927 41.0624 54.8142 40.4807 54.5249L41.3533 50.9092C41.4987 50.1861 41.0624 49.3183 40.3353 49.1737H40.1898C39.7536 49.1737 39.4627 49.0291 39.0264 49.0291C36.845 49.0291 34.6636 49.8968 33.2093 51.4877C30.1553 54.6695 30.3007 59.5869 33.5001 62.4795C34.9544 63.7811 36.9904 64.6489 39.0264 64.6489C42.8076 64.6489 46.1524 62.0456 46.8795 58.5745C47.025 57.7067 46.5887 56.9836 45.7161 56.839Z" fill="black"/>
<path d="M47.025 54.091L43.3893 53.9463L44.4073 50.3306C46.007 50.9091 47.025 52.3554 47.025 54.091ZM42.953 49.029L41.3533 54.5248C41.2078 54.9587 41.4987 55.5372 41.935 55.6819H42.0804L47.7521 55.9711C48.1884 55.9711 48.6247 55.6819 48.6247 55.248C49.2064 52.0662 47.025 49.029 43.8255 48.4505C43.3893 48.3058 42.953 48.5951 42.953 49.029Z" fill="black"/>
<path d="M21.8667 18.0786H35.3915C35.8278 18.0786 36.2641 17.6447 36.2641 17.2108C36.2641 16.7769 35.8278 16.343 35.3915 16.343H21.8667C21.4304 16.343 20.9941 16.7769 20.9941 17.2108C20.9941 17.6447 21.4304 18.0786 21.8667 18.0786Z" fill="black"/>
<path d="M21.8667 23.8637H35.3915C35.8278 23.8637 36.2641 23.4298 36.2641 22.9959C36.2641 22.5621 35.8278 22.1282 35.3915 22.1282H21.8667C21.4304 22.1282 20.9941 22.5621 20.9941 22.9959C20.9941 23.4298 21.4304 23.8637 21.8667 23.8637Z" fill="black"/>
<path d="M41.0625 28.6363C41.0625 29.0702 41.4988 29.5041 41.9351 29.5041H45.5708C46.0071 29.5041 46.4433 29.0702 46.4433 28.6363C46.4433 28.2024 46.0071 27.7686 45.5708 27.7686H41.9351C41.4988 27.7686 41.0625 28.2024 41.0625 28.6363Z" fill="black"/>
<path d="M14.0137 28.6363C14.0137 29.0702 14.45 29.5041 14.8862 29.5041H38.4456C38.8819 29.5041 39.3182 29.0702 39.3182 28.6363C39.3182 28.2024 38.8819 27.7686 38.4456 27.7686H14.8862C14.45 27.7686 14.0137 28.2024 14.0137 28.6363Z" fill="black"/>
<path d="M45.5704 33.5537H21.5747C21.1384 33.5537 20.7021 33.9876 20.7021 34.4215C20.7021 34.8554 21.1384 35.2892 21.5747 35.2892H45.5704C46.0067 35.2892 46.4429 34.8554 46.4429 34.4215C46.4429 33.9876 46.0067 33.5537 45.5704 33.5537Z" fill="black"/>
<path d="M14.8862 35.2892H18.0857C18.5219 35.2892 18.9582 34.8554 18.9582 34.4215C18.9582 33.9876 18.5219 33.5537 18.0857 33.5537H14.8862C14.45 33.5537 14.0137 33.9876 14.0137 34.4215C14.0137 34.8554 14.45 35.2892 14.8862 35.2892Z" fill="black"/>
<path d="M45.5714 39.3386H34.0825C33.6462 39.3386 33.21 39.7725 33.21 40.2064C33.21 40.6403 33.6462 41.0742 34.0825 41.0742H45.5714C46.0076 41.0742 46.4439 40.6403 46.4439 40.2064C46.4439 39.6279 46.0076 39.3386 45.5714 39.3386Z" fill="black"/>
<path d="M14.8862 41.0742H31.4651C31.9014 41.0742 32.3376 40.6403 32.3376 40.2064C32.3376 39.7725 31.9014 39.3386 31.4651 39.3386H14.8862C14.45 39.3386 14.0137 39.7725 14.0137 40.2064C14.0137 40.6403 14.45 41.0742 14.8862 41.0742Z" fill="black"/>
<path d="M27.3921 46.8593H45.5706C46.0069 46.8593 46.4432 46.4254 46.4432 45.9915C46.4432 45.5577 46.0069 45.1238 45.5706 45.1238H27.3921C26.9558 45.1238 26.5195 45.5577 26.5195 45.9915C26.5195 46.4254 26.8104 46.8593 27.3921 46.8593Z" fill="black"/>
<path d="M24.1937 46.8593C24.6299 46.8593 25.0662 46.4254 25.0662 45.9915C25.0662 45.5577 24.6299 45.1238 24.1937 45.1238H14.8862C14.45 45.1238 14.0137 45.5577 14.0137 45.9915C14.0137 46.4254 14.45 46.8593 14.8862 46.8593H24.1937Z" fill="black"/>
<path d="M28.7011 50.7644H15.1763C14.74 50.7644 14.3037 51.1983 14.3037 51.6322C14.3037 52.0661 14.74 52.5 15.1763 52.5H28.7011C29.1374 52.5 29.5737 52.0661 29.5737 51.6322C29.7191 51.1983 29.2828 50.7644 28.7011 50.7644Z" fill="black"/>
<path d="M28.7011 56.5496H15.1763C14.74 56.5496 14.3037 56.9834 14.3037 57.4173C14.3037 57.8512 14.74 58.2851 15.1763 58.2851H28.7011C29.1374 58.2851 29.5737 57.8512 29.5737 57.4173C29.7191 56.9834 29.2828 56.5496 28.7011 56.5496Z" fill="black"/>
<path d="M28.7011 62.3347H15.1763C14.74 62.3347 14.3037 62.7686 14.3037 63.2025C14.3037 63.6364 14.74 64.0702 15.1763 64.0702H28.7011C29.1374 64.0702 29.5737 63.6364 29.5737 63.2025C29.7191 62.624 29.2828 62.3347 28.7011 62.3347Z" fill="black"/>
<path fill-rule="evenodd" clip-rule="evenodd" d="M51 62.9836C51.1653 62.9945 51.332 63 51.5 63C55.6421 63 59 59.6421 59 55.5C59 51.3579 55.6421 48 51.5 48C51.332 48 51.1653 48.0055 51 48.0164V50.0224C51.1647 50.0076 51.3315 50 51.5 50C54.5376 50 57 52.4624 57 55.5C57 58.5376 54.5376 61 51.5 61C51.3315 61 51.1647 60.9924 51 60.9776V62.9836Z" fill="black"/>
</g>
<defs>
<clipPath id="clip0_2612_8488">
<rect width="74.023" height="70" fill="white" transform="translate(0.488281)"/>
</clipPath>
</defs>
</svg>
