<svg width="79" height="77" viewBox="0 0 79 77" fill="none" xmlns="http://www.w3.org/2000/svg">
<g clip-path="url(#clip0_2612_8541)">
<path d="M44.6046 40.8193C47.1175 38.9639 48.8451 36.49 50.1016 32.7791C51.358 33.5522 52.6145 34.6345 53.7139 35.7169C51.201 38.1908 48.0598 39.8916 44.6046 40.8193ZM40.364 29.6867C43.191 29.8414 45.861 30.4598 48.3739 31.6968C46.8034 36.49 44.4475 38.9639 40.364 41.1285V29.6867ZM40.364 22.5743H50.2586C49.7875 25.512 49.4734 27.9859 48.8451 29.996C46.1751 28.759 43.191 27.9859 40.364 27.8313V22.5743ZM40.364 15.4618C42.5628 15.3072 44.7616 14.998 46.9604 14.2249L50.5728 20.4096C50.5728 20.5643 50.5728 20.5643 50.5728 20.7189H40.364V15.4618ZM40.364 2.16466C42.2487 3.09237 43.8193 4.48394 45.2328 6.03012C44.4475 8.04016 44.6046 10.2048 45.704 12.0602L46.0181 12.6787C44.2904 13.2972 42.4058 13.6064 40.5211 13.761V2.16466H40.364ZM47.1175 3.40161C46.9604 3.55623 46.8034 3.71084 46.6463 3.86546C46.4893 4.02008 46.3322 4.1747 46.1751 4.32932C45.5469 3.55622 44.7616 2.93775 44.1334 2.31928C45.0757 2.62851 46.1751 2.93775 47.1175 3.40161ZM51.5151 3.71084C52.7716 3.71084 54.1851 4.1747 55.1274 5.10241C56.698 6.64859 57.0121 9.12249 55.9127 11.1325L51.6722 18.3996L47.4316 11.1325C46.0181 8.81325 46.8034 5.72088 49.1592 4.32932C49.7875 3.86546 50.5728 3.71084 51.5151 3.71084ZM59.525 20.7189H52.4574V20.5643L57.1692 12.5241C58.5827 14.998 59.368 17.7811 59.525 20.7189ZM54.9704 34.1707C53.7139 32.9337 52.1433 31.6968 50.5728 30.7691C51.201 28.4498 51.6722 25.6667 52.1433 22.4197H59.525C59.368 26.749 57.7974 30.9237 54.9704 34.1707ZM38.4793 13.6064C35.6523 13.4518 32.8252 12.8333 30.3123 11.4418C32.04 7.26707 34.867 4.02008 38.4793 2.16466V13.6064ZM38.4793 20.7189H32.3541C32.197 19.7912 31.7258 19.0181 30.9406 18.3996C30.3123 17.7811 29.527 17.3173 28.5847 17.008C28.7417 15.7711 29.0559 14.5341 29.527 13.2972C32.3541 14.6888 35.3382 15.4618 38.3223 15.4618V20.7189H38.4793ZM38.4793 27.8313C35.3382 27.9859 32.3541 28.759 29.6841 29.996C29.527 29.5321 29.37 29.0683 29.2129 28.6044L31.7258 24.2751C32.04 23.6566 32.3541 23.0382 32.3541 22.4197H38.3223V27.8313H38.4793ZM38.4793 41.1285C34.867 39.1185 32.04 36.0261 30.3123 31.8514C32.8252 30.6145 35.6523 29.8414 38.4793 29.8414V41.1285ZM25.1294 35.5622C26.2288 34.4799 27.3282 33.5522 28.7417 32.7791C30.1553 36.1807 32.197 38.9639 34.867 40.9739C31.0976 40.0462 27.7994 38.1908 25.1294 35.5622ZM23.873 34.1707C21.203 30.9237 19.6324 26.9036 19.3183 22.5743H22.3024C22.4594 23.1928 22.6165 23.8112 22.9306 24.4297L26.5429 30.4598C26.857 30.9237 27.3282 31.0783 27.7994 30.7691V30.9237C26.3859 31.8514 25.1294 32.9337 23.873 34.1707ZM29.6841 19.6365C30.7835 20.7189 30.9406 22.2651 30.1553 23.502L27.3282 28.2952L24.5012 23.502C23.5588 21.9558 24.1871 19.9458 25.6006 19.1727C27.0141 18.3996 28.5847 18.5542 29.6841 19.6365ZM23.873 9.12249C25.1294 10.3594 26.3859 11.4418 27.9565 12.3695C27.4853 13.761 27.0141 15.3072 26.8571 16.8534C24.6582 17.1627 22.9306 18.7088 22.4594 20.7189H19.3183C19.4753 16.5442 21.0459 12.3695 23.873 9.12249ZM34.7099 2.31928C32.04 4.32932 29.9982 7.11245 28.5847 10.5141C27.3282 9.74096 26.2288 8.81325 25.1294 7.73092C27.7994 5.10241 31.0976 3.24699 34.7099 2.31928ZM61.4097 21.6466C61.4097 17.6265 60.3103 13.761 58.1115 10.3594C59.0539 6.80321 56.8551 3.09237 53.2427 2.01004C51.8292 1.7008 50.4157 1.7008 49.1592 2.16466C46.1751 0.773092 42.8769 0 39.4217 0C27.3282 0 17.4336 9.74096 17.4336 21.6466C17.4336 33.5522 27.3282 43.2932 39.4217 43.2932C51.5151 43.2932 61.4097 33.7068 61.4097 21.6466Z" fill="black"/>
<path d="M51.5147 6.95779C52.457 6.95779 53.2423 7.73089 53.2423 8.6586C53.2423 9.58631 52.457 10.3594 51.5147 10.3594C50.5723 10.3594 49.787 9.58631 49.787 8.6586C49.787 7.73089 50.5723 6.95779 51.5147 6.95779ZM51.5147 12.0602C53.5564 12.0602 55.127 10.514 55.127 8.50398C55.127 6.49394 53.5564 4.94775 51.5147 4.94775C49.4729 4.94775 47.9023 6.49394 47.9023 8.50398C47.9023 10.514 49.63 12.0602 51.5147 12.0602Z" fill="black"/>
<path d="M28.2705 21.8012C28.2705 22.2651 27.7994 22.7289 27.3282 22.7289C26.857 22.7289 26.3858 22.2651 26.3858 21.8012C26.3858 21.3373 26.857 20.8735 27.3282 20.8735C27.9564 20.8735 28.2705 21.3373 28.2705 21.8012ZM24.6582 21.8012C24.6582 23.3474 25.9147 24.5843 27.4852 24.5843C29.0558 24.5843 30.3123 23.3474 30.3123 21.8012C30.3123 20.255 29.0558 19.0181 27.4852 19.0181C25.9147 19.0181 24.6582 20.255 24.6582 21.8012Z" fill="black"/>
<path d="M35.0239 64.9397L20.7316 74.2168V66.3312L33.6103 56.5903L35.0239 55.5079V64.9397ZM19.004 53.6525L10.2087 47.777C8.167 46.3854 6.59642 44.3754 5.81113 42.0561L2.04175 21.6465C3.45527 21.6465 4.71173 22.5742 5.02585 23.9658L8.167 34.016L8.00994 34.1706C7.69583 34.4798 7.69583 35.0983 8.00994 35.5621L12.4076 39.5822C13.664 40.6646 14.9205 42.0561 15.8628 43.2931C16.1769 43.7569 16.8052 43.7569 17.1193 43.4477C17.5905 43.1385 17.5905 42.52 17.2763 42.2107C16.1769 40.8192 14.9205 39.4276 13.507 38.1907L9.89463 34.9437C11.6223 34.016 13.664 34.1706 15.0775 35.5621L19.9463 40.3553C20.8887 41.283 22.1451 42.0561 23.4016 42.52L24.1869 42.8292C27.9563 44.0662 30.6262 47.3132 31.2545 51.1786L31.4115 53.4979C31.4115 54.271 31.5686 54.8895 31.8827 55.6626L22.6163 62.6204L21.0457 56.4356C20.7316 55.1987 20.1034 54.271 19.004 53.6525ZM9.58052 27.0581L11.3082 32.4698C10.837 32.6244 10.2087 32.6244 9.73757 32.9336L7.53877 25.5119C8.48111 25.6666 9.2664 26.1304 9.58052 27.0581ZM14.7634 31.6967L15.2346 33.0883C14.6064 32.779 13.9781 32.4698 13.3499 32.4698L12.4076 29.0682C13.507 29.6866 14.4493 30.6144 14.7634 31.6967ZM36.4374 52.8794C36.1233 52.7248 35.6521 52.7248 35.495 53.034L33.6103 54.4256C33.4533 54.1164 33.4533 53.8071 33.4533 53.3433L33.2962 51.024C32.668 46.3854 29.5268 42.6746 24.9722 41.1284L24.1869 40.8192C23.0875 40.5099 22.1451 39.8915 21.3598 39.1184L17.9046 35.5621L16.6481 31.2328C16.0199 29.0682 13.9781 27.3674 11.6223 27.0581L11.4652 26.4397C10.837 24.7389 8.95229 23.5019 6.91054 23.6565V23.5019C6.12525 20.8734 3.45527 19.3272 0.785288 20.1003C0.157058 20.1003 0 20.5642 0 21.028L4.0835 42.52C5.02585 45.3031 6.75348 47.6224 9.2664 49.3232L18.0616 55.1987C18.6899 55.5079 19.161 56.1264 19.3181 56.8995L21.0457 63.8573L19.3181 65.2489C19.161 65.4035 19.004 65.7128 19.004 66.022V76.0722C19.004 76.536 19.4752 76.9999 19.9463 76.9999C20.1034 76.9999 20.2604 76.9999 20.4175 76.8453L36.5944 66.3312C36.9086 66.1766 37.0656 65.8674 37.0656 65.5581V53.8071C36.9086 53.3433 36.7515 53.034 36.4374 52.8794Z" fill="black"/>
<path d="M73.0322 41.9015C72.2469 44.2208 70.6763 46.2308 68.6345 47.6224L59.8393 53.4979C58.7399 54.1164 57.9546 55.0441 57.6405 56.281L56.227 62.6204L46.8035 55.5079C47.1176 54.8895 47.2747 54.1164 47.2747 53.3433L47.4318 51.024C48.06 47.1586 50.73 43.9116 54.4994 42.6746L55.2846 42.3654C56.5411 41.9015 57.7976 41.1284 58.7399 40.2007L63.6087 35.4075C65.0222 34.016 67.064 33.8614 68.7916 34.7891L65.1793 38.0361C63.7658 39.273 62.5093 40.6646 61.4099 42.0561C61.0958 42.52 61.2528 42.9839 61.5669 43.2931C62.0381 43.6023 62.5093 43.4477 62.8234 43.1385C63.9228 41.7469 65.0222 40.51 66.2787 39.4276L70.6763 35.4075C70.9904 35.0983 71.1475 34.4798 70.6763 34.1706L70.5192 34.016L73.5033 23.9658C73.9745 22.5742 75.0739 21.6465 76.4874 21.6465L73.0322 41.9015ZM58.1117 66.3312V74.2168L43.8194 64.9397V55.5079L45.2329 56.5903L58.1117 66.3312ZM64.2369 31.6967C64.551 30.4598 65.4934 29.532 66.7498 29.0682L65.6504 32.4698C65.0222 32.6244 64.394 32.779 63.7658 33.0883L64.2369 31.6967ZM69.2628 27.0582C69.5769 26.1304 70.5192 25.6666 71.4616 25.6666L69.2628 33.0883C68.7916 32.9337 68.3204 32.779 67.6922 32.6244L69.2628 27.0582ZM78.2151 19.9457C75.5451 19.3272 72.8751 20.8734 72.0898 23.3473V23.5019C70.0481 23.3473 68.1634 24.4296 67.5351 26.2851L67.3781 26.9035C65.0222 27.2128 63.1375 28.759 62.5093 31.0782L61.2528 35.2529L57.6405 38.8092C56.8552 39.5822 55.9129 40.2007 54.8135 40.51L54.0282 40.8192C49.6306 42.3654 46.3324 46.2308 45.7041 50.7148L45.5471 53.3433C45.5471 53.6525 45.5471 53.9618 45.39 54.4256L43.5053 53.034C43.0341 52.7248 42.563 52.7248 42.2489 53.1887C42.0918 53.3433 42.0918 53.4979 42.0918 53.8071V65.5581C42.0918 65.8674 42.2489 66.1766 42.563 66.3312L58.7399 76.8453C59.2111 77.1545 59.6823 76.9999 59.9964 76.5361C60.1534 76.3814 60.1534 76.2268 60.1534 76.0722V66.022C60.1534 65.7128 59.9964 65.4035 59.8393 65.2489L58.2687 64.012L59.8393 56.8995C59.9964 56.1264 60.4675 55.6626 61.0958 55.1987L69.891 49.1686C72.2469 47.4678 74.1316 45.1485 75.0739 42.3654L79.1574 20.8734C79.0004 20.5642 78.6862 20.1003 78.2151 19.9457Z" fill="black"/>
</g>
<defs>
<clipPath id="clip0_2612_8541">
<rect width="79" height="77" fill="white"/>
</clipPath>
</defs>
</svg>
