<svg width="77" height="77" viewBox="0 0 77 77" fill="none" xmlns="http://www.w3.org/2000/svg">
<path d="M38.5861 64.2528H8.95749C5.34004 64.2528 2.58389 61.3244 2.58389 57.8792V2.75615H48.7494V39.9642C48.7494 40.6532 49.2662 41.17 49.9553 41.17C50.6443 41.17 51.1611 40.6532 51.1611 39.9642V10.3356H55.123V37.3803C55.123 38.0694 55.6398 38.5861 56.3289 38.5861C57.0179 38.5861 57.5347 38.0694 57.5347 37.3803V10.3356H61.3244V37.3803C61.3244 38.0694 61.8412 38.5861 62.5302 38.5861C63.2192 38.5861 63.736 38.0694 63.736 37.3803V8.95749C63.736 8.26846 63.2192 7.75168 62.5302 7.75168H50.9888V1.20582C50.9888 0.516778 50.472 0 49.783 0H1.20582C0.516779 0 0 0.516778 0 1.20582V57.7069C0 62.7025 3.96197 66.6644 8.95749 66.6644H38.4139C39.1029 66.6644 39.6197 66.1476 39.6197 65.4586C39.792 64.7696 39.2752 64.2528 38.5861 64.2528Z" fill="black"/>
<path d="M74.4158 61.6688H72.5209C72.0042 61.6688 71.4874 62.0134 71.3151 62.5301C70.9706 63.5637 70.6261 64.425 70.1093 65.2863C69.7648 65.8031 69.937 66.4921 70.2816 66.8366L71.4874 68.0424L67.8699 71.6599L66.6641 70.4541C66.3196 70.1096 65.6306 69.9373 65.1138 70.2818C64.2525 70.7986 63.3912 71.1431 62.3576 71.4876C61.8409 71.6599 61.4963 72.1767 61.4963 72.6935V74.5883H56.3285V72.6935C56.3285 72.1767 55.984 71.6599 55.4673 71.4876C54.4337 71.1431 53.5724 70.7986 52.7111 70.2818C52.1943 69.9373 51.5053 70.1096 51.1608 70.4541L49.9549 71.8322L46.3375 68.2147L47.5433 67.0089C47.8878 66.6644 48.0601 65.9753 47.7156 65.4586C47.1988 64.5973 46.8543 63.736 46.5098 62.7024C46.3375 62.1856 45.8207 61.8411 45.3039 61.8411H43.4091V56.6733H45.3039C45.8207 56.6733 46.3375 56.3288 46.5098 55.812C46.8543 54.7785 47.1988 53.9172 47.7156 53.0559C48.0601 52.5391 47.8878 51.85 47.5433 51.5055L46.3375 49.9552L49.9549 46.3377L51.1608 47.5436C51.5053 47.8881 52.1943 48.0603 52.7111 47.7158C53.5724 47.199 54.4337 46.8545 55.4673 46.51C55.984 46.3377 56.3285 45.821 56.3285 45.3042V43.4093H61.4963V45.3042C61.4963 45.821 61.8409 46.3377 62.3576 46.51C63.3912 46.8545 64.2525 47.199 65.1138 47.7158C65.6306 48.0603 66.3196 47.8881 66.6641 47.5436L67.8699 46.3377L71.4874 49.9552L70.2816 51.161C69.937 51.5055 69.7648 52.1946 70.1093 52.7113C70.6261 53.5726 70.9706 54.4339 71.3151 55.4675C71.4874 55.9843 72.0042 56.3288 72.5209 56.3288H74.4158V61.6688ZM75.7939 53.9172H73.5545C73.3822 53.4004 73.21 52.8836 72.8655 52.3668L74.4158 50.8165C74.9326 50.2997 74.9326 49.4384 74.4158 48.9216L68.9035 43.4093C68.3867 42.8926 67.5254 42.8926 67.0086 43.4093L65.4583 44.9597C64.9415 44.7874 64.4247 44.4429 63.908 44.2706V42.0313C63.908 41.3422 63.3912 40.8254 62.7022 40.8254H55.1227C54.4337 40.8254 53.9169 41.3422 53.9169 42.0313V44.2706C53.4001 44.4429 52.8834 44.6151 52.3666 44.9597L50.8162 43.4093C50.2995 42.8926 49.4382 42.8926 48.9214 43.4093L43.4091 48.9216C42.8923 49.4384 42.8923 50.2997 43.4091 50.8165L44.9594 52.3668C44.7872 52.8836 44.4426 53.4004 44.2704 53.9172H42.031C41.342 53.9172 40.8252 54.4339 40.8252 55.123V62.8747C40.8252 63.5637 41.342 64.0805 42.031 64.0805H44.2704C44.4426 64.5973 44.6149 65.114 44.9594 65.6308L43.5813 67.1811C43.0646 67.6979 43.0646 68.5592 43.5813 69.076L49.0936 74.5883C49.6104 75.1051 50.4717 75.1051 50.9885 74.5883L52.5388 73.038C53.0556 73.2102 53.5724 73.5547 54.0892 73.727V75.7941C54.0892 76.4832 54.606 76.9999 55.295 76.9999H63.0467C63.7357 76.9999 64.2525 76.4832 64.2525 75.7941V73.5548C64.7693 73.3825 65.286 73.2102 65.8028 72.8657L67.3532 74.416C67.8699 74.9328 68.7312 74.9328 69.248 74.416L74.7603 68.9037C75.2771 68.387 75.2771 67.5257 74.7603 67.0089L73.21 65.4586C73.3822 64.9418 73.7268 64.425 73.899 63.9082H75.7939C76.4829 63.9082 76.9997 63.3914 76.9997 62.7024V55.123C76.9997 54.4339 76.4829 53.9172 75.7939 53.9172Z" fill="black"/>
<path d="M59.0854 65.4585C55.468 65.4585 52.7118 62.5301 52.7118 59.0849C52.7118 55.4675 55.6402 52.7113 59.0854 52.7113C62.7029 52.7113 65.459 55.6397 65.459 59.0849C65.459 62.5301 62.5306 65.4585 59.0854 65.4585ZM59.0854 50.1274C54.0899 50.1274 50.1279 54.0894 50.1279 59.0849C50.1279 64.0805 54.0899 68.0424 59.0854 68.0424C64.0809 68.0424 68.0429 64.0805 68.0429 59.0849C68.0429 54.0894 64.0809 50.1274 59.0854 50.1274Z" fill="black"/>
<path d="M42.3758 7.75171H27.0447C26.3556 7.75171 25.8389 8.26849 25.8389 8.95753C25.8389 9.64656 26.3556 10.1633 27.0447 10.1633H42.3758C43.0648 10.1633 43.5816 9.64656 43.5816 8.95753C43.5816 8.26849 43.0648 7.75171 42.3758 7.75171Z" fill="black"/>
<path d="M42.3758 15.3311H27.0447C26.3556 15.3311 25.8389 15.8478 25.8389 16.5369C25.8389 17.2259 26.3556 17.7427 27.0447 17.7427H42.3758C43.0648 17.7427 43.5816 17.2259 43.5816 16.5369C43.5816 16.0201 43.0648 15.3311 42.3758 15.3311Z" fill="black"/>
<path d="M42.3758 25.6667H27.0447C26.3556 25.6667 25.8389 26.1835 25.8389 26.8726C25.8389 27.5616 26.3556 28.0784 27.0447 28.0784H42.3758C43.0648 28.0784 43.5816 27.5616 43.5816 26.8726C43.5816 26.1835 43.0648 25.6667 42.3758 25.6667Z" fill="black"/>
<path d="M42.3758 33.4185H27.0447C26.3556 33.4185 25.8389 33.9352 25.8389 34.6243C25.8389 35.3133 26.3556 35.8301 27.0447 35.8301H42.3758C43.0648 35.8301 43.5816 35.3133 43.5816 34.6243C43.5816 33.9352 43.0648 33.4185 42.3758 33.4185Z" fill="black"/>
<path d="M39.7923 43.5818H26.8728C26.1838 43.5818 25.667 44.0986 25.667 44.7876C25.667 45.4766 26.1838 45.9934 26.8728 45.9934H39.7923C40.4813 45.9934 40.9981 45.4766 40.9981 44.7876C40.9981 44.2708 40.4813 43.5818 39.7923 43.5818Z" fill="black"/>
<path d="M37.2084 53.9172C37.8974 53.9172 38.4142 53.4005 38.4142 52.7114C38.4142 52.0224 37.8974 51.5056 37.2084 51.5056H26.8728C26.1838 51.5056 25.667 52.0224 25.667 52.7114C25.667 53.4005 26.1838 53.9172 26.8728 53.9172H37.2084Z" fill="black"/>
<path d="M17.9153 17.9149H10.3358V10.3355H18.0875V11.0245L15.3314 13.6084L13.6088 11.8858C13.092 11.369 12.2307 11.369 11.7139 11.8858C11.1971 12.4026 11.1971 13.0916 11.7139 13.6084L14.2978 16.1923C14.8146 16.7091 15.6759 16.7091 16.1927 16.1923L17.9153 14.4697V17.9149ZM22.7385 8.09608C22.2218 7.5793 21.3605 7.5793 20.8437 8.09608L20.4992 8.61286C20.3269 8.09608 19.8101 7.75156 19.2933 7.75156H8.95777C8.26873 7.75156 7.75195 8.26834 7.75195 8.95738V19.2929C7.75195 19.982 8.26873 20.4988 8.95777 20.4988H19.2933C19.9824 20.4988 20.4992 19.982 20.4992 19.2929V12.058L22.7385 9.81868C23.2553 9.47416 23.2553 8.61286 22.7385 8.09608Z" fill="black"/>
<path d="M17.9147 36.0022H10.3353V28.2505H18.0869V28.9395L15.503 31.5234L13.7804 29.8008C13.2637 29.284 12.4024 29.284 11.8856 29.8008C11.3688 30.3176 11.3688 31.0066 11.8856 31.5234L14.4695 34.1073C14.9863 34.6241 15.8476 34.6241 16.3643 34.1073L18.0869 32.3847V36.0022H17.9147ZM22.7379 26.0111C22.2212 25.4943 21.3599 25.4943 20.8431 26.0111L20.3263 26.5279C20.154 26.0111 19.6373 25.6666 19.1205 25.6666H8.78492C8.09588 25.6666 7.5791 26.1834 7.5791 26.8724V37.208C7.5791 37.897 8.09588 38.4138 8.78492 38.4138H19.1205C19.8095 38.4138 20.3263 37.897 20.3263 37.208V29.9731L22.5657 27.7337C23.2547 27.3892 23.2547 26.5279 22.7379 26.0111Z" fill="black"/>
<path d="M17.9147 53.9172H10.3353V46.1655H18.0869V46.8546L15.503 49.4385L13.7804 47.7159C13.2637 47.1991 12.4024 47.1991 11.8856 47.7159C11.3688 48.2326 11.3688 48.9217 11.8856 49.4385L14.4695 52.0223C14.9863 52.5391 15.8476 52.5391 16.3643 52.0223L18.0869 50.2997V53.9172H17.9147ZM20.8431 44.0984L20.3263 44.6152C20.154 44.0984 19.6373 43.7539 19.1205 43.7539H8.78492C8.09588 43.7539 7.5791 44.2707 7.5791 44.9597V55.2953C7.5791 55.9843 8.09588 56.5011 8.78492 56.5011H19.1205C19.8095 56.5011 20.3263 55.9843 20.3263 55.2953V48.0604L22.5657 45.821C23.0825 45.3042 23.0825 44.4429 22.5657 43.9261C22.2212 43.5816 21.3599 43.5816 20.8431 44.0984Z" fill="black"/>
</svg>
