<svg width="71" height="69" viewBox="0 0 71 69" fill="none" xmlns="http://www.w3.org/2000/svg">
<g clip-path="url(#clip0_2612_8475)">
<path d="M44.6043 8.90777C47.7097 8.90777 50.3916 11.4528 50.3916 14.4221C50.3916 17.3914 47.8508 19.9365 44.6043 19.9365C41.499 19.9365 38.817 17.3914 38.817 14.4221C38.817 11.4528 41.499 8.90777 44.6043 8.90777ZM44.6043 22.3401C48.9801 22.3401 52.65 18.8053 52.65 14.5635C52.65 10.3217 49.1212 6.78687 44.6043 6.78687C40.2286 6.78687 36.5586 10.3217 36.5586 14.5635C36.5586 18.8053 40.2286 22.3401 44.6043 22.3401Z" fill="black"/>
<path d="M41.2167 62.3545H57.167V66.8791H41.2167V62.3545ZM4.5169 62.3545H15.9503V66.8791H4.5169V62.3545ZM2.25845 42.418C2.25845 40.4385 2.96421 38.7418 4.37575 37.3279L6.77535 34.9242V43.832C6.77535 44.3975 6.9165 44.9631 7.19881 45.5287L11.4334 53.8709L13.4095 52.8812L9.17495 44.5389C9.0338 44.2561 9.0338 44.1148 9.0338 43.832C9.0338 42.9836 9.73956 42.2766 10.7276 42.2766L16.9384 50.0533C17.6441 51.043 18.0676 52.1742 18.0676 53.4467C18.0676 54.0123 17.9264 54.5779 17.7853 55.1434L16.0915 60.0922H6.63419L2.54076 44.1148C2.3996 43.5492 2.25845 42.9836 2.25845 42.418ZM10.3042 13.4324H29.7833V15.5533H16.0915V45.1045L12.7038 41.0041C12.2803 40.4385 11.5746 40.1557 10.8688 40.1557C10.3042 40.1557 9.73956 40.2971 9.17495 40.5799V14.4221C9.17495 13.8566 9.59841 13.4324 10.3042 13.4324ZM32.6064 19.3709C32.8887 20.2193 32.8887 21.0676 32.3241 21.7746L31.9006 22.4816L33.3121 23.8955L29.7833 23.0471V17.8156H30.7714C31.6183 17.957 32.1829 18.5225 32.6064 19.3709ZM32.0418 13.0082C33.171 12.584 34.159 11.5943 34.7237 10.4631C35.2883 9.33197 35.2883 7.91803 34.7237 6.78689L36.6998 4.80738C37.829 5.23156 39.2406 5.23156 40.5109 4.80738C41.7813 4.3832 42.6282 3.39344 43.1928 2.2623H46.1571C46.7217 3.39344 47.5686 4.3832 48.839 4.80738C50.1093 5.23156 51.3797 5.23156 52.6501 4.80738L54.7674 6.78689C54.3439 7.91803 54.3439 9.19057 54.7674 10.4631C55.332 11.5943 56.1789 12.584 57.4493 13.0082V15.8361C56.3201 16.4016 55.332 17.25 54.7674 18.3811C54.2028 19.5123 54.2028 20.9262 54.7674 22.0574L52.6501 24.0369C51.5209 23.6127 50.1093 23.6127 48.839 24.0369C48.1332 24.3197 47.5686 24.7439 47.004 25.3094C46.4394 24.7439 45.5924 24.4611 44.6044 24.4611C43.6163 24.4611 42.9105 24.8852 42.3459 25.4508C41.9225 24.8852 41.2167 24.4611 40.5109 24.1783C39.2406 23.7541 37.9702 23.7541 36.6998 24.1783L34.5825 22.1988C35.006 21.0676 35.006 19.7951 34.5825 18.5225C34.0179 17.3914 33.171 16.4016 31.9006 15.9775L32.0418 13.0082ZM58.5785 17.8156H64.0835V44.5389H61.8251V41.1455C61.8251 39.3074 60.2724 37.7521 58.4374 37.7521C58.0139 37.7521 57.5905 37.8934 57.167 38.0348C56.7435 36.6209 55.4732 35.6311 53.9205 35.6311C53.0736 35.6311 52.2266 35.9139 51.662 36.4795C51.0974 35.9139 50.2505 35.6311 49.4036 35.6311C48.9801 35.6311 48.5567 35.7725 48.2744 35.7725V27.9959C48.4155 27.1475 48.9801 26.582 49.827 26.1578C50.674 25.875 51.5209 25.875 52.3678 26.2992L53.0736 26.7234L57.5905 22.3402L57.0258 21.6332C56.6024 20.9262 56.4612 20.0779 56.7435 19.2295C57.0258 18.5225 57.7316 17.957 58.5785 17.8156ZM68.6004 14.4221V47.791C68.6004 48.3566 68.0358 48.9221 67.4712 48.9221H61.6839V46.6598H66.3419V15.5533H59.4254V13.4324H67.4712C68.1769 13.4324 68.6004 13.8566 68.6004 14.4221ZM20.1849 55.9918C20.4672 55.1434 20.6084 54.4365 20.6084 53.5881C20.6084 52.8812 20.4672 52.0328 20.1849 51.3258H34.3002V52.3156C34.3002 55.9918 35.994 59.3853 38.8171 61.7889V66.8791H18.3499V61.5061L20.1849 55.9918ZM33.8767 46.8012C34.0179 47.5082 34.159 48.2152 34.3002 49.0635H19.0557C19.0557 48.9221 18.9145 48.9221 18.9145 48.7807L17.3618 46.8012H33.8767ZM25.1252 21.916V26.7234H20.6084V42.2766H32.4652L32.8887 43.125C33.0298 43.5492 33.171 43.9734 33.3121 44.3975H18.3499V17.8156H27.5249V22.4816L25.1252 21.916ZM22.8668 37.8934H25.1252V40.1557H22.8668V37.8934ZM22.8668 33.3689H25.1252V35.6311H22.8668V33.3689ZM25.1252 31.248H22.8668V28.9857H25.1252V31.248ZM34.3002 28.9857H29.7833V40.1557H27.5249V24.8852L34.4414 26.582V28.9857H34.3002ZM36.5586 28.9857V26.8648L37.1233 26.582C37.829 26.1578 38.8171 26.0164 39.664 26.4406C40.5109 26.7234 41.0756 27.4303 41.2167 28.2787V44.6803C41.2167 44.8217 41.0756 44.8217 41.0756 44.6803L40.7932 42.7008C40.5109 41.4283 39.9463 40.2971 38.9583 39.5902V29.1271H36.5586V28.9857ZM32.1829 40.1557L32.0418 35.6311H36.5586V38.0348C35.994 37.8934 35.5706 37.7521 35.006 37.7521C33.5944 37.8934 32.4652 38.8832 32.1829 40.1557ZM36.5586 33.3689H32.0418V31.1066H36.5586V33.3689ZM59.5666 51.8914C59.5666 54.7193 58.8608 57.5471 57.7316 60.2336H40.5109C38.1113 58.3955 36.6998 55.4262 36.6998 52.457V51.1844C36.6998 48.2152 36.1352 45.2459 35.006 42.5594L34.5825 41.4283C34.5825 41.2869 34.4414 41.1455 34.4414 41.0041C34.4414 40.5799 34.7237 40.2971 35.1471 40.2971C36.841 40.2971 38.2525 41.4283 38.5348 43.125L38.8171 45.1045C38.9583 46.2357 39.9463 47.084 41.2167 47.084C42.4871 47.084 43.6163 46.0943 43.6163 44.8217V27.8545C43.6163 27.2889 44.1809 26.7234 44.7455 26.7234C45.3101 26.7234 45.8748 27.2889 45.8748 27.8545V44.5389H47.9921V39.0246C47.9921 38.459 48.5567 37.8934 49.1213 37.8934C49.6859 37.8934 50.2505 38.459 50.2505 39.0246V44.5389H52.5089V39.0246C52.5089 38.459 53.0736 37.8934 53.6382 37.8934C54.2028 37.8934 54.7674 38.459 54.7674 39.0246V44.5389H57.0258V41.1455C57.0258 40.5799 57.5905 40.0143 58.1551 40.0143C58.7197 40.0143 59.2843 40.5799 59.2843 41.1455V51.8914H59.5666ZM61.8251 51.8914V51.3258H67.6123C69.4473 51.3258 71 49.7705 71 47.9324V14.4221C71 12.584 69.4473 11.0287 67.6123 11.0287H58.5785C57.7316 10.8873 57.0258 10.3217 56.7435 9.47336C56.4612 8.625 56.4612 7.77664 57.0258 7.06967L57.5905 6.36271L53.0736 1.97951L52.3678 2.40369C51.662 2.82787 50.674 2.96926 49.827 2.54508C48.9801 2.2623 48.4155 1.55533 48.2744 0.706967L47.8509 0H41.499L41.3579 0.848361C41.2167 1.69672 40.6521 2.40369 39.8052 2.68648C38.9583 2.96926 38.1113 2.96926 37.2644 2.54508L36.5586 2.1209L32.0418 6.5041L32.4652 7.21107C32.8887 7.91803 33.0298 8.76639 32.7475 9.61475C32.4652 10.3217 31.7594 10.8873 30.9125 11.1701H10.3042C8.46919 11.1701 6.9165 12.7254 6.9165 14.5635V31.9549L2.82306 35.7725C0.988072 37.6107 0 39.873 0 42.418C0 43.125 0.141153 43.9734 0.282306 44.6803L4.23459 60.2336C3.10537 60.375 2.25845 61.3648 2.25845 62.4959V67.0205H0V69.2828H71V67.0205H59.5666V61.6475C60.9781 58.5369 61.8251 55.1434 61.8251 51.8914Z" fill="black"/>
<path d="M13.692 26.7234H11.4336V35.6312H13.692V26.7234Z" fill="black"/>
<path d="M61.8247 31.248H54.9082V33.5103H61.8247V31.248Z" fill="black"/>
<path d="M61.8247 26.7234H54.9082V28.9857H61.8247V26.7234Z" fill="black"/>
</g>
<defs>
<clipPath id="clip0_2612_8475">
<rect width="71" height="69" fill="white"/>
</clipPath>
</defs>
</svg>
