<svg width="254" height="31" viewBox="0 0 254 31" fill="none" xmlns="http://www.w3.org/2000/svg">
<path d="M247.94 0.999878V10.0997L230.01 10.0997L230.01 0.999878L224 0.999878L224 25.9999L230.01 25.9999L230.01 15.2367L247.94 15.2367L247.94 25.9999L254 25.9999L254 0.999878L247.94 0.999878Z" fill="black"/>
<path d="M194.723 7.59398C196.585 5.94084 199.035 5.11428 202.024 5.11428C206.141 5.11428 209.669 6.71575 212.609 9.9187L218 7.85228C214.129 2.63457 208.983 -0.00012207 202.515 -0.00012207C197.565 -0.00012207 193.449 1.44638 190.214 4.33937C187.421 6.87074 186 10.0737 186 13.9482C186 16.1696 186.49 18.236 187.421 20.0958C188.401 22.0073 189.675 23.4538 191.292 24.5903C194.674 26.8633 198.496 27.9999 202.711 27.9999C205.896 27.9999 208.689 27.4316 211.041 26.2951C213.443 25.1586 215.599 23.3504 217.657 20.8707L212.659 17.9261C209.865 21.2324 206.484 22.8855 202.466 22.8855C199.28 22.8855 196.683 22.0589 194.772 20.4058C192.861 18.7526 191.881 16.5829 191.881 13.9482C191.881 11.4169 192.861 9.24712 194.723 7.59398Z" fill="black"/>
<path d="M158.865 15.7172L172.874 15.7172V10.8927L158.865 10.8927L158.865 5.82445L179.079 5.82445V0.999878L153 0.999878L153 25.9999L180 25.9999L180 21.1753L158.865 21.1753V15.7172Z" fill="black"/>
<path d="M116 5.82445L127.191 5.82445L127.191 25.9999L132.857 25.9999L132.857 5.82445L144 5.82445V0.999878L116 0.999878L116 5.82445Z" fill="black"/>
<path d="M79.2585 0.999878L66 25.9999L72.127 25.9999L74.9897 20.6393L91.0103 20.6393L93.873 25.9999L100 25.9999L86.7917 0.999878L79.2585 0.999878ZM77.5007 15.8147L82.9247 5.53205L88.3988 15.8147L77.5007 15.8147Z" fill="black"/>
<path d="M60.2307 0.999878L49.5 19.5831L38.7693 0.999878L32 0.999878L49.5 30.9999L67 0.999878L60.2307 0.999878Z" fill="black"/>
<path d="M13.2781 0.999878L0 25.9999L6.13609 25.9999L9.00296 20.6393L24.997 20.6393L27.8639 25.9999L34 25.9999L20.7722 0.999878L13.2781 0.999878ZM11.4675 15.8147L16.8994 5.53205L22.3817 15.8147L11.4675 15.8147Z" fill="black"/>
</svg>
