<svg width="35" height="31" viewBox="0 0 35 31" fill="none" xmlns="http://www.w3.org/2000/svg">
<path d="M0.606913 14.8644L8.52433 17.9264L11.5889 28.1387C11.7849 28.7928 12.5568 29.0345 13.0691 28.6005L17.4824 24.8724C17.945 24.4819 18.604 24.4624 19.0874 24.826L27.0474 30.8144C27.5955 31.2272 28.3719 30.916 28.5094 30.2298L34.3405 1.1654C34.4906 0.415801 33.7798 -0.209539 33.0909 0.0665175L0.597636 13.0553C-0.204231 13.3757 -0.197244 14.5521 0.606913 14.8644ZM11.095 16.2964L26.5686 6.42116C26.8467 6.2442 27.1328 6.63384 26.894 6.86337L14.1238 19.1637C13.6749 19.5966 13.3854 20.176 13.3033 20.8049L12.8683 24.1454C12.8107 24.5914 12.2061 24.6357 12.0873 24.204L10.4143 18.1126C10.2227 17.4179 10.5019 16.6757 11.095 16.2964Z" fill="black"/>
</svg>
