<svg width="71" height="69" viewBox="0 0 71 69" fill="none" xmlns="http://www.w3.org/2000/svg">
<g clip-path="url(#clip0)">
<path d="M63.6809 66.7783H61.4543C62.8459 65.8065 63.6809 64.1405 63.6809 62.3357C63.6809 60.5309 62.7068 58.8649 61.4543 57.893H63.6809C66.1859 57.893 68.1342 59.8367 68.1342 62.3357C68.1342 64.6959 66.1859 66.7783 63.6809 66.7783ZM2.72664 62.3357C2.72664 59.8367 4.81412 57.893 7.17992 57.893H9.40656C8.01491 58.8649 7.17992 60.5309 7.17992 62.3357C7.17992 64.1405 8.15408 65.8065 9.40656 66.7783H7.31909C4.81412 66.7783 2.72664 64.6959 2.72664 62.3357ZM9.54573 37.7623H29.8638V45.5369V48.8689V54.4222C29.8638 54.8387 30.003 55.1164 30.003 55.5329H27.3588C27.498 55.1164 27.6372 54.8387 27.6372 54.4222V45.5369C27.6372 43.7321 26.1064 42.2049 24.2972 42.2049H15.2515C13.4423 42.2049 11.9115 43.7321 11.9115 45.5369V54.4222C11.9115 54.8387 12.0507 55.1164 12.0507 55.5329H9.54573V37.7623ZM2.72664 37.7623V33.3196H36.5437V37.7623H32.0905V35.5409H7.31909V37.7623H2.72664ZM10.659 25.2673V31.0983H8.4324C8.4324 28.8769 9.2674 26.7944 10.659 25.2673ZM12.8857 28.8769H15.1123V31.0983H12.8857V28.8769ZM15.1123 26.6556H12.8857V23.3236C13.5815 22.9071 14.2773 22.6295 15.1123 22.3518V26.6556ZM19.7048 19.9916C20.2614 19.9916 20.8181 19.8528 21.3748 19.714L21.9314 21.2411V31.0983H17.4781V21.2411L18.0348 19.714C18.4523 19.8528 19.0089 19.9916 19.7048 19.9916ZM14.1382 9.99565C13.7207 9.99565 13.4423 9.99565 13.164 10.1345C13.0249 9.57915 12.8857 9.02382 12.8857 8.46849C12.8857 4.99766 15.669 2.221 19.1481 2.221H20.1223C23.6014 2.221 26.3847 4.99766 26.3847 8.46849C26.3847 9.02382 26.2455 9.57915 26.1064 10.1345C25.828 9.99565 25.5497 9.99565 25.2714 9.99565H24.1581H23.0447C20.8181 9.99565 20.8181 6.80249 20.8181 6.66366H19.7048H18.5915C18.5915 8.60732 19.5656 12.217 23.0447 12.217V14.4383C23.0447 16.2431 21.5139 17.7703 19.7048 17.7703C17.8956 17.7703 16.3648 16.2431 16.3648 14.4383V10.9675C16.3648 10.1345 16.7823 9.30148 17.6173 9.02382L18.0348 8.88499L17.0606 6.94132H16.504C15.2515 7.63549 14.4165 8.74615 14.1382 9.99565ZM12.8857 13.3276C12.8857 12.7723 13.4423 12.217 13.999 12.217V14.4383C13.4423 14.4383 12.8857 14.0218 12.8857 13.3276ZM25.2714 14.4383V12.217C25.828 12.217 26.3847 12.7723 26.3847 13.3276C26.3847 14.0218 25.9672 14.4383 25.2714 14.4383ZM24.1581 28.8769H26.3847V31.0983H24.1581V28.8769ZM26.3847 26.6556H24.1581V22.4906C24.993 22.7683 25.6889 23.046 26.3847 23.4625V26.6556ZM30.9771 31.0983H28.7505V25.1284C30.1421 26.7944 30.9771 28.8769 30.9771 31.0983ZM33.2038 44.4262H34.3171V48.8689H41.1362V44.4262H42.2495C42.8062 44.4262 43.3628 44.9816 43.3628 45.5369V54.4222C43.3628 54.9775 42.8062 55.5329 42.2495 55.5329H33.2038C32.6471 55.5329 32.0905 54.9775 32.0905 54.4222V48.8689V45.5369C32.0905 44.9816 32.6471 44.4262 33.2038 44.4262ZM36.5437 44.4262H38.7704V46.6476H36.5437V44.4262ZM47.8161 62.3357C47.8161 64.1405 46.2853 65.6677 44.4761 65.6677C42.667 65.6677 41.1362 64.1405 41.1362 62.3357C41.1362 60.5309 42.667 59.0037 44.4761 59.0037C46.4245 59.0037 47.8161 60.392 47.8161 62.3357ZM34.3171 62.3357C34.3171 60.5309 33.3429 58.8649 32.0905 57.893H33.2038H41.1362C39.7445 58.8649 38.9095 60.5309 38.9095 62.3357C38.9095 64.1405 39.8837 65.8065 41.1362 66.7783H32.0905C33.4821 65.6677 34.3171 64.1405 34.3171 62.3357ZM18.5915 62.3357C18.5915 60.5309 17.6173 58.8649 16.3648 57.893H24.1581H25.2714C23.8797 58.8649 23.0447 60.5309 23.0447 62.3357C23.0447 64.1405 24.0189 65.8065 25.2714 66.7783H16.2256C17.6173 65.6677 18.5915 64.1405 18.5915 62.3357ZM12.8857 59.0037C14.6948 59.0037 16.2256 60.5309 16.2256 62.3357C16.2256 64.1405 14.6948 65.6677 12.8857 65.6677C11.0765 65.6677 9.54573 64.1405 9.54573 62.3357C9.54573 60.392 11.0765 59.0037 12.8857 59.0037ZM32.0905 62.3357C32.0905 64.1405 30.5596 65.6677 28.7505 65.6677C26.9414 65.6677 25.4105 64.1405 25.4105 62.3357C25.4105 60.5309 26.9414 59.0037 28.7505 59.0037C30.5596 59.0037 32.0905 60.392 32.0905 62.3357ZM18.5915 44.4262H20.8181V46.6476H18.5915V44.4262ZM13.999 54.561V45.6757C13.999 45.1204 14.5557 44.5651 15.1123 44.5651H16.2256V49.0077H23.0447V44.4262H24.1581C24.7147 44.4262 25.2714 44.9816 25.2714 45.5369V54.4222C25.2714 54.9775 24.7147 55.5329 24.1581 55.5329H15.1123C14.5557 55.6717 13.999 55.1164 13.999 54.561ZM52.4085 62.3357C52.4085 64.1405 53.3827 65.8065 54.6352 66.7783H47.8161C49.2078 65.8065 50.0427 64.1405 50.0427 62.3357C50.0427 60.5309 49.0686 58.8649 47.8161 57.893H54.6352C53.2435 58.8649 52.4085 60.392 52.4085 62.3357ZM57.9751 65.6677C56.166 65.6677 54.6352 64.1405 54.6352 62.3357C54.6352 60.5309 56.166 59.0037 57.9751 59.0037C59.7843 59.0037 61.3151 60.5309 61.3151 62.3357C61.4543 64.1405 59.9235 65.6677 57.9751 65.6677ZM63.6809 55.6717H45.4503C45.5895 55.2552 45.5895 54.9775 45.5895 54.561V45.6757C45.5895 43.8709 44.0586 42.3437 42.2495 42.3437H33.2038C32.7863 42.3437 32.3688 42.4826 32.0905 42.4826V39.9836H38.9095V31.0983H33.2038C33.2038 25.6838 29.3072 21.1023 23.8797 20.1305L23.3231 18.6033C23.8797 18.048 24.4364 17.4926 24.7147 16.6596H25.1322C26.9414 16.6596 28.4722 15.1325 28.4722 13.3276C28.4722 12.6335 28.1938 11.9393 27.9155 11.384C28.333 10.4121 28.4722 9.44032 28.4722 8.32965C28.4722 3.74816 24.5755 -0.13916 19.9831 -0.13916H19.0089C14.4165 -0.00032714 10.659 3.74816 10.659 8.46849C10.659 9.57915 10.9374 10.551 11.2157 11.5228C10.9374 11.9393 10.659 12.6335 10.659 13.3276C10.659 15.1325 12.1899 16.6596 13.999 16.6596H14.4165C14.6948 17.3538 15.2515 18.048 15.8082 18.6033L15.2515 20.1305C9.96322 21.1023 5.92744 25.6838 5.92744 31.0983H0.5V39.9836H7.31909V55.5329C3.56163 55.5329 0.5 58.5872 0.5 62.1969C0.5 65.8065 3.56163 68.8608 7.31909 68.8608H63.6809C67.4384 68.8608 70.5 65.8065 70.5 62.1969C70.5 58.5872 67.4384 55.6717 63.6809 55.6717Z" fill="black"/>
<path d="M12.8858 61.2253C13.4424 61.2253 13.9991 61.7807 13.9991 62.336C13.9991 62.8913 13.4424 63.4467 12.8858 63.4467C12.3291 63.4467 11.7725 62.8913 11.7725 62.336C11.7725 61.6418 12.3291 61.2253 12.8858 61.2253Z" fill="black"/>
<path d="M28.7505 61.2253C29.3072 61.2253 29.8638 61.7807 29.8638 62.336C29.8638 62.8913 29.3072 63.4467 28.7505 63.4467C28.1939 63.4467 27.6372 62.8913 27.6372 62.336C27.6372 61.6418 28.0547 61.2253 28.7505 61.2253Z" fill="black"/>
<path d="M44.4761 61.2253C45.0328 61.2253 45.5894 61.7807 45.5894 62.336C45.5894 62.8913 45.0328 63.4467 44.4761 63.4467C43.9195 63.4467 43.3628 62.8913 43.3628 62.336C43.3628 61.6418 43.9195 61.2253 44.4761 61.2253Z" fill="black"/>
<path d="M57.9751 61.2253C58.5318 61.2253 59.0885 61.7807 59.0885 62.336C59.0885 62.8913 58.5318 63.4467 57.9751 63.4467C57.4185 63.4467 56.8618 62.8913 56.8618 62.336C56.8618 61.6418 57.4185 61.2253 57.9751 61.2253Z" fill="black"/>
<path d="M63.6811 41.0947V49.98C63.6811 50.5353 63.1245 51.0907 62.5678 51.0907H53.5221C52.9654 51.0907 52.4088 50.5353 52.4088 49.98V41.0947C52.4088 40.5394 52.9654 39.984 53.5221 39.984H54.6354V44.4267H61.4545V39.984H62.5678C63.1245 39.984 63.6811 40.5394 63.6811 41.0947ZM56.862 39.984H59.0887V42.2054H56.862V39.984ZM53.5221 37.7627C51.7129 37.7627 50.1821 39.2899 50.1821 41.0947V49.98C50.1821 51.7848 51.7129 53.312 53.5221 53.312H62.5678C64.377 53.312 65.9078 51.7848 65.9078 49.98V41.0947C65.9078 39.2899 64.377 37.7627 62.5678 37.7627H53.5221Z" fill="black"/>
<path d="M60.3409 24.4347C60.3409 25.6842 59.3667 26.656 58.1142 26.656C56.8617 26.656 55.8876 25.6842 55.8876 24.4347C55.8876 23.1852 56.8617 22.2134 58.1142 22.2134C59.3667 22.2134 60.3409 23.1852 60.3409 24.4347ZM56.8617 20.1309C54.9134 20.6862 53.5218 22.3522 53.5218 24.4347C53.5218 24.5735 53.5218 24.8512 53.5218 24.99C52.1301 26.2395 51.156 28.0443 51.156 29.988V33.7365L53.8001 36.2355L55.3309 34.7083L53.3826 32.7647V29.8492C53.3826 28.8773 53.8001 27.9055 54.3568 27.0725C55.1918 28.0443 56.4442 28.7385 57.8359 28.7385C59.2275 28.7385 60.48 28.0443 61.315 27.0725C62.0108 27.9055 62.2892 28.8773 62.2892 29.8492V32.7647L60.3409 34.7083L61.8717 36.2355L64.5158 33.7365V29.988C64.5158 28.0443 63.6808 26.2395 62.15 24.99C62.15 24.8512 62.15 24.5735 62.15 24.4347C62.15 22.3522 60.7584 20.6862 58.8101 20.1309V6.66406H30.9771V8.88539H56.8617V20.1309Z" fill="black"/>
</g>
<defs>
<clipPath id="clip0">
<rect width="70" height="69" fill="white" transform="translate(0.5)"/>
</clipPath>
</defs>
</svg>
