<svg width="95" height="75" viewBox="0 0 95 75" fill="none" xmlns="http://www.w3.org/2000/svg">
<path d="M86.7381 24.0216H83.8803V7.4514C83.8803 6.01415 83.311 4.63576 82.2975 3.61947C81.2841 2.60317 79.9096 2.03223 78.4765 2.03223H14.5138C13.0806 2.03223 11.7062 2.60317 10.6927 3.61947C9.67932 4.63576 9.10999 6.01415 9.10999 7.4514V38.0732H7.378C6.11159 38.0778 4.89834 38.5843 4.00285 39.4824C3.10736 40.3804 2.60225 41.5971 2.59769 42.8671V68.1392C2.59541 68.7702 2.71737 69.3955 2.95658 69.9791C3.1958 70.5627 3.54755 71.0932 3.99167 71.5402C4.43579 71.9872 4.96354 72.3419 5.54464 72.5839C6.12575 72.8259 6.74878 72.9505 7.378 72.9505H21.9094C23.1773 72.9505 24.3932 72.4454 25.2896 71.5464C26.1861 70.6473 26.6898 69.428 26.6898 68.1566V64.6828H40.8748L39.697 67.7397H34.5011C34.0417 67.7397 33.6012 67.9227 33.2764 68.2485C32.9515 68.5742 32.7691 69.016 32.7691 69.4766V71.2136C32.7691 71.6742 32.9515 72.116 33.2764 72.4417C33.6012 72.7675 34.0417 72.9505 34.5011 72.9505H59.0954C59.3886 72.9413 59.6747 72.8577 59.9268 72.7073L59.7882 72.5683C60.3905 72.8007 61.0307 72.9185 61.6761 72.9157H86.7381C88.2356 72.9157 89.6717 72.3192 90.7306 71.2573C91.7895 70.1954 92.3844 68.7551 92.3844 67.2534V29.7013C92.3844 28.1979 91.7901 26.7559 90.7317 25.6912C89.6733 24.6266 88.2372 24.0262 86.7381 24.0216ZM24.7846 68.1392C24.7846 68.9055 24.4822 69.6407 23.9435 70.1842C23.4048 70.7276 22.6736 71.0353 21.9094 71.0399H7.378C6.61388 71.0353 5.88262 70.7276 5.34393 70.1842C4.80523 69.6407 4.50287 68.9055 4.50288 68.1392V42.8671C4.5006 42.4862 4.57316 42.1085 4.71642 41.7557C4.85967 41.4029 5.07082 41.0819 5.3378 40.8109C5.60478 40.54 5.92236 40.3244 6.27242 40.1765C6.62248 40.0286 6.99816 39.9514 7.378 39.9491H9.59495L11.1364 44.2914H18.0644L19.6232 39.9491H21.8402C22.6013 39.9536 23.33 40.2589 23.8682 40.7986C24.4064 41.3383 24.7107 42.0691 24.7153 42.8324L24.7846 68.1392ZM11.6214 39.9491H17.6661L16.8001 42.3808H12.4874L11.6214 39.9491ZM21.9094 38.0385H11.0152V7.4514C11.0152 6.53008 11.3801 5.6465 12.0298 4.99503C12.6794 4.34356 13.5605 3.97757 14.4792 3.97757H78.4765C79.3952 3.97757 80.2762 4.34356 80.9259 4.99503C81.5755 5.6465 81.9404 6.53008 81.9404 7.4514V24.0216H61.6068C60.1047 24.0216 58.6641 24.62 57.602 25.6851C56.5399 26.7503 55.9432 28.1949 55.9432 29.7013V56.7624H26.6898V42.8671C26.6852 41.5971 26.1801 40.3804 25.2846 39.4824C24.3891 38.5843 23.1759 38.0778 21.9094 38.0732V38.0385ZM26.6898 58.7078H55.9432V62.8416H26.6898V58.7078ZM51.0763 67.566H41.8101L42.9359 64.7522H49.708L51.0763 67.566ZM51.821 64.7349H55.9432V67.2708C55.9432 67.4271 55.9432 67.566 55.9432 67.7224H53.2759L51.821 64.7349ZM34.3798 71.2136V69.4766H56.3762C56.6611 70.1221 57.0601 70.7105 57.5539 71.2136H34.3798ZM90.4965 67.3229C90.492 68.3211 90.0945 69.2771 89.3907 69.983C88.6868 70.6888 87.7335 71.0874 86.7381 71.092H61.6068C60.61 71.092 59.654 70.6949 58.9492 69.988C58.2444 69.2812 57.8484 68.3225 57.8484 67.3229V29.7013C57.8484 28.7017 58.2444 27.743 58.9492 27.0361C59.654 26.3293 60.61 25.9322 61.6068 25.9322H86.7381C87.7349 25.9322 88.6908 26.3293 89.3957 27.0361C90.1005 27.743 90.4965 28.7017 90.4965 29.7013V67.3229Z" fill="black"/>
<path d="M85.6988 27.947H62.6286C61.8936 27.947 61.1888 28.2398 60.6691 28.761C60.1494 29.2822 59.8574 29.989 59.8574 30.7261V61.2437C59.8574 61.6086 59.9291 61.97 60.0684 62.3072C60.2076 62.6444 60.4118 62.9507 60.6691 63.2088C60.9264 63.4668 61.2319 63.6715 61.5681 63.8112C61.9043 63.9509 62.2647 64.0227 62.6286 64.0227H85.6988C86.4354 64.0228 87.142 63.7305 87.6645 63.2098C88.1869 62.6892 88.4827 61.9823 88.4873 61.2437V30.7261C88.4827 29.9874 88.1869 29.2806 87.6645 28.7599C87.142 28.2392 86.4354 27.947 85.6988 27.947ZM86.5994 61.2437C86.5949 61.4756 86.4998 61.6965 86.3347 61.8589C86.1695 62.0212 85.9474 62.1122 85.7161 62.1121H62.6286C62.3989 62.1121 62.1787 62.0206 62.0163 61.8578C61.8539 61.6949 61.7626 61.474 61.7626 61.2437V30.7261C61.7626 30.4958 61.8539 30.2749 62.0163 30.112C62.1787 29.9491 62.3989 29.8576 62.6286 29.8576H85.6988C85.9301 29.8576 86.1522 29.9485 86.3174 30.1109C86.4825 30.2733 86.5776 30.4942 86.5821 30.7261L86.5994 61.2437Z" fill="#221F1F"/>
<path d="M74.1636 65.4644C73.8211 65.4644 73.4862 65.5662 73.2014 65.7571C72.9166 65.9479 72.6946 66.2192 72.5635 66.5366C72.4324 66.854 72.3981 67.2032 72.4649 67.5401C72.5317 67.8771 72.6967 68.1865 72.9389 68.4295C73.1812 68.6724 73.4898 68.8378 73.8257 68.9048C74.1617 68.9718 74.51 68.9374 74.8264 68.806C75.1429 68.6745 75.4134 68.4519 75.6037 68.1663C75.7941 67.8806 75.8956 67.5448 75.8956 67.2013C75.8956 66.7406 75.7132 66.2988 75.3883 65.9731C75.0635 65.6474 74.623 65.4644 74.1636 65.4644Z" fill="#221F1F"/>
<path d="M13.1798 67.0103H7.98385C7.7312 67.0103 7.48891 67.1109 7.31026 67.2901C7.13161 67.4692 7.03125 67.7122 7.03125 67.9656C7.03125 68.2189 7.13161 68.4619 7.31026 68.6411C7.48891 68.8202 7.7312 68.9209 7.98385 68.9209H13.1798C13.4325 68.9209 13.6748 68.8202 13.8534 68.6411C14.0321 68.4619 14.1324 68.2189 14.1324 67.9656C14.1324 67.7122 14.0321 67.4692 13.8534 67.2901C13.6748 67.1109 13.4325 67.0103 13.1798 67.0103Z" fill="#221F1F"/>
<path d="M18.2545 67.0102H16.3667C16.114 67.0102 15.8717 67.1108 15.6931 67.29C15.5144 67.4691 15.4141 67.7121 15.4141 67.9655C15.4141 68.2188 15.5144 68.4618 15.6931 68.641C15.8717 68.8201 16.114 68.9208 16.3667 68.9208H18.2545C18.5072 68.9208 18.7495 68.8201 18.9281 68.641C19.1068 68.4618 19.2071 68.2188 19.2071 67.9655C19.2095 67.8394 19.1865 67.7141 19.1394 67.5971C19.0924 67.4802 19.0223 67.3739 18.9334 67.2847C18.8444 67.1955 18.7385 67.1253 18.6218 67.0781C18.5052 67.0309 18.3803 67.0078 18.2545 67.0102Z" fill="#221F1F"/>
</svg>
