<svg width="96" height="75" viewBox="0 0 96 75" fill="none" xmlns="http://www.w3.org/2000/svg">
<path d="M83.888 11.7763H83.5204L79.6874 4.51597C79.4524 4.07241 79.1002 3.70067 78.6686 3.44059C78.2369 3.18051 77.7421 3.04189 77.2371 3.03959H31.7312C31.2773 3.03715 30.83 3.14705 30.4296 3.35934C30.0293 3.57163 29.6886 3.87961 29.4384 4.25543L24.2402 11.7763H23.7852V18.4634H26.638V40.8001C27.2703 40.6599 27.9154 40.5843 28.5633 40.5743V18.4634H79.1274V52.2638C79.1274 53.1762 78.9463 54.0796 78.5944 54.9225C78.2426 55.7655 77.7269 56.5314 77.0768 57.1765C76.4267 57.8217 75.655 58.3334 74.8056 58.6826C73.9562 59.0317 73.0458 59.2114 72.1264 59.2114H70.0962C70.216 59.8413 70.2746 60.4811 70.2712 61.122H72.1615C74.5151 61.1175 76.7713 60.1888 78.4372 58.5388C80.1031 56.8888 81.0434 54.6516 81.0526 52.3159V18.4634H83.888V11.7763ZM30.9611 5.31495C31.0397 5.20287 31.1444 5.11121 31.2662 5.04773C31.3881 4.98424 31.5236 4.95079 31.6612 4.9502H77.1671C77.3198 4.95035 77.4694 4.99268 77.5993 5.07243C77.7291 5.15219 77.834 5.26623 77.9022 5.4018L81.2626 11.7763H26.568L30.9611 5.31495ZM81.9627 16.5528H25.7104V13.6869H81.9627V16.5528Z" fill="#221F1F"/>
<path d="M66.8235 28.5548H53.9768L54.0993 28.4159V23.0662H34.0417V39.4974H30.4012V45.4029C30.1394 45.3274 29.8687 45.2865 29.5961 45.2813H19.7598C19.0738 45.2821 18.4126 45.5359 17.9046 45.9934L12.9689 50.5442C12.6979 50.7991 12.4821 51.1061 12.3347 51.4466C12.1872 51.787 12.1112 52.1537 12.1113 52.5242V67.7396H16.7494C16.9695 68.9067 17.5939 69.9606 18.5144 70.7191C19.4349 71.4775 20.5937 71.8926 21.7901 71.8926C22.9865 71.8926 24.1453 71.4775 25.0658 70.7191C25.9863 69.9606 26.6107 68.9067 26.8307 67.7396H39.4149C39.635 68.9067 40.2593 69.9606 41.1798 70.7191C42.1004 71.4775 43.2591 71.8926 44.4555 71.8926C45.652 71.8926 46.8107 71.4775 47.7312 70.7191C48.6518 69.9606 49.2761 68.9067 49.4962 67.7396H51.7015C51.9118 68.9169 52.5331 69.9831 53.4564 70.7512C54.3797 71.5193 55.5461 71.9403 56.7509 71.9403C57.9557 71.9403 59.122 71.5193 60.0453 70.7512C60.9686 69.9831 61.59 68.9169 61.8003 67.7396C62.9813 67.55 64.0559 66.9496 64.8319 66.0459C65.6078 65.1422 66.0346 63.9941 66.0359 62.8068V39.4974H51.3689V30.4654H52.174V30.7086L52.4191 30.4654H55.2895V35.0509H66.8235V30.4654H70.744V49.6931H66.981C66.981 49.8841 66.981 50.0578 66.8935 50.2489C66.9197 50.7001 66.9197 51.1525 66.8935 51.6037H72.6517V28.5548H66.8235ZM21.7901 70.0323C21.1517 70.0358 20.5266 69.8508 19.9944 69.501C19.4621 69.1511 19.0466 68.6522 18.8007 68.0675C18.5548 67.4828 18.4895 66.8388 18.6132 66.2172C18.7369 65.5957 19.044 65.0246 19.4955 64.5766C19.9469 64.1286 20.5223 63.8239 21.1486 63.7011C21.775 63.5784 22.4239 63.6431 23.0131 63.8871C23.6023 64.1312 24.105 64.5435 24.4576 65.0717C24.8101 65.5999 24.9965 66.2202 24.993 66.8538C24.9884 67.6954 24.6495 68.5012 24.0498 69.0963C23.4501 69.6914 22.6381 70.0278 21.7901 70.0323ZM30.4012 62.5289V66.0027H26.9008C26.6807 64.8356 26.0563 63.7817 25.1358 63.0233C24.2153 62.2648 23.0565 61.8497 21.8601 61.8497C20.6637 61.8497 19.5049 62.2648 18.5844 63.0233C17.6639 63.7817 17.0395 64.8356 16.8194 66.0027H14.0016V52.6285C14.0013 52.5189 14.0228 52.4103 14.0649 52.309C14.1069 52.2076 14.1687 52.1155 14.2466 52.0379L19.2523 47.4003C19.3242 47.3316 19.4093 47.2778 19.5024 47.242C19.5956 47.2062 19.695 47.1892 19.7948 47.1919H29.6311C29.8416 47.1919 30.0438 47.2737 30.1943 47.4198C30.3448 47.5659 30.4316 47.7646 30.4362 47.9735L30.4012 62.5289ZM40.5875 25.0636H47.5884V27.4953H40.5875V25.0636ZM35.9669 25.0636H38.6623V29.4059H49.4437V36.1104H38.0847V39.5842H35.9669V25.0636ZM39.4674 65.9853H32.3265V62.5289H42.0052C41.3555 62.8738 40.7881 63.3531 40.3412 63.9344C39.8943 64.5157 39.5784 65.1855 39.4149 65.8985L39.4674 65.9853ZM44.508 70.1192C43.8696 70.1226 43.2446 69.9377 42.7123 69.5878C42.1801 69.238 41.7646 68.739 41.5187 68.1543C41.2728 67.5697 41.2075 66.9256 41.3312 66.3041C41.4549 65.6825 41.762 65.1115 42.2134 64.6635C42.6648 64.2155 43.2403 63.9107 43.8666 63.788C44.4929 63.6652 45.1419 63.73 45.7311 63.974C46.3202 64.218 46.823 64.6304 47.1755 65.1586C47.5281 65.6868 47.7144 66.3071 47.711 66.9406C47.6836 67.7761 47.3274 68.5677 46.7188 69.1456C46.1103 69.7235 45.2978 70.0419 44.4555 70.0323L44.508 70.1192ZM51.754 65.9853H49.4962C49.3499 65.2637 49.0512 64.5811 48.6199 63.9823C48.1885 63.3835 47.6341 62.8823 46.9934 62.5115H54.2568C53.6159 62.8673 53.0573 63.3526 52.6171 63.936C52.177 64.5194 51.8651 65.188 51.7015 65.8985L51.754 65.9853ZM56.7946 70.1192C56.157 70.1192 55.5336 69.9313 55.0037 69.5794C54.4737 69.2274 54.061 68.7272 53.8177 68.1423C53.5745 67.5573 53.5118 66.9138 53.6374 66.2934C53.7631 65.6729 54.0716 65.1035 54.5237 64.6573C54.9759 64.211 55.5513 63.908 56.1772 63.7867C56.803 63.6653 57.4511 63.7311 58.0392 63.9756C58.6274 64.2202 59.1291 64.6325 59.4809 65.1604C59.8326 65.6882 60.0185 66.3078 60.0151 66.9406C59.9921 67.7807 59.6349 68.5775 59.0216 69.1569C58.4083 69.7363 57.5887 70.051 56.7421 70.0323L56.7946 70.1192ZM64.1631 62.8589C64.1621 63.5466 63.9314 64.2147 63.507 64.7584C63.0826 65.3021 62.4886 65.6908 61.8178 65.8638C61.6496 65.1642 61.3373 64.5067 60.9005 63.9328C60.4638 63.3588 59.912 62.8808 59.28 62.5289H64.1106L64.1631 62.8589ZM64.1631 60.6183H32.3265V41.5122H64.1106L64.1631 60.6183ZM40.01 39.4974V37.9342H48.131V39.4974H40.01ZM52.2616 28.5548H49.4787V24.9768H52.174L52.2616 28.5548ZM65.0032 33.1403H57.1972V30.4654H64.9157L65.0032 33.1403Z" fill="#221F1F"/>
<path d="M53.9254 43.8049H41.6738V55.9633H53.9254V43.8049ZM52.0002 54.1048H43.5466V45.6982H52.0002V54.1048Z" fill="#221F1F"/>
<path d="M19.2526 50.162L17.7649 51.6384C16.7906 52.6132 16.2434 53.9303 16.2422 55.3033V58.7771H28.7038V48.6335H22.9456C21.5595 48.6394 20.232 49.1888 19.2526 50.162ZM26.7786 56.8318H18.1674V55.3033C18.1632 54.8738 18.2463 54.4479 18.4117 54.051C18.5771 53.6541 18.8214 53.2943 19.1301 52.9932L20.6178 51.5168C21.2374 50.9078 22.0734 50.5647 22.9456 50.5615H26.7786V56.8318Z" fill="#221F1F"/>
</svg>
