<svg width="96" height="75" viewBox="0 0 96 75" fill="none" xmlns="http://www.w3.org/2000/svg">
<path d="M74.9272 31.23H73.002V69.1642H74.9272V31.23Z" fill="#221F1F"/>
<path d="M76.5728 13.0965L54.6424 5.64512C54.5356 5.60973 54.4227 5.59559 54.3103 5.6035C54.1979 5.6114 54.0882 5.64121 53.9875 5.69122C53.8867 5.74122 53.7968 5.81044 53.723 5.89492C53.6492 5.9794 53.5929 6.07748 53.5573 6.18357L52.3497 9.6574C52.2771 9.87395 52.2933 10.1102 52.3948 10.3149C52.4964 10.5197 52.675 10.6766 52.8922 10.7517L48.2191 29.5277V23.4485C48.2192 23.0273 48.1341 22.6104 47.9687 22.2225C47.8034 21.8347 47.5612 21.4837 47.2565 21.1905L43.4585 17.5256C43.2496 17.3441 43.0206 17.1868 42.7759 17.0567V11.6896H39.783V1.4939H28.5116V3.23081H32.8871V11.6896H30.1743V17.1088C30.0096 17.2147 29.8518 17.3307 29.7017 17.4561L25.5537 21.1558C25.2235 21.456 24.9598 21.821 24.779 22.2276C24.5983 22.6342 24.5045 23.0736 24.5035 23.518V28.9719L24.1535 28.7114H23.7684C23.4884 28.7114 23.2434 28.7114 22.9983 28.7114C22.9399 28.7824 22.8872 28.8579 22.8408 28.9372C22.7952 29.8398 22.7952 30.7441 22.8408 31.6467C22.8408 35.1206 22.8408 38.5944 22.8408 41.9814C23.5561 42.0581 24.2571 42.2335 24.9236 42.5025V31.7683L25.7462 32.3068L26.5513 32.8278C27.5489 33.4879 27.7239 33.4879 28.6691 32.8278L29.3167 32.4284L30.4893 31.6294C30.7424 31.406 31.0694 31.2825 31.4082 31.2825C31.7469 31.2825 32.0739 31.406 32.327 31.6294C32.6596 31.8725 33.0271 32.1157 33.3772 32.3415L34.2873 32.9321C34.5421 33.152 34.8685 33.2731 35.2062 33.2731C35.5439 33.2731 35.8702 33.152 36.125 32.9321L36.3701 32.7584C36.9894 32.286 37.6448 31.8621 38.3303 31.4904C38.5422 31.396 38.7719 31.3472 39.0042 31.3472C39.2364 31.3472 39.4661 31.396 39.678 31.4904C40.4341 31.892 41.1543 32.3569 41.8308 32.88C42.0748 33.1413 42.4106 33.2997 42.7689 33.3223C43.1272 33.3449 43.4806 33.2301 43.756 33.0015C44.0071 32.8008 44.2701 32.6152 44.5436 32.4457L45.4538 31.7857C45.7682 31.5257 46.1646 31.3834 46.5739 31.3834C46.9832 31.3834 47.3796 31.5257 47.694 31.7857C48.0791 32.081 48.4816 32.3415 48.8842 32.6194L49.7068 33.1579C49.9082 33.3246 50.1621 33.4159 50.4244 33.4159C50.6867 33.4159 50.9406 33.3246 51.142 33.1579L51.5445 32.88C52.0346 32.5326 52.5597 32.1504 53.1022 31.8204C53.6448 31.4904 54.0649 31.2646 54.3974 31.4036C55.2027 31.7713 55.9511 32.2509 56.6202 32.8278C56.9527 33.1231 56.9528 33.731 56.9528 34.2174V71.4742H29.1591V73.5064H63.6036C64.5115 73.5989 65.4287 73.4894 66.2886 73.1861C67.1485 72.8827 67.9294 72.393 68.5748 71.7526C69.2201 71.1122 69.7135 70.3372 70.0192 69.4838C70.3249 68.6304 70.4352 67.7202 70.342 66.8193C70.342 61.7706 70.342 56.7162 70.342 51.656C70.342 44.6389 70.342 37.6159 70.342 30.5872C70.3507 30.4774 70.3507 30.367 70.342 30.2572C70.342 30.0661 70.342 29.8925 70.342 29.7014C70.1145 29.7014 69.8694 29.7014 69.6419 29.7014L74.7701 18.1509C74.8769 18.1863 74.9898 18.2004 75.1022 18.1925C75.2146 18.1846 75.3243 18.1548 75.4251 18.1048C75.5258 18.0548 75.6157 17.9856 75.6895 17.9011C75.7633 17.8166 75.8196 17.7186 75.8552 17.6125L77.0629 14.1386C77.1233 13.9355 77.1068 13.7175 77.0166 13.5255C76.9263 13.3336 76.7685 13.181 76.5728 13.0965ZM34.5673 3.23081H37.9628V11.6896H34.6373L34.5673 3.23081ZM31.9245 13.4265H40.9557V16.6398H31.9245V13.4265ZM26.2538 23.518C26.2522 23.3182 26.2935 23.1204 26.375 22.9377C26.4565 22.755 26.5763 22.5916 26.7263 22.4585L30.8744 18.7415C31.142 18.5113 31.4829 18.3821 31.837 18.3767H41.1657C41.5382 18.3746 41.8966 18.5181 42.1633 18.7762L45.9788 22.4411C46.1173 22.574 46.2275 22.7332 46.3026 22.9093C46.3778 23.0854 46.4165 23.2747 46.4164 23.4659V24.7686H26.2538V23.518ZM43.266 30.7088C43.0858 30.795 42.8884 30.8397 42.6884 30.8397C42.4884 30.8397 42.291 30.795 42.1108 30.7088C41.3937 30.3044 40.7091 29.8456 40.0631 29.3366C39.9151 29.1891 39.7391 29.072 39.5454 28.9921C39.3517 28.9122 39.144 28.871 38.9342 28.871C38.7244 28.871 38.5166 28.9122 38.3229 28.9921C38.1292 29.072 37.9533 29.1891 37.8053 29.3366C37.2977 29.7188 36.7376 30.0661 36.2126 30.3962L35.4775 30.8651L35.2324 31.0215L33.2547 29.8056L32.8346 29.4582C31.5569 28.364 30.7168 28.9719 29.7542 29.684L29.5967 29.7882C28.6866 30.4656 28.214 30.7957 27.7064 30.7957C27.1978 30.7236 26.7193 30.5131 26.3238 30.1877V26.5055H46.4164V29.0761C46.0888 29.0999 45.7654 29.1641 45.4538 29.2672C44.3511 29.7014 44.1761 30.153 43.266 30.7088ZM57.2678 30.7088C56.5677 30.5304 55.9501 30.1198 55.5176 29.5451C55.2355 29.3113 54.8865 29.1715 54.5199 29.1456C54.5328 28.7681 54.5976 28.3941 54.7125 28.034C55.2375 26.5055 58.7205 23.7438 61.3108 21.9721C62.1263 24.3807 62.655 26.8756 62.886 29.4061C61.8534 28.7114 61.6959 28.7114 60.6282 29.4061L60.0682 29.7882C59.6142 30.131 59.1344 30.4388 58.633 30.7088C58.4149 30.7863 58.1835 30.8201 57.9521 30.8082C57.7208 30.7962 57.4941 30.7388 57.2853 30.6393L57.2678 30.7088ZM68.2592 67.514C68.2978 68.4829 67.9534 69.4283 67.2994 70.1487C66.6455 70.869 65.7337 71.3073 64.7588 71.37C64.0587 71.37 63.3586 71.37 62.6585 71.37H59.018V70.8489C59.018 70.6231 59.018 70.4147 59.018 70.1889V68.452C59.018 57.0231 59.018 45.5942 59.018 34.1653C58.9458 33.658 59.0709 33.1425 59.3681 32.7236C59.9935 32.2103 60.6744 31.7676 61.3983 31.4036L61.5909 31.282C61.8009 31.1778 62.0809 31.282 62.431 31.5252L62.6585 31.6641C63.2886 32.0636 63.9362 32.4805 64.5487 32.9321C64.8175 33.1799 65.1708 33.3176 65.5376 33.3176C65.9045 33.3176 66.2578 33.1799 66.5265 32.9321C66.7715 32.741 67.0691 32.5499 67.3841 32.3415L67.9267 31.9941L68.2767 31.7683V38.0386C68.2767 41.6861 68.2767 45.3452 68.2767 49.0159C68.2767 50.1796 68.2767 51.3434 68.2767 52.4897C68.2767 53.6361 68.2767 55.1472 68.2767 56.502C68.3467 59.9063 68.2592 63.5018 68.2592 67.514ZM67.7867 29.6667H67.4541C67.0171 30.1316 66.4943 30.509 65.9139 30.7783C65.8164 30.8041 65.7139 30.8041 65.6164 30.7783C65.3395 30.766 65.0696 30.6886 64.8288 30.5525L64.5837 30.3962C64.9863 27.1655 62.8335 20.9995 62.606 20.2526C62.5627 20.1278 62.4913 20.0145 62.3973 19.9212C62.3033 19.8279 62.1891 19.7571 62.0634 19.7141C61.9388 19.6702 61.8053 19.6567 61.6743 19.6748C61.5432 19.693 61.4186 19.7422 61.3108 19.8184C60.5757 20.2873 54.0824 24.5254 53.1022 27.3739C52.8548 28.0818 52.7594 28.8332 52.8222 29.5798H52.6297C52.4405 29.673 52.2641 29.7897 52.1046 29.9272L51.9996 30.0488L50.4769 30.8478L49.7768 30.5177L54.6074 11.3075L73.1074 17.5951L67.7867 29.6667ZM74.56 16.275L54.2574 9.37949L54.8875 7.55573L75.2601 14.4513L74.56 16.275Z" fill="#221F1F"/>
<path d="M21.2132 44.8646L19.2529 44.2393C18.9819 44.1473 18.695 44.1098 18.4092 44.1292C18.1234 44.1486 17.8443 44.2245 17.5884 44.3522C17.3325 44.48 17.1048 44.6572 16.9188 44.8735C16.7328 45.0897 16.5921 45.3406 16.5051 45.6115C16.4191 45.8269 16.3774 46.0572 16.3825 46.2889V56.1719C16.1256 56.1765 15.8808 56.2809 15.7008 56.4629C15.5207 56.6448 15.4199 56.8896 15.4199 57.1446V72.5336C15.4199 72.7886 15.5207 73.0334 15.7008 73.2154C15.8808 73.3973 16.1256 73.5018 16.3825 73.5063H24.1536C24.4105 73.5018 24.6553 73.3973 24.8353 73.2154C25.0154 73.0334 25.1162 72.7886 25.1162 72.5336V57.1446C25.1162 56.8896 25.0154 56.6448 24.8353 56.4629C24.6553 56.2809 24.4105 56.1765 24.1536 56.1719V48.9811C24.1566 48.0765 23.8749 47.1935 23.3477 46.4555C22.8205 45.7175 22.0743 45.1613 21.2132 44.8646ZM18.3778 46.2889C18.3778 46.2244 18.4036 46.1625 18.4496 46.1169C18.4955 46.0713 18.5579 46.0457 18.6228 46.0457L20.5306 46.671C21.0315 46.8163 21.4721 47.1176 21.7873 47.5305C22.1025 47.9433 22.2755 48.4458 22.2808 48.9637V56.1545H18.3778V46.2889ZM23.2259 71.5783H17.5027V61.9558H23.3135L23.2259 71.5783ZM23.2259 60.0279H17.5027V58.0999H23.3135L23.2259 60.0279Z" fill="#221F1F"/>
</svg>
