<svg width="97" height="75" viewBox="0 0 97 75" fill="none" xmlns="http://www.w3.org/2000/svg">
<g clip-path="url(#clip0)">
<path d="M80.7062 71.7869V71.5263C80.7062 71.2658 80.7062 71.0226 80.7062 70.7621L80.2526 62.7723C79.9909 56.9536 79.7118 50.9439 79.4675 45.021C79.1535 37.3786 78.8569 29.6146 78.5603 22.1111V21.9548L78.2812 14.0692C78.2812 13.1833 77.9323 12.8533 77.06 12.8533H73.2742C72.9729 12.8766 72.671 12.8164 72.4019 12.6796C71.1283 11.8633 69.9071 11.0469 68.6161 10.1958L67.2728 9.29265L67.517 9.06685L67.7612 8.85842L68.18 8.45893C68.9022 7.74147 69.3709 6.80996 69.5156 5.80449C69.6603 4.79902 69.4732 3.77395 68.9825 2.88344C68.5076 1.99522 67.7584 1.28262 66.8455 0.850888C65.9326 0.419159 64.9044 0.291199 63.9129 0.485909C62.9213 0.68062 62.019 1.18768 61.3391 1.93218C60.6592 2.67668 60.2379 3.61914 60.1373 4.62035C60.1104 5.05355 60.2473 5.48111 60.5211 5.81882C60.8071 5.98057 61.1453 6.02422 61.4632 5.94041C61.8296 5.94041 62.0215 5.54092 62.0913 4.91563C62.1069 4.5566 62.194 4.20425 62.3477 3.87907C62.5013 3.5539 62.7184 3.26241 62.9863 3.02156C63.2542 2.78072 63.5675 2.59533 63.9081 2.47619C64.2486 2.35706 64.6096 2.30656 64.9699 2.32762C65.6653 2.38266 66.3144 2.69657 66.7878 3.20679C67.2611 3.71701 67.524 4.38607 67.524 5.08063C67.524 5.7752 67.2611 6.44426 66.7878 6.95448C66.3144 7.46469 65.6653 7.7786 64.9699 7.83364C64.6051 7.8932 64.2555 8.02299 63.9406 8.21576L61.062 10.1958L60.7828 10.4216L57.5728 12.4712C57.2067 12.7014 56.7844 12.8276 56.3515 12.836H46.9307C46.6501 12.8561 46.3688 12.8085 46.1107 12.697L42.5343 10.4216L40.9292 9.36213L41.4003 8.94527L41.7492 8.61525C42.492 7.92109 42.9887 7.00589 43.1648 6.00691C43.3409 5.00794 43.187 3.97903 42.7262 3.0745C42.3355 2.28542 41.7358 1.61759 40.9917 1.14311C40.2477 0.668641 39.3875 0.405558 38.5042 0.382277C38.272 0.364436 38.0387 0.364436 37.8064 0.382277C36.7714 0.547935 35.8186 1.04415 35.0917 1.79608C34.3647 2.54801 33.9031 3.51488 33.7764 4.55087C33.6891 5.40196 33.9857 5.94041 34.6312 6.02725C34.753 6.04441 34.8772 6.03463 34.9948 5.9986C35.1124 5.96258 35.2205 5.90119 35.3116 5.81882C35.4549 5.69272 35.5695 5.53762 35.6477 5.36389C35.7259 5.19016 35.766 5.0018 35.7652 4.81141C35.8203 4.14216 36.1328 3.51992 36.6375 3.0745C37.0294 2.72479 37.5131 2.49327 38.0321 2.40697C38.5512 2.32067 39.0842 2.38315 39.5689 2.58711C40.0536 2.79108 40.4701 3.12811 40.7697 3.55887C41.0692 3.98963 41.2395 4.49634 41.2607 5.01984C41.2733 5.72361 41.0205 6.40654 40.5522 6.93386C40.0839 7.46119 39.4341 7.79463 38.731 7.86838C38.3409 7.92474 37.9667 8.06075 37.6319 8.26787L34.7533 10.1611L34.3346 10.4216L31.299 12.4365C30.8892 12.6878 30.4194 12.8257 29.9382 12.836H27.2341C26.4141 12.836 25.4895 12.836 24.7044 12.836C23.336 12.8729 22.0228 13.3814 20.9888 14.2746C19.9548 15.1678 19.2641 16.3905 19.0344 17.7341C18.3889 21.8679 17.726 26.1407 17.0456 30.7957L16.7839 32.3936C16.5036 33.8143 16.3345 35.2545 16.278 36.7012C16.278 42.4504 16.278 48.2864 16.278 53.9487V54.244C16.278 56.3804 16.278 58.5342 16.278 60.6706V61.1222C16.2733 61.2528 16.2951 61.3831 16.3421 61.5051C16.3891 61.6272 16.4603 61.7385 16.5515 61.8326C16.6427 61.9266 16.752 62.0014 16.8728 62.0524C16.9937 62.1034 17.1237 62.1297 17.2549 62.1296H24.7567C24.895 62.1355 25.0328 62.1115 25.1609 62.0593C25.2889 62.0071 25.4041 61.928 25.4985 61.8274C25.593 61.7268 25.6645 61.607 25.7081 61.4763C25.7517 61.3455 25.7664 61.207 25.7512 61.0701C25.7686 60.8156 25.7686 60.5603 25.7512 60.3059V59.6979H25.978H33.1483C34.1253 59.6979 34.4393 59.3679 34.4567 58.3779V57.2489H42.4994V58.4647C42.4994 59.3505 42.8483 59.6806 43.7206 59.6979H49.3208V60.4622C49.3208 60.8096 49.3208 61.0875 49.3208 61.4001L49.0765 66.7498C48.9719 68.8862 48.8672 71.0574 48.7799 73.2111C48.7434 73.406 48.7461 73.6062 48.788 73.8001C48.83 73.9939 48.9103 74.1775 49.0242 74.3401C49.3427 74.5824 49.7421 74.6943 50.1407 74.6528H79.2582C79.7017 74.7128 80.1514 74.6009 80.5143 74.3401C80.7237 74.1491 80.7934 73.7496 80.776 73.0548C80.776 72.6379 80.776 72.2211 80.776 71.8216L80.7062 71.7869ZM62.1087 11.8112C62.9287 11.2554 63.6963 10.7517 64.4465 10.2827C64.5736 10.2186 64.714 10.1852 64.8565 10.1852C64.9989 10.1852 65.1394 10.2186 65.2665 10.2827C65.9643 10.7169 66.6447 11.1685 67.4123 11.6896L68.9825 12.7317H60.5909L62.1087 11.8112ZM76.2575 14.8681V17.8209H58.1659L56.8575 14.8681H76.2575ZM76.397 19.801V23.8133H76.083C74.7746 23.6048 73.7976 22.2327 73.4661 20.1484V19.8531L76.397 19.801ZM35.8699 11.7764L38.0332 10.4216C38.178 10.3441 38.3398 10.3035 38.5042 10.3035C38.6686 10.3035 38.8305 10.3441 38.9753 10.4216C39.6906 10.8559 40.3884 11.3248 41.1211 11.8112L42.6389 12.836H34.3695L35.8699 11.7764ZM32.4679 57.6831H25.7163V34.2C25.7347 34.0036 25.7347 33.8059 25.7163 33.6095C25.6902 33.3808 25.579 33.1701 25.4046 33.019C25.2302 32.8679 25.0053 32.7873 24.7742 32.7931C24.5299 32.7786 24.2894 32.8593 24.1038 33.0181C23.9182 33.177 23.802 33.4015 23.7798 33.6442C23.7624 33.8117 23.7624 33.9805 23.7798 34.1479V60.2016H18.2145V59.0553C18.2145 57.3184 18.2145 55.7204 18.2145 54.0703V53.5493C18.2145 49.2938 18.2145 44.8647 18.2145 40.6092C18.2275 37.2726 18.5251 33.9431 19.1042 30.6567C19.7323 26.6097 20.3429 22.5453 20.8488 18.4983C20.9109 17.4983 21.353 16.5593 22.0853 15.8722C22.8177 15.185 23.7853 14.8012 24.7916 14.7987H25.0533V14.955L25.2801 16.2751L25.6465 18.6546C25.7255 19.3431 25.9479 20.0076 26.2993 20.6057C26.6508 21.2039 27.1236 21.7225 27.6877 22.1285C28.2934 22.4882 28.969 22.7161 29.6696 22.7969C30.3703 22.8777 31.0803 22.8098 31.7526 22.5974H31.9445H32.3632L32.4679 57.6831ZM32.3807 19.9747C32.1524 20.2935 31.8517 20.5541 31.503 20.7353C31.1544 20.9164 30.7676 21.0129 30.3744 21.0168H29.7812C29.3089 20.9318 28.875 20.7019 28.5403 20.3593C28.2056 20.0168 27.9868 19.5787 27.9145 19.1062C27.7051 18.203 27.5656 17.3693 27.426 16.3272V16.0319L27.269 15.0939V14.7987H30.1825V15.0245C30.4705 16.7413 31.2592 18.3359 32.4505 19.6099L32.5726 19.7489L32.3807 19.9747ZM42.4819 55.1646H34.5091V21.3468L34.8929 21.5032C36.027 22.0167 37.2584 22.2824 38.5042 22.2824C39.7501 22.2824 40.9815 22.0167 42.1156 21.5032L42.4819 21.3468V55.1646ZM38.9927 20.3047H38.4868C36.9838 20.3108 35.526 19.7931 34.3661 18.8414C33.2063 17.8897 32.4175 16.5639 32.1364 15.0939V14.7813H44.8023V15.1113C44.8023 17.5604 41.976 20.0789 39.0625 20.3221L38.9927 20.3047ZM44.6976 19.6794C45.8827 18.4124 46.6603 16.8216 46.9307 15.1113V14.9376H47.1226H49.8616V15.2329L49.7046 16.2577V16.4314C49.5476 17.3693 49.408 18.3246 49.1987 19.2625C49.0924 19.7203 48.8453 20.1336 48.492 20.4449C48.1386 20.7562 47.6965 20.9501 47.2273 20.9995H46.7039C46.3168 20.9954 45.9359 20.9024 45.5909 20.7277C45.2459 20.5529 44.9462 20.3012 44.715 19.992L44.5929 19.8531L44.6976 19.6794ZM44.558 57.6657V22.9274H45.7967C46.4631 23.006 47.1365 23.006 47.803 22.9274C48.715 22.7446 49.5449 22.2774 50.1722 21.5935C50.7996 20.9095 51.1919 20.0444 51.2922 19.1236C51.4841 17.8209 51.676 16.5182 51.8853 15.2329V14.9897H52.0424C52.4664 14.9326 52.8976 14.96 53.311 15.0703C53.7243 15.1807 54.1114 15.3717 54.4499 15.6324C55.2939 16.2395 55.8691 17.1483 56.055 18.1683C56.3515 20.3047 56.683 22.4758 56.9796 24.4038L57.3808 27.0092C57.817 29.9446 58.2706 32.8973 58.7068 35.8501C58.7557 36.1431 58.7848 36.439 58.794 36.7359V60.1843H53.2461V34.3737C53.302 33.8867 53.1712 33.3966 52.8798 33.0015C52.8007 32.928 52.7071 32.8715 52.6051 32.8356C52.503 32.7997 52.3946 32.7853 52.2866 32.7931C51.7458 32.7931 51.2747 32.9842 51.2747 34.339V57.6657H44.558ZM63.7487 72.5858H50.8037V71.8737C50.9433 68.6952 51.0828 65.5166 51.2224 62.4075V62.1991H51.4317H59.7012C59.8401 62.2046 59.9785 62.1805 60.1073 62.1285C60.2361 62.0765 60.3523 61.9977 60.4481 61.8974C60.5438 61.7971 60.617 61.6777 60.6627 61.547C60.7084 61.4163 60.7256 61.2774 60.713 61.1396V59.4027C60.713 57.6657 60.713 55.7551 60.713 53.9835V53.8445C60.713 49.6933 60.713 45.4031 60.713 41.1824C60.7131 37.257 60.3628 33.3393 59.6663 29.4756C59.3348 27.3913 59.0208 25.2549 58.7068 23.188V22.7711C58.5846 21.9027 58.4451 21.0342 58.3229 20.1831V19.8878H63.7836L63.7487 72.5858ZM65.7898 72.5858V19.8184H71.2505V19.9747C71.2505 20.2352 71.39 20.461 71.4424 20.6694C71.5587 21.1558 71.6982 21.6247 71.8611 22.0763C72.1305 23.012 72.6488 23.8578 73.3613 24.5243C74.0737 25.1908 74.9538 25.6533 75.9085 25.8628C76.1204 25.8971 76.3103 26.0127 76.4376 26.1848C76.5648 26.3569 76.6191 26.5718 76.589 26.7834L76.7634 30.3962L77.0251 35.7111C77.4322 44.4652 77.8276 53.225 78.2114 61.9907C78.3336 64.3876 78.4382 66.854 78.5429 69.251L78.6825 72.5858H65.7898Z" fill="black"/>
</g>
<defs>
<clipPath id="clip0">
<rect width="97" height="75" fill="white"/>
</clipPath>
</defs>
</svg>
