<svg width="96" height="75" viewBox="0 0 96 75" fill="none" xmlns="http://www.w3.org/2000/svg">
<path d="M80.8086 32.1329C80.5409 31.8157 80.2061 31.561 79.828 31.3869C79.4498 31.2128 79.0376 31.1235 78.6208 31.1255H77.3081L75.8379 21.8504C75.7543 21.2964 75.4736 20.7904 75.0466 20.4241C74.6196 20.0577 74.0746 19.8551 73.5101 19.853H66.9818C66.9857 19.5247 66.9201 19.1992 66.7892 18.8977L59.1757 2.32748C58.8784 1.70018 58.3472 1.21196 57.6942 0.965704C57.0412 0.719451 56.3174 0.73441 55.6753 1.00743L50.1796 3.47385C49.5444 3.76552 49.0495 4.2924 48.8009 4.94166C48.5523 5.59093 48.5697 6.31099 48.8494 6.94768L50.2321 9.93517H41.691C41.3777 9.9374 41.068 10.0014 40.7799 10.1235C40.4918 10.2457 40.231 10.4234 40.0127 10.6465C39.7945 10.8695 39.6231 11.1334 39.5086 11.4228C39.3941 11.7122 39.3387 12.0213 39.3457 12.3321V31.1255H36.7553L36.0902 27.4259C35.9621 26.7231 35.5596 26.0988 34.9701 25.689C34.7946 25.51 34.5852 25.3672 34.354 25.2688C34.1227 25.1704 33.874 25.1184 33.6224 25.1158H16.4002C15.9079 25.1203 15.4368 25.3151 15.087 25.6589C14.7373 26.0028 14.5365 26.4685 14.5274 26.9569V27.9644C14.5251 28.2099 14.5718 28.4534 14.6649 28.6809C14.758 28.9084 14.8956 29.1153 15.0697 29.2898C15.2438 29.4642 15.4511 29.6026 15.6794 29.6971C15.9078 29.7916 16.1528 29.8402 16.4002 29.8402H33.5699C33.907 29.8342 34.2352 29.7317 34.515 29.5449L38.6806 52.9933L40.2558 62.0426C40.2558 62.8416 40.7633 66.7497 43.0561 66.7497C42.4497 67.5331 42.1124 68.4889 42.0935 69.4766C42.0908 70.2191 42.2664 70.9516 42.6058 71.6133C42.9452 72.275 43.4387 72.8469 44.0453 73.2816C44.6519 73.7163 45.3541 74.0013 46.0938 74.1129C46.8335 74.2246 47.5894 74.1596 48.2987 73.9235C49.0081 73.6874 49.6506 73.2869 50.1729 72.7552C50.6951 72.2235 51.0822 71.576 51.302 70.8662C51.5218 70.1565 51.568 69.4049 51.4367 68.674C51.3054 67.9429 51.0005 67.2535 50.5471 66.6628H63.2538C62.8156 67.2565 62.525 67.9444 62.4055 68.6707C62.286 69.3969 62.341 70.1409 62.5662 70.842C62.7913 71.5432 63.18 72.1816 63.7009 72.7054C64.2217 73.2292 64.8598 73.6235 65.5632 73.8561C66.2667 74.0888 67.0156 74.1534 67.7489 74.0445C68.4822 73.9356 69.1793 73.6563 69.7832 73.2294C70.3872 72.8026 70.8811 72.2401 71.2246 71.588C71.5681 70.9359 71.7515 70.2124 71.7599 69.4766C71.7591 68.4617 71.4138 67.4765 70.7798 66.6802H73.5101C73.7608 66.6802 74.0012 66.5814 74.1784 66.4055C74.3557 66.2296 74.4552 65.991 74.4552 65.7423C74.4552 65.4935 74.3557 65.2549 74.1784 65.079C74.0012 64.9031 73.7608 64.8043 73.5101 64.8043H43.0911C42.7936 64.8043 42.216 63.4669 42.0585 61.7473L41.0959 55.9634C41.2727 56.0164 41.4545 56.0513 41.6385 56.0676H75.0503C75.7038 56.0741 76.3394 55.8563 76.8497 55.4512C77.3599 55.0461 77.7136 54.4785 77.8507 53.8444L81.4386 34.4952C81.5168 34.0797 81.5008 33.6522 81.3918 33.2436C81.2828 32.835 81.0836 32.4556 80.8086 32.1329ZM33.5524 27.9817H16.4002V26.9569H33.2549C33.3415 26.9392 33.4308 26.9392 33.5174 26.9569V27.9122L33.5524 27.9817ZM66.9818 72.3599C66.4248 72.3563 65.8811 72.19 65.4188 71.8817C64.9565 71.5734 64.5959 71.1368 64.382 70.6264C64.1682 70.116 64.1106 69.5543 64.2164 69.0116C64.3222 68.4689 64.5868 67.9691 64.977 67.5747C65.3673 67.1803 65.866 66.9087 66.4108 66.7938C66.9557 66.6789 67.5226 66.7258 68.0407 66.9287C68.5589 67.1316 69.0053 67.4814 69.3244 67.9345C69.6434 68.3877 69.8209 68.924 69.8346 69.4766C69.844 69.8519 69.7775 70.2253 69.6392 70.5748C69.5009 70.9242 69.2936 71.2427 69.0293 71.5114C68.7651 71.78 68.4494 71.9935 68.1007 72.1393C67.7521 72.285 67.3776 72.36 66.9993 72.3599H66.9818ZM46.7841 72.3599C46.2271 72.3563 45.6835 72.19 45.2212 71.8817C44.7588 71.5734 44.3982 71.1368 44.1844 70.6264C43.9705 70.116 43.9129 69.5543 44.0188 69.0116C44.1246 68.4689 44.3891 67.9691 44.7794 67.5747C45.1697 67.1803 45.6683 66.9087 46.2132 66.7938C46.758 66.6789 47.3249 66.7258 47.8431 66.9287C48.3612 67.1316 48.8077 67.4814 49.1267 67.9345C49.4458 68.3877 49.6232 68.924 49.637 69.4766C49.6463 69.8519 49.5799 70.2253 49.4416 70.5748C49.3033 70.9242 49.0959 71.2427 48.8317 71.5114C48.5675 71.78 48.2517 71.9935 47.9031 72.1393C47.5545 72.285 47.1799 72.36 46.8016 72.3599H46.7841ZM57.478 25.6369H74.5252L75.3829 31.1255H57.4955L57.478 25.6369ZM73.9652 22.1631L74.2277 23.7958H57.4955V22.2325C57.4857 22.1062 57.5259 21.9811 57.6077 21.8838C57.6894 21.7865 57.8061 21.7247 57.9331 21.7115H73.5101C73.6284 21.715 73.7415 21.7609 73.8284 21.8407C73.9152 21.9205 73.97 22.0289 73.9827 22.1457L73.9652 22.1631ZM50.5646 6.23554C50.491 6.04567 50.4914 5.83534 50.5659 5.64578C50.6404 5.45621 50.7835 5.30108 50.9672 5.21076L56.3929 2.76171C56.5022 2.73587 56.6161 2.73587 56.7254 2.76171C56.818 2.74511 56.9129 2.74511 57.0055 2.76171C57.1079 2.79307 57.2019 2.84678 57.2806 2.91892C57.3594 2.99105 57.4208 3.07978 57.4605 3.17857L65.0915 19.7487C65.1001 19.8063 65.1001 19.8649 65.0915 19.9224H57.9331C57.7833 19.9383 57.6362 19.9734 57.4955 20.0266V12.3321C57.4909 11.7116 57.2405 11.1179 56.7984 10.6791C56.3563 10.2403 55.758 9.99183 55.1327 9.98728H52.2973L50.5646 6.23554ZM41.2184 12.3321C41.2183 12.2061 41.2675 12.0849 41.3557 11.9942C41.4438 11.9035 41.564 11.8503 41.691 11.8458H55.1327C55.2613 11.8501 55.3834 11.9027 55.4744 11.993C55.5654 12.0833 55.6184 12.2045 55.6228 12.3321V31.1255H41.2184V12.3321ZM76.0129 53.4796C75.9689 53.702 75.8493 53.9027 75.6741 54.0481C75.4989 54.1936 75.2787 54.2749 75.0503 54.2786H41.6385C41.4066 54.2775 41.1827 54.1949 41.0065 54.0454C40.8302 53.896 40.7131 53.6893 40.6758 53.4623L37.0354 33.0014H78.6208C78.7642 33.0017 78.9057 33.0331 79.0355 33.0936C79.1653 33.1541 79.2802 33.2421 79.372 33.3514C79.4638 33.4607 79.5303 33.5887 79.5668 33.7263C79.6033 33.8639 79.609 34.0078 79.5834 34.1478L76.0129 53.4796Z" fill="#221F1F"/>
<path d="M43.021 34.634C42.7755 34.6765 42.5569 34.8135 42.4127 35.0152C42.2684 35.2168 42.2103 35.4669 42.2509 35.7109L44.8413 51.5516C44.8746 51.768 44.9845 51.9655 45.1512 52.1087C45.318 52.252 45.5308 52.3315 45.7514 52.3332H45.9089C46.0298 52.3142 46.1456 52.2716 46.2498 52.208C46.3541 52.1444 46.4446 52.0609 46.5162 51.9625C46.5877 51.864 46.639 51.7524 46.6669 51.6342C46.6949 51.516 46.699 51.3935 46.679 51.2737L44.0887 35.4156C44.0716 35.2941 44.0303 35.1773 43.9671 35.0719C43.9039 34.9665 43.8201 34.8746 43.7206 34.8018C43.6211 34.729 43.508 34.6767 43.3879 34.6478C43.2677 34.619 43.143 34.6143 43.021 34.634Z" fill="#221F1F"/>
<path d="M74.0356 34.634C73.7898 34.599 73.5401 34.6614 73.3403 34.8077C73.1406 34.9539 73.0068 35.1723 72.9679 35.4156L70.6051 51.2737C70.5744 51.5168 70.639 51.7624 70.7856 51.9596C70.9322 52.1568 71.1496 52.2905 71.3927 52.3332H71.5327C71.7579 52.3315 71.9751 52.2501 72.1452 52.1036C72.3152 51.9571 72.427 51.7552 72.4604 51.5342L74.8232 35.6935C74.843 35.5725 74.8383 35.4487 74.8092 35.3295C74.7802 35.2102 74.7274 35.098 74.6541 34.9993C74.5807 34.9006 74.4882 34.8174 74.382 34.7547C74.2758 34.692 74.158 34.6509 74.0356 34.634Z" fill="#221F1F"/>
<path d="M58.5975 34.6342C58.3515 34.6342 58.1156 34.7312 57.9416 34.9038C57.7677 35.0765 57.6699 35.3106 57.6699 35.5548V51.4128C57.7009 51.6374 57.8129 51.8432 57.985 51.9923C58.1572 52.1413 58.3779 52.2234 58.6063 52.2234C58.8347 52.2234 59.0554 52.1413 59.2276 51.9923C59.3997 51.8432 59.5117 51.6374 59.5427 51.4128V35.5548C59.5427 35.4324 59.5181 35.3113 59.4704 35.1984C59.4227 35.0856 59.3528 34.9833 59.2648 34.8976C59.1768 34.8119 59.0725 34.7445 58.9579 34.6992C58.8433 34.654 58.7208 34.6319 58.5975 34.6342Z" fill="#221F1F"/>
<path d="M66.5088 34.6341C66.386 34.6196 66.2614 34.6306 66.1431 34.6664C66.0248 34.7022 65.9152 34.762 65.8214 34.842C65.7276 34.922 65.6516 35.0205 65.5982 35.1313C65.5448 35.242 65.5152 35.3625 65.5112 35.4852L64.2685 51.3259C64.2491 51.572 64.3282 51.8158 64.4888 52.0044C64.6493 52.193 64.8783 52.3112 65.1261 52.3333C65.3623 52.3343 65.5904 52.2475 65.7653 52.09C65.9402 51.9324 66.0494 51.7156 66.0712 51.4822L67.2964 35.6242C67.3212 35.3898 67.2528 35.1551 67.1056 34.9701C66.9585 34.7851 66.7443 34.6646 66.5088 34.6341Z" fill="#221F1F"/>
<path d="M50.4759 34.634C50.3528 34.6446 50.2333 34.68 50.1244 34.7379C50.0156 34.7959 49.9198 34.8752 49.8428 34.9711C49.7658 35.0669 49.7093 35.1773 49.6768 35.2956C49.6442 35.4138 49.6362 35.5374 49.6533 35.6588L51.2985 51.4995C51.3203 51.7283 51.4276 51.9407 51.5993 52.0949C51.7709 52.2492 51.9945 52.3342 52.2261 52.3332H52.3311C52.5791 52.3069 52.8065 52.1844 52.9638 51.9925C53.1212 51.8005 53.1957 51.5546 53.1712 51.3084L51.5085 35.4677C51.4977 35.345 51.4621 35.2257 51.4039 35.1169C51.3458 35.008 51.2662 34.9119 51.1699 34.8342C51.0736 34.7564 50.9625 34.6986 50.8433 34.6643C50.7241 34.6299 50.5992 34.6196 50.4759 34.634Z" fill="#221F1F"/>
<path d="M52.2265 14.59H44.4555C44.2292 14.6208 44.0217 14.7318 43.8716 14.9027C43.7214 15.0735 43.6387 15.2925 43.6387 15.5192C43.6387 15.7459 43.7214 15.965 43.8716 16.1358C44.0217 16.3066 44.2292 16.4177 44.4555 16.4485H52.2265C52.3602 16.4667 52.4963 16.4562 52.6256 16.4179C52.7549 16.3795 52.8744 16.3141 52.9761 16.226C53.0778 16.138 53.1593 16.0294 53.2152 15.9075C53.271 15.7855 53.2999 15.6532 53.2999 15.5192C53.2999 15.3853 53.271 15.2529 53.2152 15.131C53.1593 15.0091 53.0778 14.9005 52.9761 14.8124C52.8744 14.7244 52.7549 14.659 52.6256 14.6206C52.4963 14.5822 52.3602 14.5718 52.2265 14.59Z" fill="#221F1F"/>
</svg>
