<svg width="97" height="75" viewBox="0 0 97 75" fill="none" xmlns="http://www.w3.org/2000/svg">
<g clip-path="url(#clip0)">
<path d="M79.8851 42.1551H83.6186C83.9133 42.1914 84.2124 42.1438 84.4811 42.0178C84.7497 41.8917 84.977 41.6924 85.1364 41.4429V35.9716C84.997 35.732 84.7913 35.5375 84.5438 35.4112C84.2963 35.2849 84.0175 35.2322 83.7407 35.2595H73.9709V35.0511C73.9709 28.7461 71.4587 24.3169 66.2947 21.9026C61.1306 19.4883 55.827 20.322 51.0817 24.4733L50.7328 24.7685V5.34982C50.7328 2.76182 50.2269 1.98021 47.8717 1.0249H14.7242L14.445 1.11175L13.9565 1.35492C13.3132 1.63775 12.7708 2.10752 12.4003 2.70262C12.0299 3.29772 11.8487 3.99038 11.8805 4.68979C11.8805 11.759 11.8805 19.0715 11.8805 26.2623C11.8477 26.7648 11.9251 27.2684 12.1073 27.7382C12.2895 28.208 12.5721 28.6328 12.9355 28.9831C13.2989 29.3333 13.7345 29.6007 14.2121 29.7668C14.6896 29.9328 15.1977 29.9934 15.7011 29.9445H26.1688L25.7501 31.2472C25.3314 32.4978 24.9475 33.6789 24.5114 34.8426C24.3893 35.1727 23.7787 35.2595 23.6216 35.2595H13.5727C12.0898 35.2595 11.8281 35.4853 11.8281 36.9964V40.6439C11.8281 41.8598 12.1422 42.1724 13.3285 42.1724H18.9461L18.6495 43.4056C18.3704 44.691 18.0738 45.9415 17.7947 47.1921L12.02 72.2211C11.935 72.4397 11.8987 72.6741 11.9138 72.908C11.9288 73.142 11.9948 73.3699 12.1073 73.5759C12.2792 73.7275 12.482 73.8401 12.7019 73.9061C12.9218 73.9721 13.1534 73.9898 13.3808 73.958C14.7242 73.958 16.0675 73.958 17.4109 73.958C18.3878 73.958 18.6844 73.7148 18.8938 72.7595C18.8938 72.4469 19.0508 72.1342 19.1206 71.8216C19.2776 71.1442 19.452 70.4494 19.5916 69.772C19.5916 69.4073 19.801 69.0599 20.3767 69.0599C23.5519 69.0599 26.7619 69.0599 29.9546 69.0599C30.1206 69.0844 30.2772 69.1518 30.4088 69.2555C30.5405 69.3591 30.6425 69.4953 30.7047 69.6504C30.9141 70.4147 31.0886 71.1789 31.2456 71.9258L31.42 72.6553C31.6643 73.7148 31.926 73.9232 32.9902 73.9232H33.4961C34.6999 73.9232 35.8862 73.9232 37.09 73.9232C37.2969 73.9723 37.5135 73.9614 37.7144 73.892C37.9153 73.8226 38.0921 73.6976 38.2241 73.5315C38.356 73.3655 38.4376 73.1654 38.4592 72.9548C38.4808 72.7442 38.4416 72.5318 38.3461 72.3427C36.9039 66.1245 35.4617 59.9121 34.0195 53.7055L31.4724 42.7109C31.4724 42.7109 31.4724 42.6067 31.4724 42.5198V42.1898H47.261V46.2194H44.6441C43.5276 46.2194 42.3587 46.2194 41.1549 46.2194C40.1294 46.3003 39.1733 46.7669 38.4809 47.5243C37.7886 48.2818 37.4119 49.2734 37.4274 50.2974C37.443 51.3215 37.8496 52.3012 38.5647 53.0375C39.2797 53.7738 40.2496 54.2114 41.277 54.2614C42.6204 54.2614 43.9812 54.2614 45.2896 54.2614H48.2206L47.8891 55.1298C47.7321 55.5814 47.5751 55.9983 47.4181 56.4151L45.7607 60.8269C44.7314 63.5712 43.6846 66.3156 42.6553 69.0772C42.4461 69.5905 42.3547 70.1439 42.3879 70.6968C42.4211 71.2498 42.578 71.7884 42.8472 72.2732C43.1096 72.6934 43.464 73.0492 43.8839 73.3139C44.3038 73.5786 44.7784 73.7453 45.2722 73.8017C45.9954 73.9147 46.7357 73.7783 47.3703 73.415C48.0049 73.0517 48.4957 72.4833 48.7614 71.8042C49.4244 70.1889 50.0524 68.5041 50.663 66.8887L51.3609 64.9955L51.8319 63.7275C52.1808 62.8243 52.5123 61.9906 52.8612 61.0527C52.9659 60.7922 53.2974 60.41 53.6114 60.41H61.4272L60.9213 62.5291C60.6596 63.6407 60.4154 64.735 60.1711 65.8118C59.9269 66.8887 59.6303 68.1046 59.3686 69.2857C59.1069 70.4668 58.8976 71.2658 58.6708 72.2558C58.5717 72.4618 58.5202 72.6874 58.5202 72.9158C58.5202 73.1443 58.5717 73.3698 58.6708 73.5759C58.8458 73.7343 59.0539 73.8523 59.2801 73.9214C59.5063 73.9905 59.745 74.0089 59.9792 73.9753H60.7817C61.8634 73.9753 62.945 73.9753 64.0092 73.9753C65.0734 73.9753 65.2479 73.7322 65.4573 72.829L65.9806 70.5536L66.2947 71.2137C67.3763 73.7669 68.9639 74.5659 71.1621 73.6453C72.6625 73.02 73.1684 71.7521 72.9067 69.3725V69.1467H77.3031L77.652 70.6057L78.1231 72.6379C78.4022 73.8711 78.6116 74.0275 79.8677 74.0275H83.5488C83.8569 74.0659 84.1697 74.0217 84.4549 73.8996C84.7401 73.7775 84.9874 73.5818 85.1713 73.3327V72.5684L84.7875 71.04C84.5083 69.9283 84.2292 68.7993 83.9675 67.6703C82.0717 59.5647 80.1759 51.4186 78.2801 43.2319C78.2801 43.0756 78.2801 42.9019 78.1929 42.7282V42.2245H79.9375L79.8851 42.1551ZM72.2961 51.0654L72.6625 50.5791L72.9416 50.2491L75.7155 62.2164H70.8481C70.6104 62.2258 70.3765 62.1556 70.1836 62.017C69.9907 61.8785 69.85 61.6796 69.7839 61.4522C69.3328 60.6477 69.0674 59.7533 69.007 58.8339C68.9467 57.9145 69.0929 56.9933 69.435 56.1372C69.4865 55.9732 69.5215 55.8044 69.5396 55.6335C69.545 54.8734 69.7275 54.1248 70.0726 53.4467C70.4177 52.7686 70.916 52.1794 71.5285 51.7255C71.7923 51.5246 72.017 51.2774 72.1914 50.996L72.2961 51.0654ZM13.9565 5.21087C13.9565 3.47395 14.3927 3.1092 16.0675 3.1092H46.6155C48.3601 3.1092 48.7091 3.52606 48.7091 5.21087V23.0142H15.0731C13.9565 23.0142 13.9565 22.9274 13.9565 21.8505V5.21087ZM16.1373 27.9297C15.8016 27.9776 15.4594 27.9527 15.1342 27.8568C14.809 27.7609 14.5085 27.5962 14.2531 27.3739C14.0545 27.0688 13.9251 26.7243 13.8739 26.3643C13.8226 26.0044 13.8509 25.6376 13.9565 25.2896V25.1159H48.7091V26.436C48.719 26.8023 48.5868 27.1583 48.3398 27.4301C48.0929 27.7018 47.7503 27.8683 47.3832 27.895C47.1276 27.9127 46.8711 27.9127 46.6155 27.895L16.1373 27.9297ZM47.6972 29.9967L47.1389 35.2074H46.9819C46.8834 35.2187 46.7839 35.2187 46.6853 35.2074H38.852C38.6427 35.2074 38.1891 35.0684 38.0844 34.8079C37.6483 33.6094 37.2645 32.4457 36.8458 31.1951L36.427 29.9445L47.6972 29.9967ZM36.0258 35.2074H26.6049L26.9538 34.1479C27.1458 33.5921 27.3202 33.0536 27.4947 32.5152C27.577 32.2699 27.6469 32.0206 27.704 31.7683C27.7534 31.1532 28.019 30.575 28.4542 30.1356C29.0311 29.8472 29.6889 29.7615 30.3209 29.8924H31.0886C31.7864 29.8924 32.6936 29.8924 33.6182 29.8924C33.6182 29.8924 34.2463 29.8924 34.3684 30.2398C34.7871 31.4557 35.1884 32.6541 35.6071 33.9221L36.0258 35.2074ZM17.2015 71.0921C17.0619 71.7 16.7828 71.9605 16.242 71.9605H14.2008L14.3752 71.1442C14.3752 70.7621 14.5148 70.4147 14.602 70.0673L16.1722 63.2933L20.935 43.0061C21.0571 42.4503 21.3188 42.0856 21.9992 42.1551C22.3481 42.1551 22.7319 42.1551 23.1157 42.1551H23.9531L23.4646 44.2915C23.1506 45.6636 22.8366 47.0011 22.5225 48.3385L21.1966 54.0356C19.8591 59.6979 18.5274 65.3834 17.2015 71.0921ZM24.8778 46.8968V46.7405H25.3837V46.9142L28.8729 62.1122H21.3711V61.8517C22.54 56.8494 23.674 51.8818 24.8603 46.9316L24.8778 46.8968ZM20.2371 67.0103V66.7498C20.2371 66.5414 20.2371 66.3503 20.3767 66.1592C20.4814 65.6382 20.6035 65.1345 20.7431 64.6481C20.8155 64.5161 20.9211 64.4051 21.0495 64.3259C21.1779 64.2468 21.3248 64.2022 21.4758 64.1965C23.7961 64.1965 26.2037 64.1965 28.8031 64.1965C29.0299 64.1965 29.4137 64.3876 29.4835 64.6307C29.5533 64.8739 29.7452 65.6555 29.8673 66.1766L30.0592 67.0277L20.2371 67.0103ZM35.9386 70.9879C35.9484 71.1382 35.9484 71.2891 35.9386 71.4395V71.9084H33.3565V71.7347L26.4828 42.3288L26.727 42.2245H26.8666C29.152 42.0508 29.2567 42.1377 29.7627 44.3262C31.8446 53.2192 33.909 62.118 35.956 71.0226L35.9386 70.9879ZM13.9565 37.3264H47.2436V40.1055H13.9565V37.3264ZM53.0706 54.6956C52.931 55.0603 52.8263 55.3382 52.7391 55.5988L51.0992 59.9584L47.104 70.6057C47.0225 70.85 46.9112 71.0833 46.7725 71.3005C46.6663 71.4734 46.5178 71.6167 46.3408 71.717C46.1639 71.8172 45.9643 71.8711 45.7607 71.8737C45.5622 71.8755 45.3657 71.834 45.185 71.7521C45.0401 71.6984 44.9076 71.6163 44.7953 71.5105C44.683 71.4048 44.5933 71.2776 44.5314 71.1366C44.4696 70.9956 44.4368 70.8436 44.4352 70.6897C44.4336 70.5359 44.4631 70.3832 44.522 70.241L45.6386 67.2188L46.9819 63.7449C48.0403 60.9195 49.0987 58.0884 50.1571 55.2514C50.212 54.9899 50.3657 54.7593 50.5865 54.6074C50.8073 54.4555 51.0783 54.3938 51.3434 54.4351C51.6746 54.4529 52.0066 54.4529 52.3378 54.4351H53.2101L53.0706 54.6956ZM50.8549 52.3855C47.8717 52.3855 44.8011 52.3855 41.783 52.3855C41.1448 52.3461 40.5349 52.1092 40.0384 51.7081C39.7455 51.4526 39.5469 51.1069 39.4742 50.7261C39.4015 50.3452 39.4588 49.9511 39.6371 49.6064C39.7851 49.2347 40.0426 48.9163 40.3758 48.6931C40.709 48.4698 41.1023 48.3523 41.5038 48.3558H47.8542C48.9533 48.3558 49.2848 48.0258 49.2848 46.9316V42.2245C49.2848 39.4976 49.2848 36.7706 49.2848 34.0263C49.2467 31.6477 49.9677 29.3185 51.344 27.3739C52.7203 25.4294 54.6809 23.9698 56.9436 23.2053C58.5658 22.6396 60.2981 22.4581 62.0031 22.6752C63.708 22.8923 65.3387 23.502 66.7657 24.4559C68.1775 25.353 69.3591 26.5661 70.2163 27.9986C71.0736 29.431 71.5826 31.0431 71.7029 32.7062C71.8949 35.2595 71.86 37.917 71.8425 40.4355C71.8425 41.5298 71.8425 42.6414 71.8425 43.7357V44.222C71.8861 44.974 71.8861 45.7279 71.8425 46.48C71.735 48.0986 71.0033 49.6132 69.8003 50.7072C68.5974 51.8013 67.0163 52.3901 65.3875 52.3507H50.9073L50.8549 52.3855ZM53.8208 58.4994L54.2395 57.3878C54.5709 56.5193 54.8675 55.6509 55.199 54.8693C55.2651 54.7466 55.3598 54.6416 55.4751 54.563C55.5905 54.4844 55.7232 54.4346 55.8619 54.4177H59.5431C59.6832 54.43 59.8183 54.476 59.9368 54.5516C60.0553 54.6272 60.1536 54.7303 60.2234 54.8519C60.5549 55.6683 60.8515 56.502 61.183 57.3531L61.6191 58.4994H53.8208ZM64.7245 67.3577V67.4619L64.4279 68.7299L63.8173 71.2137C63.8129 71.3095 63.7894 71.4035 63.7484 71.4903C63.7074 71.5771 63.6496 71.655 63.5783 71.7196C63.507 71.7841 63.4236 71.834 63.3329 71.8664C63.2422 71.8988 63.146 71.9131 63.0497 71.9084C62.6484 71.9084 62.2297 71.9084 61.7761 71.9084H60.8864L62.945 63.0675H63.3812L63.8173 64.1965L64.8118 66.8887C64.8547 67.048 64.8547 67.2158 64.8118 67.3751L64.7245 67.3577ZM70.3073 71.8389C70.1556 71.8914 69.9967 71.9207 69.8362 71.9258C69.5035 71.8521 69.1967 71.6906 68.9481 71.4584C68.6995 71.2262 68.5182 70.9317 68.4231 70.6057L62.2821 54.4351H62.5612C64.8815 54.2614 64.9513 54.3135 65.7364 56.3804L66.6785 58.8642C68.0742 62.558 69.464 66.2577 70.8481 69.9631C71.1796 70.8315 70.8481 71.5263 70.22 71.8042L70.3073 71.8389ZM75.4538 67.0624H72.331C72.0868 67.0624 71.8425 66.7845 71.7553 66.5935C71.5634 66.1071 71.3715 65.6208 71.1796 65.0823L70.8655 64.2139H75.6632C75.7835 64.226 75.898 64.2714 75.9936 64.3451C76.0892 64.4188 76.1621 64.5178 76.204 64.6307C76.3436 65.1518 76.4657 65.6903 76.6053 66.2634L76.7797 67.0624H75.4538ZM82.7463 71.9084H80.0247L79.5886 70.0673C79.3443 68.9904 79.0826 67.9135 78.8384 66.8366L77.7916 62.3554C76.5529 57.0057 75.2619 51.4476 74.0407 45.9763C73.8947 45.1802 73.8362 44.3706 73.8663 43.562C73.8663 43.1972 73.8663 42.8151 73.8663 42.433V42.2072H75.9772V42.3635L82.7463 71.9084ZM73.9186 37.3438H83.0778V40.1055H73.9186V37.3438Z" fill="black"/>
</g>
<defs>
<clipPath id="clip0">
<rect width="97" height="75" fill="white"/>
</clipPath>
</defs>
</svg>
