<svg width="98" height="75" viewBox="0 0 98 75" fill="none" xmlns="http://www.w3.org/2000/svg">
<g clip-path="url(#clip0)">
<path d="M82.491 2.46643C81.5135 1.83634 80.4045 1.43143 79.2464 1.2818C78.0882 1.13217 76.9108 1.24166 75.8015 1.60214C74.6922 1.96261 73.6797 2.56481 72.839 3.36397C71.9984 4.16312 71.3514 5.13869 70.946 6.21816L69.5888 9.69199L68.7428 11.811L68.5136 11.5331C68.3551 11.3632 68.208 11.1833 68.073 10.9947C67.859 10.7059 67.617 10.4383 67.3503 10.1957C66.9461 9.878 66.6305 9.46423 66.4331 8.99328C66.2358 8.52233 66.1632 8.00967 66.2223 7.50348C66.2223 6.54818 66.2223 5.57551 66.2223 4.74179C66.2223 3.90807 65.8874 3.61279 65.0413 3.61279C60.7406 3.61279 56.2284 3.61279 51.8219 3.61279C50.9935 3.61279 50.6762 3.90807 50.6233 4.74179C50.6233 5.08917 50.6233 5.43655 50.6233 5.83604C50.6233 6.23553 50.6233 6.2529 50.6233 6.4787V6.80872L50.3061 6.65239C49.5614 6.27641 48.74 6.0717 47.9035 6.05365C47.067 6.0356 46.2372 6.20468 45.4766 6.54818L45.1769 6.66976V5.7492C45.1769 5.40181 45.1769 5.08917 45.1769 4.77652C45.1935 4.32618 45.1178 3.87716 44.9543 3.45631C44.7908 3.03545 44.5428 2.65141 44.2253 2.32713C43.9077 2.00286 43.5271 1.745 43.1061 1.56898C42.6851 1.39296 42.2324 1.3024 41.7751 1.30269C41.3122 1.31396 40.856 1.41501 40.4326 1.60007C40.0093 1.78514 39.6271 2.05059 39.3079 2.38125C38.9888 2.71192 38.7388 3.10133 38.5724 3.52722C38.406 3.95311 38.3264 4.40714 38.3381 4.86337C38.3205 5.19895 38.3205 5.5352 38.3381 5.87078V6.61765H38.0561C34.9892 5.85341 33.7554 6.07921 32.7683 7.59033C31.5697 9.44883 31.9223 11.0642 33.9492 12.9921L34.1079 13.1311L32.1514 15.1459L30.8118 12.8532L29.0492 13.8259L32.1161 19.4187V19.5229C32.0554 19.6314 31.9722 19.726 31.872 19.8008C31.7719 19.8756 31.6569 19.9289 31.5345 19.9572C31.3978 19.9526 31.2633 19.9211 31.1392 19.8644C31.0151 19.8077 30.9037 19.727 30.8118 19.6272C29.7719 18.6545 28.6967 17.6818 27.6215 16.7091L26.6697 15.858L25.2949 17.3344L26.2643 18.2202L29.3841 21.0341C29.5846 21.168 29.7231 21.3748 29.7694 21.6092C29.8156 21.8435 29.7658 22.0864 29.6309 22.2846C28.8989 23.5789 28.6672 25.0905 28.9787 26.5401C29.3544 28.0443 30.1478 29.4156 31.2701 30.5002C31.9371 31.2249 32.2857 32.1804 32.2395 33.1577C32.2395 38.3685 32.2395 43.7008 32.2395 48.79V49.919C32.2395 50.3706 32.2395 50.8048 32.2395 51.2738C32.2308 51.43 32.2308 51.5865 32.2395 51.7427H34.196V33.314L34.9892 33.8177L35.8 34.3388C36.7694 34.9641 36.928 34.9641 37.8622 34.3388L38.4791 33.9393L39.6248 33.1751C39.872 32.9716 40.1839 32.8601 40.5061 32.8601C40.8282 32.8601 41.1401 32.9716 41.3874 33.1751L42.392 33.8525L43.291 34.443C43.5397 34.6434 43.851 34.7528 44.1723 34.7528C44.4935 34.7528 44.8048 34.6434 45.0536 34.443L45.2827 34.2693C45.8988 33.828 46.5403 33.422 47.2039 33.0535C47.411 32.9587 47.6366 32.9096 47.8649 32.9096C48.0932 32.9096 48.3188 32.9587 48.5259 33.0535C49.2638 33.4373 49.9657 33.8848 50.6233 34.3909C50.8746 34.6217 51.2053 34.75 51.5487 34.75C51.8921 34.75 52.2228 34.6217 52.4741 34.3909L53.232 33.8525C53.5316 33.6441 53.8489 33.4356 54.1309 33.2098C54.4296 32.9413 54.8194 32.7925 55.2237 32.7925C55.628 32.7925 56.0178 32.9413 56.3165 33.2098L57.4798 34.0262L58.273 34.5473C58.473 34.7127 58.7257 34.8033 58.9868 34.8033C59.2479 34.8033 59.5007 34.7127 59.7007 34.5473L60.0708 34.2867C60.5644 33.9393 61.0755 33.5746 61.6043 33.2619C62.1331 32.9493 62.5384 32.7061 62.8557 32.8451C63.6547 33.1907 64.3925 33.6597 65.0413 34.2346C65.3586 34.5125 65.3586 35.1031 65.3586 35.572C65.3586 41.1996 65.3586 46.8272 65.3586 52.4549V71.8215H38.4262V73.7842H72.0741C72.9605 73.8735 73.8561 73.7674 74.6959 73.4736C75.5356 73.1799 76.2986 72.7058 76.9296 72.0857C77.5605 71.4656 78.0437 70.715 78.344 69.8883C78.6444 69.0615 78.7544 68.1793 78.6661 67.3055V32.1503C78.6661 32.0461 78.6661 31.9419 78.6661 31.8377C78.6486 31.6586 78.6486 31.4783 78.6661 31.2992C78.6573 31.1372 78.6573 30.9749 78.6661 30.8129C78.6443 30.3603 78.704 29.9075 78.8424 29.4755C80.7107 24.4558 82.6496 19.384 84.5356 14.4685L85.3992 12.1584C86.0008 10.6455 86.1596 8.99666 85.8575 7.39927C85.6611 6.39646 85.2618 5.44288 84.6834 4.5954C84.105 3.74791 83.3594 3.02387 82.491 2.46643ZM52.8795 5.73183H64.2658V8.40668H52.8795V5.73183ZM41.9338 31.0561C40.7 29.9965 39.8715 30.5871 38.9374 31.2819L38.7964 31.3861C37.8974 32.0287 37.4215 32.3587 36.9456 32.3587C36.4697 32.3587 35.9762 32.0461 35.0597 31.4208L34.1784 30.8129L33.4733 30.2918L36.7341 27.7907L35.5179 26.2274L32.3629 28.5549L32.2395 28.4507C31.6814 27.9663 31.2646 27.3439 31.0322 26.6477C30.7998 25.9515 30.7602 25.2068 30.9176 24.4905C31.0387 23.6753 31.3983 22.9126 31.9523 22.2956C32.5064 21.6787 33.231 21.2342 34.0374 21.0167C34.9631 20.7239 35.9636 20.76 36.8652 21.1185C37.7668 21.4771 38.5124 22.1355 38.9726 22.9794C39.8892 24.7163 40.7352 26.4532 41.546 28.2944L42.11 29.5276C42.2073 29.7647 42.2552 30.0187 42.251 30.2744C42.251 30.4481 42.251 30.6392 42.251 30.8476V31.3861L41.9338 31.0561ZM43.573 27.2348L43.3615 27.3738L42.6036 25.7932C42.1453 24.8379 41.7046 23.9 41.2816 22.962C40.8473 21.8836 40.1278 20.9394 39.1979 20.2277C38.268 19.5161 37.1617 19.0628 35.9938 18.915C35.4758 18.7805 35.0157 18.4846 34.6822 18.0714C34.3487 17.6583 34.1596 17.15 34.1431 16.6223C34.1559 16.3972 34.2215 16.1782 34.3347 15.9823C34.4478 15.7864 34.6055 15.6191 34.7953 15.4933C34.9938 15.3656 35.2197 15.2851 35.4552 15.2579C35.6907 15.2308 35.9294 15.2579 36.1525 15.337H36.2935C37.069 15.5975 37.5625 15.7365 37.9503 15.0938C38.3381 14.4511 37.9503 14.069 37.4392 13.4785L36.505 12.5405L34.7424 10.8036C34.4733 10.572 34.282 10.2652 34.1939 9.92401C34.1058 9.58279 34.1249 9.22324 34.2489 8.89301C34.3407 8.67383 34.4842 8.47934 34.6675 8.32564C34.8507 8.17195 35.0685 8.06346 35.3028 8.00914C35.537 7.95483 35.781 7.95625 36.0146 8.0133C36.2482 8.07034 36.4646 8.18137 36.646 8.3372C37.2659 8.88341 37.8543 9.46328 38.4086 10.0741C38.5548 10.283 38.7701 10.4353 39.0176 10.505C39.2652 10.5747 39.5297 10.5575 39.7658 10.4562C40.2064 10.2999 40.3827 9.9699 40.3827 9.27514C40.3827 7.90876 40.3827 6.5366 40.3827 5.15865C40.359 4.87774 40.392 4.59499 40.4797 4.3267C40.5675 4.05841 40.7082 3.80987 40.8938 3.59542C41.1473 3.37725 41.4739 3.25963 41.8104 3.26541C42.3215 3.26541 43.2028 3.52595 43.2028 5.19338C43.2028 6.57134 43.2028 7.9435 43.2028 9.30987C43.2028 9.88305 43.2028 10.2478 43.7492 10.4389C43.9841 10.5448 44.2488 10.5682 44.499 10.5049C44.7493 10.4417 44.9699 10.2958 45.1241 10.0915C45.741 9.44883 46.2345 8.97986 46.7104 8.54563C46.8403 8.38806 47.0022 8.25895 47.1857 8.16656C47.3692 8.07417 47.5702 8.02054 47.7759 8.0091C47.9817 7.99765 48.1875 8.02865 48.3804 8.1001C48.5733 8.17155 48.7489 8.28189 48.896 8.42405C49.0529 8.56866 49.178 8.74348 49.2635 8.93769C49.349 9.13189 49.3931 9.34134 49.3931 9.55304C49.3931 9.76474 49.349 9.97419 49.2635 10.1684C49.178 10.3626 49.0529 10.5374 48.896 10.682C47.7151 11.95 46.4813 13.2006 45.2298 14.4338C44.9565 14.6783 44.742 14.9798 44.6017 15.3163C44.4615 15.6528 44.3991 16.0159 44.419 16.3791C44.419 18.3592 44.419 20.3567 44.419 22.3541V25.2895C44.4684 25.6802 44.4074 26.0767 44.2425 26.4353C44.0777 26.7939 43.8155 27.1007 43.4848 27.3217L43.573 27.2348ZM54.9946 30.4655L54.2543 30.9692C53.5669 31.4382 52.8442 31.9245 52.1039 32.3587C51.9317 32.4443 51.7415 32.4888 51.5487 32.4888C51.3559 32.4888 51.1657 32.4443 50.9935 32.3587C50.2851 31.972 49.6127 31.5245 48.9841 31.0213C48.6906 30.736 48.2948 30.576 47.8825 30.576C47.4702 30.576 47.0744 30.736 46.7809 31.0213C46.2874 31.4034 45.741 31.7334 45.2298 32.0635L44.5072 32.5151L44.278 32.6714L44.1899 32.4108C44.0633 31.9239 44.0402 31.4164 44.1221 30.9202C44.204 30.424 44.3891 29.9499 44.6658 29.5276C45.4455 28.127 46.7477 27.0805 48.2967 26.6096C49.0267 26.4046 49.7908 26.3452 50.5444 26.4346C51.298 26.5241 52.0259 26.7607 52.6856 27.1306C53.2896 27.4547 53.821 27.8956 54.248 28.4268C54.6751 28.958 54.9889 29.5687 55.1708 30.2223V30.3613L54.9946 30.4655ZM57.9028 31.1429L57.4974 30.3613C54.6949 24.9421 52.6856 23.9 46.7809 24.8205H46.5341V16.7091H57.991L57.9028 31.1429ZM58.7841 14.3817C58.5887 14.5475 58.3368 14.6343 58.0791 14.6248H48.3143L48.6492 14.2775L49.5129 13.3395C50.1963 12.5511 50.9261 11.8029 51.6985 11.0989C52.2323 10.671 52.8965 10.4324 53.5845 10.4215C55.6291 10.4215 57.709 10.4215 59.7183 10.4215H61.6924C62.0449 10.4215 62.0802 10.5083 62.1154 10.5605V10.682L61.9744 10.8905L61.3751 11.5505L58.8723 14.2948L58.7841 14.3817ZM61.6924 30.4481C61.5546 30.756 61.3638 31.0381 61.1284 31.2819C61.0194 31.3835 60.9192 31.4939 60.8287 31.6119L60.7406 31.7335L60.2118 31.5077V31.0561C60.2118 30.8303 60.2118 30.6045 60.2118 30.3787V26.3838C60.2118 23.3094 60.2118 20.2524 60.2118 17.1781C60.1968 16.802 60.2646 16.4271 60.4107 16.0793C60.5567 15.7315 60.7775 15.419 61.0579 15.1633C62.0273 14.2427 62.9791 13.3048 63.9661 12.2974L65.2176 11.012L65.3762 10.8557L65.5349 11.012C65.7287 11.2378 65.9402 11.4463 66.1341 11.6547C66.6717 12.1689 67.1779 12.7141 67.65 13.2874C67.7634 13.4639 67.8349 13.6633 67.8593 13.8708C67.8838 14.0783 67.8604 14.2885 67.791 14.4859C65.764 19.8703 63.7194 25.2374 61.6924 30.4481ZM76.6215 67.9829C76.6557 68.9212 76.3179 69.8357 75.6796 70.5328C75.0413 71.2298 74.1528 71.6547 73.2021 71.7172C72.5147 71.7172 71.8449 71.7172 71.1575 71.7172H67.6323V71.2135C67.6323 70.9877 67.6323 70.7793 67.6323 70.5709V35.6068C67.5704 35.111 67.6959 34.6102 67.9848 34.1999C68.5814 33.7446 69.2185 33.3434 69.8885 33.0014L70.0647 32.8972C70.2762 32.793 70.5406 32.8972 70.8931 33.1404L71.1223 33.2793C71.7392 33.6614 72.3737 34.0609 72.8848 34.4951C73.1477 34.7307 73.4902 34.8612 73.8455 34.8612C74.2007 34.8612 74.5432 34.7307 74.8061 34.4951C75.0722 34.2822 75.3551 34.0906 75.6521 33.922L76.1809 33.5746L76.5158 33.3488V39.4627C76.5158 42.9366 76.5158 46.5667 76.5158 50.1274C76.5158 51.2564 76.5158 52.3854 76.5158 53.6012C76.5158 54.8171 76.5158 56.1892 76.5158 57.4919C76.5158 60.7747 76.5158 64.2659 76.3924 68.1566L76.6215 67.9829ZM83.8658 10.022C83.43 11.6086 82.9003 13.1687 82.2795 14.6943L81.7683 15.997C81.028 17.9771 80.2877 19.9572 79.5298 21.9372C78.4899 24.6816 77.3971 27.5301 76.3572 30.3265C75.9619 31.2228 75.2288 31.9328 74.3125 32.3066C74.2142 32.3309 74.1113 32.3309 74.0129 32.3066C73.7387 32.3003 73.4711 32.2224 73.2374 32.0808C72.7262 31.8029 72.2503 31.4555 71.7744 31.1429L71.2985 30.8303C70.2938 30.1529 70.1352 30.1529 69.0953 30.8303L68.5489 31.195C68.1051 31.5202 67.6399 31.8162 67.1564 32.0808C66.9605 32.1709 66.7469 32.2175 66.5307 32.2175C66.3145 32.2175 66.1009 32.1709 65.905 32.0808C63.7723 30.8303 63.737 30.6913 64.6183 28.3986L67.4384 20.9819L72.8848 6.94767C73.2906 5.88264 74.0116 4.96223 74.9544 4.30569C75.8972 3.64916 77.0184 3.28674 78.1726 3.26541C79.0681 3.24975 79.9551 3.43744 80.7651 3.81394C81.5751 4.19045 82.2863 4.74566 82.8435 5.43655C83.3607 6.07185 83.7233 6.81546 83.9036 7.61032C84.0839 8.40519 84.077 9.23018 83.8834 10.022" fill="#221F1F"/>
<path d="M32.1674 56.1198C31.3618 55.3278 30.3637 54.7523 29.2684 54.4483C28.173 54.1442 27.0169 54.1217 25.9102 54.3829C25.5486 54.519 25.1775 54.6293 24.7998 54.7129L24.2886 54.8345H24.0595V54.5913C23.6012 51.1175 21.9268 49.1721 19.4768 49.2937C19.4768 49.5021 19.4768 49.7106 19.4768 49.9364C19.4768 50.718 19.4768 51.1696 20.3581 51.4822C20.6651 51.5935 20.9462 51.7647 21.1846 51.9855C21.4229 52.2063 21.6136 52.4722 21.7453 52.7673C21.8769 53.0625 21.9468 53.3807 21.9507 53.7031C21.9546 54.0254 21.8925 54.3453 21.7681 54.6434V54.9039L21.5214 54.7824C20.6941 54.3248 19.7714 54.0602 18.8242 54.009C17.8769 53.9578 16.9304 54.1214 16.0573 54.4871C14.8278 54.9406 13.7737 55.7628 13.0433 56.8378C12.3129 57.9128 11.943 59.1864 11.9858 60.4794C12.0528 63.938 12.9852 67.3268 14.7001 70.3451C15.3427 71.532 16.4262 72.428 17.7239 72.8456C19.0215 73.2632 20.4328 73.1701 21.6624 72.5857C22.0477 72.4021 22.4683 72.3014 22.8962 72.2905C23.3187 72.2996 23.7339 72.4004 24.1124 72.5857C24.7252 72.9011 25.3958 73.0925 26.0848 73.1486C26.7738 73.2047 27.4672 73.1243 28.1242 72.9123C28.7812 72.7003 29.3885 72.3608 29.9103 71.914C30.4322 71.4671 30.858 70.9219 31.1627 70.3104C32.3527 68.1995 33.1412 65.892 33.4894 63.5017C33.8595 60.7747 34.0358 58.2909 32.1322 56.1198H32.1674ZM29.0652 69.7198C28.805 70.1574 28.4347 70.5214 27.9901 70.777C27.5456 71.0325 27.0417 71.1709 26.5271 71.1788C26.0248 71.1815 25.5313 71.0494 25.0994 70.7967C24.4392 70.3628 23.6633 70.1313 22.8697 70.1313C22.0761 70.1313 21.3003 70.3628 20.6401 70.7967C20.2715 70.9889 19.8667 71.1041 19.4509 71.1352C19.0352 71.1662 18.6174 71.1124 18.2237 70.9771C17.8299 70.8418 17.4688 70.6279 17.1628 70.3488C16.8567 70.0697 16.6124 69.7314 16.4451 69.3551C14.9988 66.8194 14.1946 63.9773 14.1009 61.07H13.8365V60.8616C13.8365 60.5489 14.0127 60.2363 14.0832 59.9063C14.2128 59.1574 14.469 58.4352 14.8411 57.7699C15.1219 57.3471 15.4929 56.9897 15.9282 56.7227C16.3635 56.4557 16.8527 56.2855 17.3617 56.224C17.9819 56.1262 18.6161 56.1576 19.2232 56.3161C19.8304 56.4747 20.3971 56.7569 20.8868 57.1446L21.5214 57.7177C21.6902 57.9045 21.8728 58.0787 22.0678 58.2388C22.6494 58.7252 22.9843 58.7078 23.6365 58.1346L23.9009 57.8914C24.5483 57.2451 25.306 56.716 26.1393 56.3282C26.7129 56.1027 27.3335 56.0181 27.9476 56.0817C28.5618 56.1452 29.151 56.355 29.6645 56.693C30.2571 57.0684 30.7471 57.5815 31.0913 58.1872C31.4355 58.7929 31.6235 59.4727 31.6386 60.1668C31.7595 63.5883 30.8453 66.9679 29.0124 69.8762" fill="#221F1F"/>
<path d="M82.1895 32.7756V69.5809" stroke="#221F1F" stroke-width="1.1" stroke-miterlimit="10"/>
</g>
<defs>
<clipPath id="clip0">
<rect width="98" height="75" fill="white"/>
</clipPath>
</defs>
</svg>
