<svg width="45" height="45" viewBox="0 0 45 45" fill="none" xmlns="http://www.w3.org/2000/svg">
<g clip-path="url(#clip0)">
<path d="M22.6029 0C22.5908 0 22.5667 0 22.5306 0C10.329 0 0.40625 9.92277 0.40625 22.1243C0.40625 27.1038 2.10626 31.9385 5.21693 35.8329L1.99775 43.3202C1.7325 43.9351 2.02187 44.6464 2.62471 44.8996C2.84173 44.9961 3.08287 45.0202 3.31195 44.984L15.1156 42.9103C17.4787 43.7663 19.9625 44.2003 22.4703 44.1883C34.6718 44.1883 44.5946 34.2655 44.5946 22.064C44.6187 9.89866 34.7683 0.0120568 22.6029 0ZM15.0312 17.6753H21.5419C22.205 17.6753 22.7476 18.2179 22.7476 18.881C22.7476 19.5441 22.205 20.0867 21.5419 20.0867H15.0312C14.3681 20.0867 13.8255 19.5441 13.8255 18.881C13.8255 18.2179 14.3681 17.6753 15.0312 17.6753ZM29.9817 26.1151H15.0312C14.3681 26.1151 13.8255 25.5725 13.8255 24.9094C13.8255 24.2463 14.3681 23.7037 15.0312 23.7037H29.9817C30.6448 23.7037 31.1874 24.2463 31.1874 24.9094C31.1874 25.5725 30.6448 26.1151 29.9817 26.1151Z" fill="black"/>
<path d="M1.99775 43.3202C1.7325 43.9351 2.02187 44.6464 2.62471 44.8996C2.84173 44.9961 3.08287 45.0202 3.31195 44.984L15.1156 42.9103C17.4787 43.7663 19.9625 44.2003 22.4703 44.1883C34.6718 44.1883 44.5946 34.2655 44.5946 22.064C44.6187 9.89866 34.7683 0.0120568 22.6029 0L1.99775 43.3202ZM1.99775 43.3202L5.21693 35.8329L1.99775 43.3202ZM22.6026 0.5H22.6026C34.4914 0.511912 44.1182 10.1739 44.0946 22.063V22.064C44.0946 33.9894 34.3957 43.6883 22.4703 43.6883L22.4679 43.6883C20.0196 43.7001 17.5943 43.2764 15.2859 42.4402L15.1605 42.3947L15.0291 42.4178L3.23015 44.4907C3.0875 44.5126 2.94663 44.4956 2.82778 44.4427L2.82782 44.4426L2.81833 44.4386C2.47395 44.294 2.30081 43.88 2.45686 43.5182L2.4571 43.5177L5.67627 36.0304L5.79466 35.755L5.6076 35.5209C2.56742 31.7147 0.90625 26.9899 0.90625 22.1243C0.90625 10.1989 10.6052 0.5 22.5306 0.5H22.5308H22.531H22.5312H22.5314H22.5316H22.5318H22.532H22.5322H22.5325H22.5327H22.5329H22.5331H22.5333H22.5335H22.5337H22.5339H22.5341H22.5343H22.5345H22.5347H22.535H22.5352H22.5354H22.5356H22.5358H22.536H22.5362H22.5364H22.5366H22.5368H22.537H22.5372H22.5374H22.5376H22.5378H22.538H22.5382H22.5384H22.5386H22.5388H22.539H22.5392H22.5394H22.5396H22.5398H22.54H22.5402H22.5404H22.5406H22.5408H22.541H22.5412H22.5414H22.5416H22.5418H22.542H22.5422H22.5424H22.5426H22.5428H22.543H22.5432H22.5434H22.5436H22.5438H22.5439H22.5441H22.5443H22.5445H22.5447H22.5449H22.5451H22.5453H22.5455H22.5457H22.5459H22.5461H22.5463H22.5464H22.5466H22.5468H22.547H22.5472H22.5474H22.5476H22.5478H22.548H22.5481H22.5483H22.5485H22.5487H22.5489H22.5491H22.5493H22.5494H22.5496H22.5498H22.55H22.5502H22.5504H22.5506H22.5507H22.5509H22.5511H22.5513H22.5515H22.5517H22.5518H22.552H22.5522H22.5524H22.5526H22.5527H22.5529H22.5531H22.5533H22.5535H22.5536H22.5538H22.554H22.5542H22.5544H22.5545H22.5547H22.5549H22.5551H22.5553H22.5554H22.5556H22.5558H22.556H22.5561H22.5563H22.5565H22.5567H22.5568H22.557H22.5572H22.5574H22.5575H22.5577H22.5579H22.558H22.5582H22.5584H22.5586H22.5587H22.5589H22.5591H22.5592H22.5594H22.5596H22.5598H22.5599H22.5601H22.5603H22.5604H22.5606H22.5608H22.5609H22.5611H22.5613H22.5614H22.5616H22.5618H22.5619H22.5621H22.5623H22.5624H22.5626H22.5628H22.5629H22.5631H22.5633H22.5634H22.5636H22.5637H22.5639H22.5641H22.5642H22.5644H22.5646H22.5647H22.5649H22.565H22.5652H22.5654H22.5655H22.5657H22.5658H22.566H22.5662H22.5663H22.5665H22.5666H22.5668H22.567H22.5671H22.5673H22.5674H22.5676H22.5677H22.5679H22.5681H22.5682H22.5684H22.5685H22.5687H22.5688H22.569H22.5691H22.5693H22.5694H22.5696H22.5697H22.5699H22.5701H22.5702H22.5704H22.5705H22.5707H22.5708H22.571H22.5711H22.5713H22.5714H22.5716H22.5717H22.5719H22.572H22.5722H22.5723H22.5725H22.5726H22.5727H22.5729H22.573H22.5732H22.5733H22.5735H22.5736H22.5738H22.5739H22.5741H22.5742H22.5743H22.5745H22.5746H22.5748H22.5749H22.5751H22.5752H22.5753H22.5755H22.5756H22.5758H22.5759H22.5761H22.5762H22.5763H22.5765H22.5766H22.5768H22.5769H22.577H22.5772H22.5773H22.5774H22.5776H22.5777H22.5779H22.578H22.5781H22.5783H22.5784H22.5785H22.5787H22.5788H22.579H22.5791H22.5792H22.5794H22.5795H22.5796H22.5798H22.5799H22.58H22.5802H22.5803H22.5804H22.5805H22.5807H22.5808H22.5809H22.5811H22.5812H22.5813H22.5815H22.5816H22.5817H22.5819H22.582H22.5821H22.5822H22.5824H22.5825H22.5826H22.5827H22.5829H22.583H22.5831H22.5833H22.5834H22.5835H22.5836H22.5838H22.5839H22.584H22.5841H22.5843H22.5844H22.5845H22.5846H22.5847H22.5849H22.585H22.5851H22.5852H22.5854H22.5855H22.5856H22.5857H22.5858H22.586H22.5861H22.5862H22.5863H22.5864H22.5865H22.5867H22.5868H22.5869H22.587H22.5871H22.5873H22.5874H22.5875H22.5876H22.5877H22.5878H22.588H22.5881H22.5882H22.5883H22.5884H22.5885H22.5886H22.5887H22.5889H22.589H22.5891H22.5892H22.5893H22.5894H22.5895H22.5896H22.5898H22.5899H22.59H22.5901H22.5902H22.5903H22.5904H22.5905H22.5906H22.5907H22.5908H22.591H22.5911H22.5912H22.5913H22.5914H22.5915H22.5916H22.5917H22.5918H22.5919H22.592H22.5921H22.5922H22.5923H22.5924H22.5925H22.5926H22.5927H22.5928H22.593H22.5931H22.5932H22.5933H22.5934H22.5935H22.5936H22.5937H22.5938H22.5939H22.594H22.5941H22.5942H22.5943H22.5944H22.5945H22.5946H22.5947H22.5948H22.5948H22.5949H22.595H22.5951H22.5952H22.5953H22.5954H22.5955H22.5956H22.5957H22.5958H22.5959H22.596H22.5961H22.5962H22.5963H22.5964H22.5965H22.5966H22.5966H22.5967H22.5968H22.5969H22.597H22.5971H22.5972H22.5973H22.5974H22.5975H22.5975H22.5976H22.5977H22.5978H22.5979H22.598H22.5981H22.5982H22.5983H22.5983H22.5984H22.5985H22.5986H22.5987H22.5988H22.5989H22.5989H22.599H22.5991H22.5992H22.5993H22.5994H22.5994H22.5995H22.5996H22.5997H22.5998H22.5999H22.5999H22.6H22.6001H22.6002H22.6003H22.6003H22.6004H22.6005H22.6006H22.6007H22.6007H22.6008H22.6009H22.601H22.601H22.6011H22.6012H22.6013H22.6014H22.6014H22.6015H22.6016H22.6017H22.6017H22.6018H22.6019H22.602H22.602H22.6021H22.6022H22.6023H22.6023H22.6024H22.6025H22.6025H22.6026ZM21.5419 17.1753H15.0312C14.0919 17.1753 13.3255 17.9417 13.3255 18.881C13.3255 19.8203 14.0919 20.5867 15.0312 20.5867H21.5419C22.4812 20.5867 23.2476 19.8203 23.2476 18.881C23.2476 17.9417 22.4812 17.1753 21.5419 17.1753ZM15.0312 26.6151H29.9817C30.921 26.6151 31.6874 25.8487 31.6874 24.9094C31.6874 23.9701 30.921 23.2037 29.9817 23.2037H15.0312C14.0919 23.2037 13.3255 23.9701 13.3255 24.9094C13.3255 25.8487 14.0919 26.6151 15.0312 26.6151Z" stroke="white" stroke-opacity="0.7"/>
</g>
<defs>
<clipPath id="clip0">
<rect width="45" height="45" fill="white"/>
</clipPath>
</defs>
</svg>
