<svg width="24" height="23" viewBox="0 0 24 23" fill="none" xmlns="http://www.w3.org/2000/svg">
<path d="M16.1563 2C16.0826 2 9.03125 2 9.03125 2C7.77486 2 6.65626 3.15248 6.65626 4.37501L5.96988 4.39104C4.71409 4.39104 3.6875 5.52746 3.6875 6.75V18.625C3.6875 19.8475 4.80613 21 6.06251 21H14.9688C16.2251 21 17.3438 19.8475 17.3438 18.625H17.9375C19.1939 18.625 20.3125 17.4726 20.3125 16.25V6.76426L16.1563 2ZM14.9688 19.8125H6.06251C5.43908 19.8125 4.87502 19.2301 4.87502 18.625V6.75C4.87502 6.14498 5.38268 5.58209 6.00612 5.58209L6.65626 5.56251V16.25C6.65626 17.4726 7.77486 18.625 9.03125 18.625H16.1563C16.1563 19.2301 15.5922 19.8125 14.9688 19.8125ZM19.125 16.25C19.125 16.855 18.5609 17.4375 17.9375 17.4375H9.03125C8.40781 17.4375 7.84375 16.855 7.84375 16.25V4.37501C7.84375 3.76999 8.40781 3.18752 9.03125 3.18752H14.9688C14.9592 4.55493 14.9688 5.57737 14.9688 5.57737C14.9688 6.81118 16.0791 7.93752 17.3438 7.93752C17.3438 7.93752 17.9743 7.93752 19.125 7.93752V16.25ZM17.3438 6.75C16.7114 6.75 16.1563 5.60111 16.1563 4.98479C16.1563 4.98479 16.1563 4.36015 16.1563 3.20591V3.20472L19.125 6.75H17.3438ZM16.1563 10.3232H10.8125C10.4848 10.3232 10.2188 10.5886 10.2188 10.9164C10.2188 11.2441 10.4848 11.5095 10.8125 11.5095H16.1563C16.484 11.5095 16.75 11.2441 16.75 10.9164C16.75 10.5886 16.484 10.3232 16.1563 10.3232ZM16.1563 13.289H10.8125C10.4848 13.289 10.2188 13.5544 10.2188 13.8821C10.2188 14.2099 10.4848 14.4753 10.8125 14.4753H16.1563C16.484 14.4753 16.75 14.2099 16.75 13.8821C16.75 13.5544 16.484 13.289 16.1563 13.289Z" fill="black"/>
</svg>
