<svg width="19" height="19" viewBox="0 0 19 19" fill="none" xmlns="http://www.w3.org/2000/svg">
<g clip-path="url(#clip0)">
<path d="M17 2.375H2.00001C1.17271 2.375 0.5 3.08509 0.5 3.95835V15.0417C0.5 15.9149 1.17271 16.625 2.00001 16.625H17C17.8273 16.625 18.5 15.9149 18.5 15.0417V3.95835C18.5 3.08509 17.8273 2.375 17 2.375ZM2.00001 3.16665H17C17.0553 3.16665 17.104 3.18792 17.1558 3.19994C15.8572 4.4545 11.5511 8.61268 10.0442 10.0458C9.9263 10.1579 9.73625 10.2917 9.50004 10.2917C9.26382 10.2917 9.07377 10.1579 8.95547 10.0454C7.4487 8.61253 3.14238 4.45413 1.84395 3.20002C1.89591 3.18799 1.94471 3.16665 2.00001 3.16665ZM1.24999 15.0417V3.95835C1.24999 3.88079 1.27214 3.81043 1.29196 3.73955C2.2859 4.69979 5.2905 7.60115 7.23871 9.4712C5.29682 11.2319 2.29146 14.2396 1.28961 15.248C1.27193 15.1807 1.24999 15.1148 1.24999 15.0417ZM17 15.8333H2.00001C1.94011 15.8333 1.88684 15.8113 1.83091 15.7972C2.86616 14.7555 5.89065 11.7305 7.7984 10.0078C8.0471 10.2459 8.27428 10.4631 8.45336 10.6334C8.76246 10.928 9.12425 11.0833 9.5 11.0833C9.87575 11.0833 10.2375 10.9279 10.5463 10.6338C10.7254 10.4634 10.9528 10.246 11.2016 10.0078C13.1095 11.7303 16.1335 14.7551 17.1691 15.7972C17.1132 15.8113 17.06 15.8333 17 15.8333ZM17.75 15.0417C17.75 15.1148 17.7281 15.1807 17.7104 15.248C16.7082 14.2391 13.7032 11.2317 11.7613 9.47124C13.7096 7.60119 16.7137 4.70009 17.708 3.73947C17.7279 3.81035 17.75 3.88075 17.75 3.95831V15.0417Z" fill="black"/>
</g>
<defs>
<clipPath id="clip0">
<rect width="18" height="19" fill="white" transform="translate(0.5)"/>
</clipPath>
</defs>
</svg>
