<svg width="63" height="525" viewBox="0 0 63 525" fill="none" xmlns="http://www.w3.org/2000/svg">
<path opacity="0.1" d="M4.20019 497.663L57.4002 525L57.4002 512.367L45.9928 506.465L45.9928 473.536L57.4002 467.633L57.4002 455L4.20019 482.234L4.20019 497.663ZM35.7261 501.391L13.8447 490.207L35.7261 478.92L35.7261 501.391Z" fill="white"/>
<path opacity="0.1" d="M-2.56672e-06 399.08L39.0247 421.4L-6.15466e-07 443.72L0 457.8L63 421.4L-3.18219e-06 385L-2.56672e-06 399.08Z" fill="white"/>
<path opacity="0.1" d="M4.20019 360.503L57.4002 387.8L57.4002 375.186L45.9928 369.292L45.9928 336.308L57.4002 330.415L57.4002 317.8L4.20019 344.994L4.20019 360.503ZM35.7261 364.122L13.8447 352.955L35.7261 341.685L35.7261 364.122Z" fill="white"/>
<path opacity="0.1" d="M15.8663 287L15.8663 262.94L58.7996 262.94L58.7996 250.758L15.8663 250.758L15.8663 226.8L5.59961 226.8L5.59961 287L15.8663 287Z" fill="white"/>
<path opacity="0.1" d="M36.9181 198.931L36.9181 169.149L26.6515 169.149L26.6515 198.931L15.8663 198.931L15.8663 155.958L5.59961 155.958L5.59961 211.4L58.7996 211.4L58.7996 154L48.5329 154L48.5329 198.931L36.9181 198.931Z" fill="white"/>
<path opacity="0.1" d="M17.988 125.5C14.6817 121.508 13.0286 116.256 13.0286 109.847C13.0286 101.023 16.2315 93.4591 22.6374 87.1559L18.5046 75.6C8.06919 83.8992 2.7998 94.9298 2.7998 108.797C2.7998 119.407 5.69282 128.232 11.4788 135.165C16.5415 141.153 22.9474 144.2 30.6965 144.2C35.1393 144.2 39.2721 143.149 42.9917 141.153C46.8146 139.052 49.7075 136.321 51.9806 132.854C56.5267 125.605 58.7998 117.411 58.7998 108.377C58.7998 101.548 57.6633 95.5602 55.3902 90.5176C53.1172 85.37 49.5009 80.7476 44.5415 76.3354L38.6522 87.0508C45.2647 93.0389 48.571 100.288 48.571 108.902C48.571 115.73 46.9179 121.298 43.6116 125.395C40.3053 129.492 35.9658 131.594 30.6965 131.594C25.6337 131.594 21.2943 129.492 17.988 125.5Z" fill="white"/>
<path opacity="0.1" d="M4.20019 12.4435L23.5646 12.4435L23.5646 49.2595L4.20019 49.2595L4.2002 61.6001L57.4002 61.6001L57.4002 49.2595L34.4961 49.2595L34.4961 12.4435L57.4002 12.4435L57.4002 0.000108301L4.20019 0.000110626L4.20019 12.4435Z" fill="white"/>
</svg>
