<svg width="78" height="10" viewBox="0 0 78 10" fill="none" xmlns="http://www.w3.org/2000/svg">
<path d="M4.08247 0.231934L0 8.15236H1.8866L2.76804 6.45403H7.68557L8.56701 8.15236H10.4536L6.3866 0.231934H4.08247ZM3.52577 4.92552L5.19588 1.6678L6.88144 4.92552H3.52577Z" fill="white"/>
<path d="M18.7111 0.231934L15.4018 6.03716L12.0925 0.231934H10.0049L15.4018 9.60367L20.7987 0.231934H18.7111Z" fill="white"/>
<path d="M24.5258 0.231934L20.4434 8.15236H22.33L23.2114 6.45403H28.1444L29.0258 8.15236H30.9124L26.8454 0.231934H24.5258ZM23.9846 4.92552L25.6547 1.6678L27.3403 4.92552H23.9846Z" fill="white"/>
<path d="M35.2881 1.76044H38.953V8.15236H40.8087V1.76044H44.4582V0.231934H35.2881V1.76044Z" fill="white"/>
<path d="M48.5723 4.89464H53.0414V3.36614H48.5723V1.76044H55.0208V0.231934H46.7012V8.15236H55.3146V6.62386H48.5723V4.89464Z" fill="white"/>
<path d="M59.4586 2.2696C60.0463 1.77554 60.8195 1.52851 61.7628 1.52851C63.0617 1.52851 64.1751 2.00713 65.103 2.96437L66.804 2.3468C65.5823 0.787413 63.9586 0 61.9174 0C60.3555 0 59.0566 0.432308 58.0359 1.29692C57.1545 2.05345 56.7061 3.01069 56.7061 4.16865C56.7061 4.83254 56.8607 5.45012 57.1545 6.00594C57.4638 6.5772 57.8658 7.0095 58.3762 7.34917C59.4432 8.02851 60.6493 8.36818 61.9792 8.36818C62.9844 8.36818 63.8658 8.19834 64.6081 7.85868C65.3658 7.51901 66.0463 6.97863 66.6957 6.23754L65.1184 5.35749C64.237 6.34561 63.17 6.83967 61.9019 6.83967C60.8968 6.83967 60.0772 6.59264 59.4741 6.09858C58.871 5.60451 58.5617 4.95606 58.5617 4.16865C58.5617 3.41211 58.871 2.76366 59.4586 2.2696Z" fill="white"/>
<path d="M76.1291 0.24707V3.11881H70.593V0.24707H68.7373V8.13662H70.593V4.73995H76.1291V8.13662H78.0002V0.24707H76.1291Z" fill="white"/>
</svg>
