<svg width="78" height="65" viewBox="0 0 78 65" fill="none" xmlns="http://www.w3.org/2000/svg">
<path d="M4.08247 55.6284L0 63.5488H1.8866L2.76804 61.8505H7.68557L8.56701 63.5488H10.4536L6.3866 55.6284H4.08247ZM3.52577 60.322L5.19588 57.0643L6.88144 60.322H3.52577Z" fill="white"/>
<path d="M18.7111 55.6284L15.4018 61.4336L12.0925 55.6284H10.0049L15.4018 65.0002L20.7987 55.6284H18.7111Z" fill="white"/>
<path d="M24.5258 55.6284L20.4434 63.5488H22.33L23.2114 61.8505H28.1444L29.0258 63.5488H30.9124L26.8454 55.6284H24.5258ZM23.9846 60.322L25.6547 57.0643L27.3403 60.322H23.9846Z" fill="white"/>
<path d="M35.2886 57.1569H38.9535V63.5488H40.8092V57.1569H44.4587V55.6284H35.2886V57.1569Z" fill="white"/>
<path d="M48.5723 60.2911H53.0414V58.7626H48.5723V57.1569H55.0208V55.6284H46.7012V63.5488H55.3146V62.0203H48.5723V60.2911Z" fill="white"/>
<path d="M59.4586 57.6661C60.0463 57.172 60.8195 56.925 61.7628 56.925C63.0617 56.925 64.1751 57.4036 65.103 58.3609L66.804 57.7433C65.5823 56.1839 63.9586 55.3965 61.9174 55.3965C60.3555 55.3965 59.0566 55.8288 58.0359 56.6934C57.1545 57.4499 56.7061 58.4072 56.7061 59.5651C56.7061 60.229 56.8607 60.8466 57.1545 61.4024C57.4638 61.9737 57.8658 62.406 58.3762 62.7457C59.4432 63.425 60.6493 63.7647 61.9792 63.7647C62.9844 63.7647 63.8658 63.5948 64.6081 63.2552C65.3658 62.9155 66.0463 62.3751 66.6957 61.634L65.1184 60.754C64.237 61.7421 63.17 62.2362 61.9019 62.2362C60.8968 62.2362 60.0772 61.9891 59.4741 61.4951C58.871 61.001 58.5617 60.3525 58.5617 59.5651C58.5617 58.8086 58.871 58.1601 59.4586 57.6661Z" fill="white"/>
<path d="M76.1291 55.6436V58.5153H70.593V55.6436H68.7373V63.5331H70.593V60.1364H76.1291V63.5331H78.0002V55.6436H76.1291Z" fill="white"/>
<path d="M58.2063 30.601L38.9537 0L19.7012 30.601L20.0878 31.3112C21.5414 34.3219 23.7527 36.6841 26.6599 38.367C29.5517 40.0344 33.1084 40.9762 37.2373 41.177L38.9228 44.6045L40.6239 41.177C44.6754 40.9608 48.2321 39.9264 51.2321 38.1045C52.6857 37.209 54.0311 36.1283 55.1909 34.8931C56.2115 33.7969 57.1239 32.5618 57.897 31.2185H57.8816L58.2063 30.601ZM40.1135 5.9133L49.6857 21.1983H40.1135V5.9133ZM46.7785 23.4834L43.7785 29.5356H34.0672L31.0981 23.4834H46.7785ZM37.7785 5.92874V21.1829H28.2218L37.7785 5.92874ZM27.7733 21.8931L31.5156 29.5356H22.9795L27.7733 21.8931ZM27.8197 36.329C25.794 35.171 24.1702 33.6116 22.9641 31.6817H32.5826L36.0465 38.7375C32.8455 38.4442 30.0775 37.6413 27.8197 36.329ZM38.9383 39.4169L35.1342 31.6817H42.7269L38.9383 39.4169ZM41.8146 38.7221L45.294 31.6817H54.7888C52.4692 34.8468 48.5105 38.0119 41.8146 38.7221ZM46.3455 29.5356L50.1342 21.8777L54.928 29.5356H46.3455Z" fill="white"/>
<path d="M51.6803 12.7377C51.7576 12.645 51.804 12.5369 51.804 12.398C51.804 12.1046 51.5721 11.873 51.2783 11.873H50.2886V13.7103H51.3556C51.6649 13.7103 51.8968 13.4633 51.8968 13.17C51.8968 12.9847 51.804 12.8303 51.6803 12.7377ZM50.5669 12.1664H51.2628C51.3865 12.1664 51.4948 12.2745 51.4948 12.398C51.4948 12.5215 51.3865 12.6296 51.2628 12.6296H50.5669V12.1664ZM51.3556 13.4324H50.5824V12.9229H51.3556C51.4948 12.9229 51.6185 13.031 51.6185 13.1854C51.603 13.3089 51.4948 13.4324 51.3556 13.4324Z" fill="white"/>
<path d="M50.9847 11.1475C50.0723 11.1475 49.3301 11.8886 49.3301 12.7995C49.3301 13.7104 50.0723 14.4515 50.9847 14.4515C51.8971 14.4515 52.6394 13.7104 52.6394 12.7995C52.6394 11.8886 51.8971 11.1475 50.9847 11.1475ZM50.9847 14.1736C50.227 14.1736 49.6239 13.556 49.6239 12.8149C49.6239 12.0584 50.2424 11.4562 50.9847 11.4562C51.7424 11.4562 52.3455 12.0738 52.3455 12.8149C52.3455 13.556 51.727 14.1736 50.9847 14.1736Z" fill="white"/>
</svg>
