<svg width="39" height="45" viewBox="0 0 39 45" fill="none" xmlns="http://www.w3.org/2000/svg">
<path d="M38.5052 30.601L19.2526 0L0 30.601L0.386597 31.3112C1.84021 34.3219 4.05155 36.6841 6.95876 38.367C9.85052 40.0344 13.4072 40.9762 17.5361 41.177L19.2216 44.6045L20.9227 41.177C24.9742 40.9608 28.5309 39.9264 31.5309 38.1045C32.9845 37.209 34.3299 36.1283 35.4897 34.8931C36.5103 33.7969 37.4227 32.5618 38.1959 31.2185H38.1804L38.5052 30.601ZM20.4124 5.9133L29.9845 21.1983H20.4124V5.9133ZM27.0773 23.4834L24.0773 29.5356H14.366L11.3969 23.4834H27.0773ZM18.0773 5.92874V21.1829H8.52062L18.0773 5.92874ZM8.07217 21.8931L11.8144 29.5356H3.27835L8.07217 21.8931ZM8.11856 36.329C6.09278 35.171 4.46907 33.6116 3.26289 31.6817H12.8814L16.3454 38.7375C13.1443 38.4442 10.3763 37.6413 8.11856 36.329ZM19.2371 39.4169L15.433 31.6817H23.0258L19.2371 39.4169ZM22.1134 38.7221L25.5928 31.6817H35.0876C32.768 34.8468 28.8093 38.0119 22.1134 38.7221ZM26.6443 29.5356L30.433 21.8777L35.2268 29.5356H26.6443Z" fill="white"/>
<path d="M31.9792 12.7377C32.0565 12.645 32.1029 12.5369 32.1029 12.398C32.1029 12.1046 31.8709 11.873 31.5771 11.873H30.5874V13.7103H31.6544C31.9637 13.7103 32.1956 13.4633 32.1956 13.17C32.1956 12.9847 32.1029 12.8303 31.9792 12.7377ZM30.8658 12.1664H31.5616C31.6853 12.1664 31.7936 12.2745 31.7936 12.398C31.7936 12.5215 31.6853 12.6296 31.5616 12.6296H30.8658V12.1664ZM31.6544 13.4324H30.8812V12.9229H31.6544C31.7936 12.9229 31.9173 13.031 31.9173 13.1854C31.9018 13.3089 31.7936 13.4324 31.6544 13.4324Z" fill="white"/>
<path d="M31.2835 11.1475C30.3712 11.1475 29.6289 11.8886 29.6289 12.7995C29.6289 13.7104 30.3712 14.4515 31.2835 14.4515C32.1959 14.4515 32.9382 13.7104 32.9382 12.7995C32.9382 11.8886 32.1959 11.1475 31.2835 11.1475ZM31.2835 14.1736C30.5258 14.1736 29.9227 13.556 29.9227 12.8149C29.9227 12.0584 30.5413 11.4562 31.2835 11.4562C32.0413 11.4562 32.6444 12.0738 32.6444 12.8149C32.6444 13.556 32.0258 14.1736 31.2835 14.1736Z" fill="white"/>
</svg>
