<svg width="26" height="28" viewBox="0 0 26 28" fill="none" xmlns="http://www.w3.org/2000/svg">
<path d="M20.0016 25.253C20.6587 25.2557 21.3132 25.1702 21.9476 24.9987L21.9498 24.9981C22.7247 24.7809 23.3854 24.272 23.7933 23.5783C23.7935 23.5779 23.7937 23.5775 23.794 23.5771L25.0143 21.549C25.0143 21.5489 25.0143 21.5489 25.0143 21.5489C25.4723 20.7878 25.2505 19.8011 24.5108 19.3093L19.6525 16.0694L19.6517 16.0689C18.9264 15.5891 17.9542 15.7469 17.418 16.4316L17.4175 16.4323L16.0022 18.252L16.0022 18.252L16.0004 18.2544C15.8937 18.3951 15.6997 18.4359 15.5453 18.3501L15.5446 18.3497L15.2754 18.2013L15.2744 18.2008L15.2674 18.1969C14.3946 17.7212 13.304 17.1268 11.0913 14.9134C8.87939 12.7006 8.28331 11.609 7.80764 10.7379L7.80336 10.7301L7.80315 10.7297L7.65554 10.4605L7.65555 10.4605L7.65415 10.458C7.56715 10.3035 7.60721 10.1086 7.74812 10.0009L7.74812 10.0009L7.74984 9.99956L9.5683 8.58471L9.56897 8.58418C10.2533 8.04798 10.4114 7.07614 9.93221 6.3507L9.9316 6.34978L6.69165 1.49144C6.69163 1.49142 6.69161 1.49139 6.6916 1.49137C6.20006 0.752074 5.21399 0.530151 4.45309 0.987503C4.45307 0.987516 4.45305 0.98753 4.45303 0.987543L2.42237 2.20736C1.72885 2.61545 1.22005 3.276 1.00258 4.05077L1.00257 4.05076L1.00219 4.05216C0.236878 6.84067 0.853612 11.5298 7.66241 18.3394L7.66242 18.3394C13.0774 23.7539 17.1505 25.2527 20.0016 25.253ZM20.0016 25.253C20.0014 25.253 20.0013 25.253 20.0011 25.253L20.0022 25.003V25.253C20.002 25.253 20.0018 25.253 20.0016 25.253ZM23.8967 20.8805L23.8964 20.881L22.6775 22.9127L22.6775 22.9127L22.6761 22.9152C22.4395 23.32 22.0556 23.6177 21.6047 23.7461C19.2695 24.3868 15.0592 23.8971 8.58197 17.4198C2.10483 10.9427 1.6151 6.73278 2.2557 4.39725C2.3843 3.94564 2.68248 3.56112 3.08791 3.32414L3.08792 3.32416L3.09036 3.32269L5.12207 2.10383L5.12235 2.10366C5.28825 2.00384 5.50332 2.05223 5.61049 2.21344L5.61062 2.21363L7.37072 4.85615L7.37078 4.85624L8.84755 7.07116C8.84764 7.07129 8.84772 7.07142 8.84781 7.07155C8.95248 7.23027 8.91804 7.44279 8.76853 7.56034C8.76842 7.56043 8.7683 7.56052 8.76819 7.56061L6.95088 8.97423C6.29949 9.47298 6.11341 10.3745 6.51422 11.0904C6.51439 11.0907 6.51456 11.091 6.51473 11.0913L6.65773 11.3512C6.6578 11.3513 6.65788 11.3514 6.65795 11.3516C7.17907 12.3073 7.82862 13.4937 10.1678 15.8325L10.3446 15.6557L10.1678 15.8325C12.5069 18.1711 13.6929 18.8208 14.6481 19.3418C14.6483 19.3419 14.6485 19.342 14.6487 19.3421L14.9089 19.4855C14.9092 19.4857 14.9095 19.4858 14.9098 19.486C15.6256 19.8868 16.5272 19.7008 17.026 19.0494C17.0262 19.0491 17.0265 19.0488 17.0267 19.0485L18.4396 17.2322C18.4397 17.232 18.4398 17.2319 18.4399 17.2318C18.5574 17.0825 18.7698 17.0479 18.9287 17.1524C18.9289 17.1525 18.9291 17.1527 18.9292 17.1528L23.7865 20.3923L23.787 20.3926C23.9482 20.4997 23.9966 20.7147 23.8967 20.8805Z" fill="white" stroke="white" stroke-width="0.5"/>
<path d="M22.4491 11.801V11.8008C22.4443 7.46725 18.9325 3.95543 14.599 3.95068H14.5987C14.2397 3.95068 13.9487 4.24168 13.9487 4.60069C13.9487 4.9596 14.2396 5.25054 14.5985 5.25069C18.2146 5.25471 21.145 8.18519 21.1491 11.8013C21.1492 12.1602 21.4402 12.451 21.7991 12.451C22.1581 12.451 22.4491 12.16 22.4491 11.801Z" fill="white" stroke="white" stroke-width="0.5"/>
<path d="M20.049 11.8013V11.801C20.0455 8.79251 17.6075 6.35451 14.599 6.35107H14.5987C14.2397 6.35107 13.9487 6.64207 13.9487 7.00108C13.9487 7.35999 14.2396 7.65092 14.5984 7.65108C16.8896 7.65378 18.7463 9.51045 18.749 11.8016C18.7491 12.1605 19.0401 12.4513 19.399 12.4513C19.758 12.4513 20.049 12.1603 20.049 11.8013Z" fill="white" stroke="white" stroke-width="0.5"/>
<path d="M17.6482 11.8003L17.6482 11.8005C17.6482 12.1595 17.3572 12.4505 16.9983 12.4505C16.6395 12.4505 16.3485 12.1596 16.3484 11.8007M17.6482 11.8003L16.5984 11.8005M17.6482 11.8003C17.6463 10.117 16.2822 8.75287 14.5989 8.75098H14.5987C14.2397 8.75098 13.9487 9.04194 13.9487 9.4009C13.9487 9.75976 14.2395 10.0507 14.5984 10.0508M17.6482 11.8003L14.5987 9.80083M16.3484 11.8007C16.3484 11.8007 16.3484 11.8006 16.3484 11.8005H16.5984M16.3484 11.8007C16.3484 11.8008 16.3484 11.8008 16.3484 11.8009L16.5984 11.8005M16.3484 11.8007C16.3471 10.8347 15.5643 10.052 14.5984 10.0508M16.5984 11.8005C16.597 10.6967 15.7025 9.80214 14.5987 9.80083M14.5984 10.0508C14.5985 10.0508 14.5986 10.0508 14.5987 10.0508V9.80083M14.5984 10.0508L14.5987 9.80083" fill="white" stroke="white" stroke-width="0.5"/>
</svg>
