<svg width="14" height="14" viewBox="0 0 14 14" fill="none" xmlns="http://www.w3.org/2000/svg">
<g opacity="0.77">
<path d="M10.1406 8.28125C9.44603 8.28125 8.82885 8.6188 8.44427 9.13838L5.13325 7.44631C5.1888 7.25759 5.21875 7.05802 5.21875 6.85156C5.21875 6.57193 5.16393 6.30491 5.06467 6.06048L8.53483 3.97552C8.92202 4.42998 9.4982 4.71875 10.1406 4.71875C11.3037 4.71875 12.25 3.77248 12.25 2.60938C12.25 1.44627 11.3037 0.5 10.1406 0.5C8.97752 0.5 8.03125 1.44627 8.03125 2.60938C8.03125 2.8782 8.0819 3.13538 8.17398 3.37203L4.69516 5.46219C4.30825 5.02114 3.7408 4.74219 3.10938 4.74219C1.94627 4.74219 1 5.68845 1 6.85156C1 8.01467 1.94627 8.96094 3.10938 8.96094C3.81536 8.96094 4.44138 8.61228 4.82446 8.07814L8.12587 9.76529C8.06439 9.96296 8.03125 10.173 8.03125 10.3906C8.03125 11.5537 8.97752 12.5 10.1406 12.5C11.3037 12.5 12.25 11.5537 12.25 10.3906C12.25 9.22752 11.3037 8.28125 10.1406 8.28125ZM10.1406 1.20312C10.916 1.20312 11.5469 1.83397 11.5469 2.60938C11.5469 3.38478 10.916 4.01562 10.1406 4.01562C9.36522 4.01562 8.73438 3.38478 8.73438 2.60938C8.73438 1.83397 9.36522 1.20312 10.1406 1.20312ZM3.10938 8.25781C2.33397 8.25781 1.70312 7.62697 1.70312 6.85156C1.70312 6.07616 2.33397 5.44531 3.10938 5.44531C3.88478 5.44531 4.51562 6.07616 4.51562 6.85156C4.51562 7.62697 3.88478 8.25781 3.10938 8.25781ZM10.1406 11.7969C9.36522 11.7969 8.73438 11.166 8.73438 10.3906C8.73438 9.61522 9.36522 8.98438 10.1406 8.98438C10.916 8.98438 11.5469 9.61522 11.5469 10.3906C11.5469 11.166 10.916 11.7969 10.1406 11.7969Z" fill="black"/>
</g>
</svg>
