<svg width="35" height="31" viewBox="0 0 35 31" fill="none" xmlns="http://www.w3.org/2000/svg">
<path d="M0.618204 14.8644L8.68292 17.9264L11.8045 28.1387C12.0042 28.7928 12.7904 29.0345 13.3123 28.6005L17.8077 24.8724C18.2789 24.4819 18.9501 24.4624 19.4425 24.826L27.5506 30.8144C28.1089 31.2272 28.8998 30.916 29.0398 30.2298L34.9794 1.1654C35.1322 0.415801 34.4082 -0.209539 33.7065 0.0665175L0.608754 13.0553C-0.20803 13.3757 -0.200914 14.5521 0.618204 14.8644ZM11.3014 16.2964L27.0628 6.42116C27.3461 6.2442 27.6375 6.63384 27.3943 6.86337L14.3865 19.1637C13.9293 19.5966 13.6344 20.176 13.5508 20.8049L13.1077 24.1454C13.0491 24.5914 12.4332 24.6357 12.3122 24.204L10.608 18.1126C10.4129 17.4179 10.6973 16.6757 11.3014 16.2964Z" fill="white"/>
</svg>
