<svg width="18" height="19" viewBox="0 0 18 19" fill="none" xmlns="http://www.w3.org/2000/svg">
<path d="M7.12817 7.01872C7.32836 6.87047 7.46152 6.64785 7.49836 6.40011C7.53521 6.15245 7.4724 5.90021 7.32406 5.69943L6.34022 4.36673C6.22474 4.21029 6.05157 4.10769 5.8599 4.082C5.66823 4.05631 5.47421 4.10958 5.3223 4.23009C5.14093 4.37401 4.93782 4.53469 4.74566 4.68556C4.27264 5.05701 4.09412 5.69403 4.30348 6.26045C5.45822 9.38469 7.88585 11.8623 10.9644 13.0665C11.5976 13.3142 12.3163 13.058 12.6526 12.4631L13.0306 11.7942C13.2163 11.4655 13.119 11.048 12.8076 10.8371L11.6037 10.0215C11.3933 9.87902 11.1344 9.82912 10.8867 9.88295C10.639 9.93687 10.4231 10.0899 10.2898 10.3074C10.2504 10.3716 10.2124 10.4339 10.1768 10.4919C10.1272 10.573 10.0472 10.6304 9.95504 10.6511C9.86286 10.6718 9.76621 10.6541 9.68717 10.6019C8.53292 9.83975 7.54681 8.84388 6.79302 7.67857C6.69078 7.5205 6.72997 7.30917 6.88213 7.19921C6.95792 7.14431 7.04199 7.08254 7.12817 7.01872Z" fill="black"/>
<path d="M13.4371 8.73985C13.2383 8.73985 13.0772 8.57728 13.0772 8.37691C13.0772 5.98787 11.1494 4.04424 8.77989 4.04424C8.58108 4.04424 8.41992 3.88167 8.41992 3.6813C8.41992 3.48085 8.58116 3.31836 8.77989 3.31836C11.5464 3.31836 13.7971 5.5877 13.7971 8.37691C13.7971 8.57736 13.636 8.73985 13.4371 8.73985Z" fill="black"/>
<path d="M12.309 8.73964C12.1102 8.73964 11.949 8.57707 11.949 8.3767C11.949 6.61479 10.5273 5.18144 8.77989 5.18144C8.58108 5.18144 8.41992 5.01887 8.41992 4.8185C8.41992 4.61805 8.58116 4.45557 8.77989 4.45557C10.9244 4.45557 12.6691 6.21462 12.6691 8.37678C12.669 8.57715 12.5078 8.73964 12.309 8.73964Z" fill="black"/>
<path d="M11.201 8.73971C11.0022 8.73971 10.841 8.57714 10.841 8.37677C10.841 7.23093 9.91637 6.29863 8.77989 6.29863C8.58108 6.29863 8.41992 6.13606 8.41992 5.93569C8.41992 5.73524 8.58116 5.57275 8.77989 5.57275C10.3134 5.57275 11.5611 6.83068 11.5611 8.37685C11.5611 8.57722 11.3998 8.73971 11.201 8.73971Z" fill="black"/>
<path d="M17.8805 6.58279C17.8805 2.94719 14.9574 0 11.3515 0H6.72896C3.01262 0 0 3.03744 0 6.78439V9.7108C0 12.6016 1.79402 15.0686 4.32016 16.0457V18.3443C4.32016 18.6167 4.49025 18.8637 4.74335 18.9589C4.81687 18.9867 4.89347 19 4.96934 19C5.15485 19 5.33686 18.9202 5.46248 18.7743L7.42334 16.4953H11.3516C14.9574 16.4953 17.8806 13.5481 17.8806 9.91248V6.58279H17.8805ZM16.3605 9.91248C16.3605 12.6972 14.1135 14.9627 11.3516 14.9627H7.86941L5.18625 18.1085C5.1512 18.1496 5.09447 18.1643 5.04408 18.1456C4.99369 18.1268 4.96017 18.0783 4.96017 18.0241C4.96017 17.3539 4.96017 15.8484 4.96017 14.6505C2.95614 13.9187 1.52006 11.9809 1.52006 9.71088V6.78447C1.52006 3.88858 3.8568 1.53259 6.72904 1.53259H11.3516C14.1136 1.53259 16.3606 3.79809 16.3606 6.58279V9.91248H16.3605Z" fill="black"/>
</svg>
