<svg width="22" height="21" viewBox="0 0 22 21" fill="none" xmlns="http://www.w3.org/2000/svg">
<path d="M6.48317 17.0686L6.4838 17.0685C6.52686 17.0554 6.57174 17.0486 6.61709 17.0486C6.70104 17.0486 6.7853 17.0717 6.85897 17.1179M6.48317 17.0686L4.50525 15.1211C4.5417 14.9944 4.52113 14.858 4.44979 14.7475L4.4496 14.7473C3.62821 13.4833 3.19404 12.0148 3.19404 10.5001C3.19404 6.19668 6.69571 2.69502 10.9991 2.69502C15.3025 2.69502 18.8042 6.19668 18.8042 10.5001C18.8042 14.8035 15.3025 18.3052 10.9991 18.3052C9.52934 18.3052 8.09787 17.8944 6.85897 17.1179M6.48317 17.0686L3.72722 17.917M6.48317 17.0686L3.72722 17.917M6.85897 17.1179L6.79254 17.2238L6.85893 17.1179C6.85894 17.1179 6.85895 17.1179 6.85897 17.1179ZM3.72722 17.917C3.95192 17.0979 4.29743 15.8453 4.50524 15.1212L3.72722 17.917ZM6.55507 17.9993C7.8971 18.796 9.42908 19.216 10.9991 19.216C15.8054 19.216 19.715 15.3064 19.715 10.5001C19.715 5.69383 15.8054 1.78418 10.9991 1.78418C6.19285 1.78418 2.2832 5.69383 2.2832 10.5001C2.2832 12.1208 2.72844 13.695 3.57369 15.0663C3.40503 15.6586 3.17503 16.489 2.98433 17.1817C2.88608 17.5387 2.79822 17.8592 2.73451 18.0919L2.65879 18.3688L2.63774 18.4458L2.632 18.4668L2.63041 18.4726L2.62987 18.4746L2.62987 18.4746L2.62959 18.4756C2.58589 18.6358 2.63275 18.8073 2.75274 18.9227C2.87233 19.0377 3.04507 19.0788 3.2028 19.0304L3.20294 19.0304L6.55507 17.9993Z" fill="black" stroke="black" stroke-width="0.25"/>
<path d="M13.576 11.2577C13.5605 11.2732 13.5466 11.2901 13.5347 11.3079M13.576 11.2577C13.6996 11.1328 14.0244 10.9818 14.453 11.1956C14.6063 11.2725 14.8154 11.409 15.1049 11.598L13.5347 11.3079M13.576 11.2577L13.4877 11.1693M13.576 11.2577L13.4872 11.1698C13.4873 11.1696 13.4875 11.1694 13.4877 11.1693M13.5347 11.3079C13.0897 11.9757 12.5085 12.6144 12.3383 12.6487L13.5347 11.3079ZM13.4877 11.1693C13.4665 11.1904 13.4474 11.2136 13.4307 11.2386L13.4307 11.2386C13.2115 11.5675 12.9586 11.8893 12.7404 12.1323C12.6312 12.254 12.5323 12.354 12.4518 12.4248C12.4115 12.4603 12.3777 12.4868 12.3509 12.5047C12.3424 12.5104 12.3354 12.5146 12.3299 12.5178M13.4877 11.1693C13.6478 11.0078 14.0303 10.845 14.5088 11.0837L14.5091 11.0838C14.6694 11.1644 14.8844 11.3047 15.1685 11.4902L15.1732 11.4933L15.1733 11.4934C15.5523 11.7412 16.0683 12.0786 16.6738 12.4148L12.3299 12.5178M12.3299 12.5178C12.3172 12.5136 12.3005 12.5076 12.2794 12.4989C12.2378 12.4819 12.1854 12.4576 12.1233 12.4259C11.999 12.3627 11.8402 12.2726 11.6579 12.159C11.2935 11.932 10.8395 11.6142 10.3869 11.2373C9.92469 10.8521 9.551 10.4774 9.28336 10.1389C9.03701 9.82741 8.88816 9.5561 8.83522 9.34181C9.40509 8.74686 9.6392 8.33701 9.6392 7.85666C9.6392 7.78042 9.61792 7.68632 9.58773 7.58784C9.55669 7.48663 9.51282 7.37024 9.46069 7.24558C9.35635 6.99611 9.21597 6.70662 9.07042 6.42704C8.92475 6.14722 8.77293 5.87544 8.6451 5.66102C8.58123 5.55387 8.52287 5.46025 8.47394 5.38674C8.42718 5.31648 8.38331 5.25573 8.3493 5.22173L8.34923 5.22165C8.22211 5.09475 8.02987 5.0346 7.80125 5.01864C7.57033 5.00253 7.28395 5.03014 6.94686 5.09733L6.94653 5.09739C6.85881 5.11512 6.77798 5.15826 6.71437 5.22141L6.71406 5.22173C6.66891 5.26687 6.16815 5.77753 5.79139 6.57488C5.41405 7.37346 5.15696 8.46949 5.61951 9.67225L5.61951 9.67226C6.11595 10.9629 6.99984 12.3556 8.16524 13.4873C9.33064 14.6191 10.7841 15.4961 12.4202 15.7415L12.4202 15.7415C12.79 15.7968 13.1378 15.8245 13.4647 15.8245C14.4289 15.8245 15.2107 15.5817 15.7927 15.0845C16.3745 14.5875 16.7416 13.8493 16.9017 12.8879C16.934 12.6977 16.8423 12.5082 16.6739 12.4149L12.3299 12.5178ZM12.5554 14.8407L12.5554 14.8407C10.8967 14.592 9.53878 13.6449 8.51075 12.541C7.48255 11.4368 6.7926 10.1844 6.46974 9.34526L6.35307 9.39014L6.46974 9.34525C6.1591 8.53793 6.28859 7.77209 6.5372 7.1601C6.77106 6.58441 7.10765 6.15228 7.26853 5.96513C7.37302 5.94873 7.47794 5.93696 7.5695 5.93066C7.64208 5.92566 7.70188 5.92444 7.74509 5.92605C7.86363 6.1058 8.08709 6.50507 8.29452 6.90699C8.40756 7.12602 8.51414 7.34256 8.59432 7.52003C8.63446 7.60887 8.66742 7.68671 8.69117 7.74953C8.71334 7.80816 8.72451 7.8462 8.7283 7.86607C8.72678 7.98705 8.68876 8.20297 8.03584 8.85624C7.95004 8.94165 7.90231 9.05749 7.90231 9.17834C7.90231 9.65158 8.14991 10.153 8.50769 10.6287C8.86785 11.1076 9.35217 11.5769 9.8533 11.9888C10.3549 12.4011 10.8771 12.759 11.3161 13.0146C11.5354 13.1423 11.7358 13.2454 11.9036 13.317C12.0658 13.3863 12.2142 13.4336 12.3228 13.4336C12.4969 13.4336 12.6719 13.3611 12.8358 13.2568C13.0012 13.1516 13.166 13.007 13.3226 12.8466C13.6116 12.5506 13.8828 12.1897 14.0882 11.892C14.0924 11.8939 14.0968 11.896 14.1014 11.8984L14.1014 11.8984C14.2123 11.9541 14.4107 12.0832 14.675 12.2561L14.675 12.2561C15.0025 12.4701 15.4345 12.7523 15.9434 13.0474C15.819 13.5935 15.5938 14.1134 15.1256 14.4643C14.6333 14.8333 13.8461 15.0346 12.5554 14.8407Z" fill="black" stroke="black" stroke-width="0.25"/>
</svg>
